<mxfile host="app.diagrams.net" modified="2023-07-11T02:59:57.907Z" agent="Mozilla/5.0 (Windows NT 10.0; Win64; x64) AppleWebKit/537.36 (KHTML, like Gecko) Chrome/114.0.0.0 Safari/537.36" etag="MWkFVgvKAsY6kTRd00QK" version="21.6.1" type="github" pages="2">
  <diagram name="Hugging FaceAI应用" id="kAFGudWZ_GIi3IBGjrq-">
    <mxGraphModel dx="794" dy="503" grid="1" gridSize="10" guides="1" tooltips="1" connect="1" arrows="1" fold="1" page="1" pageScale="1" pageWidth="827" pageHeight="1169" math="0" shadow="0">
      <root>
        <mxCell id="0" />
        <mxCell id="1" parent="0" />
        <mxCell id="3gkrU1Qj5pZHPReSSYtD-11" style="edgeStyle=orthogonalEdgeStyle;rounded=0;orthogonalLoop=1;jettySize=auto;html=1;exitX=0;exitY=0.5;exitDx=0;exitDy=0;entryX=1.023;entryY=0.591;entryDx=0;entryDy=0;entryPerimeter=0;startArrow=classic;startFill=1;" parent="1" source="3gkrU1Qj5pZHPReSSYtD-1" target="3gkrU1Qj5pZHPReSSYtD-2" edge="1">
          <mxGeometry relative="1" as="geometry" />
        </mxCell>
        <mxCell id="3gkrU1Qj5pZHPReSSYtD-13" style="edgeStyle=orthogonalEdgeStyle;rounded=0;orthogonalLoop=1;jettySize=auto;html=1;exitX=1;exitY=0.5;exitDx=0;exitDy=0;entryX=0;entryY=0.5;entryDx=0;entryDy=0;startArrow=classic;startFill=1;" parent="1" source="3gkrU1Qj5pZHPReSSYtD-1" target="3gkrU1Qj5pZHPReSSYtD-3" edge="1">
          <mxGeometry relative="1" as="geometry" />
        </mxCell>
        <mxCell id="3gkrU1Qj5pZHPReSSYtD-1" value="" style="shape=image;verticalLabelPosition=bottom;labelBackgroundColor=default;verticalAlign=top;aspect=fixed;imageAspect=0;image=data:image/png,iVBORw0KGgoAAAANSUhEUgAAARwAAACxCAMAAAAh3/JWAAAA9lBMVEX///9jZGakHhHYLCChHRBZWlzVAABfYGLcLSGfAAByc3XKystSU1Z4DQJcXV/CwsOtIhbfwL+wTEajFwPNKR3IKBzV1dbUKx/XHw65JBjWGADXJRezIhbAJhqqIRX19fXk5OTqoZ7v7++ZmZrzzMr33t1vCQCNjI1/gIKkpab68PDaPDLvtrTcTUXo5+j46OfnkIzcVU7gamXfX1n11NNsbW+/dnKxsrOioKHn0M+qNy/IjInuvLrkgn7ljIjZRDvgcWzrrKrjfHiIEwrEDADKUErZNyy7bWmyWVRKSk3RZWCoAACvRj+4Yl7UpqTcuLfFhYLRoJ54w3FyAAANCUlEQVR4nO2ceV8aSRPHOeYCJwMRGJBRGRl0wKighqBZj8TdNdlnc77/N/P0XD19VA/qmmBM/f7YzwI9Q/eXquqq6jGlEgqFQqFQKBQKhUKhUCgUCoVCoVAoFAqFQqFQKBQKhUKhUCgUCoVCoVAoFAqFQqFQKNTT0vRidnl5dbC76nk8PY1ueka/R9Q3jJOLVc/mKWl35vV7VSqv359NVz2np6HBwbXBkEnUMw4PVj2x1Wv0zuh7kbWIeLy+cfl61bNbpfZ3ukZC5dVhbj1e38vM5/r9qqe4Ko1OjL6VAjGmu5exCRGDOTw48Rjz+Q13r+mMGkhM4Zi8d3BoGKfv90slg4s+r94PVj1bVkeuy7503aNH/oLRsRiDjVH0/u5+9N+dvhh9bp5O9AltXdcpHtfRdTt8xNtnMVjYnfIBRlVUz6hePY3NfeyUieyUjv9P9MoZP9LN92dVQyLD5zXTExlejO8J5Ia+HdEomymO0Ixf2v5j3Ht0Kqc01d7lSBx3cAiMI7nhyqNzQy8nOJKX9eSVvvafbzzd6QEWUb3duRglsYYbPJNHRuZzvNrccC2FoycvHwvOBWQ0mVcZhtF7dTqLB+6ODnauTg5v8wGWlf8/ic5XKzSfHwFnesWGEc/rxeLNyPLiHYuMJAWoRz+zqu3mJosnzg1XtbkLcB4h5lwcs+mvYVyfXM5ms6ubU89g682qd0sG89u41d1qNrW9Pa3N4lnd5i7AceP4bNYfervdq35uNCRmvGedYjC6ZONQf6d0wMCxrPbG9jaB8+LFi70/RfO53ZEC1Y+XAKfUIFmPPX+YHe/PuIrbuALWM7rORxjTV5QAIdMkZJoJHILnxZ9bLB+rb5z89NxHhFMarDX8B91p/8bg4oohbdmJ3lE61isvizSdzYQMhRPzqXQ59zJ+Nh0JzkM1Eran3kw1MieYLj1xJwkOwbOnsbfs/+y88NHgHApJjXolx8LILseGgbNHPIsZZ/318r9O8p56NDh/C0v2ThUDp1IxFXuV6FZ7L7a7XNCpbtR+WTjr3K8cmc47cNyuJ4xLlp67lpYZDWc1VqeiFcEZDIpexm8d+f5w+ToGvu9nFwNwwK2KvQbUemu7zS+758nJ/+6NAbGpMkFZk4wm+qyiVSpqOP7cts1GOtNGWLaJztjZN0LTjvZhux4U5Lf+YhyN0m193BgCcIbRxwv+mqPsGidsKAGttypaU8BDtt/3r+l+Pr2Y3UpFhUfKCcogjj6aYDQEzVaEpgDO0I5yVzua9lFg60kiq9PWwlGYvRflcLo+gRexVrcdk46yx64IZ5B8DUvdH3PXBArTJHAqZA0b3O4b1daGcXt4eHjdM0iCzO3MUZXVP77cGbEXtDv8DYjDbWoxmgI4WV4/KIU2pZC1YYbse7EcOwDQzHV+mGmPJyYHJ3CS++YExFub0J0zOASPttkWHcfyPI9tksbEqiezg8SqZooStRqHmmZKpghOtoa1usMymMSLFtHEH5XFbmdgy6PM7MoUzjz7mvSagenI19gNNZyIz3ZHsdbEWA5vdi6YqmJXbgVSpf60DA6dGTfPODosgEXHPz/XGi6NdXgYB0esyssAdsHtJDiRd211gbjrnewcvJZKiqoqQnc3NBbNHeAIsxyq2Qh0xrIJLIcTKi4SuItwUu+S3As6mLoEncpiQs3D4JhRfHZzNiRckl2FWQ8bOorZwHBcFXdTjjufWsJSiPlIS5abDyPYqba2RTKEzScFGwmOY5vz0I22F/qOHrhHJB9ZzGkIylsPDcanHJGhEs6YOhXZxuuOTa8x5Q78m5q0Gk3bkLyrZ1xz2Q/QSbW6W5LRVCqt2jcVGwGOY2YJB52/nScnfpgRyzKWoc1cOnGHg6F7xuOB4FDwzjz+uqOFkzJ2gKDzoSbaToSn2RHxeH1jRgPPO9GpQH8iN2p9LCjJOTb5bkoNX/fZ0W62Z+sJw5CaAMOQ270gOG6GIneiRWI9/3Dflur8o2w8ceoj7e094zQxnwPBqSzQnyITbBc1uzg2a/LbYtJXT3Akez1FaM7Z/d1lbAeCkyWIbF9wcGbrdlmOx7H+9y/woyvMp381Le3zbOT9KUMTA71R4mHZ5GlGNn1bPsGdm/mic8PhxxzltlMEZ85dNHB9eIozw1MsD9zbifmcMBFH4U9MXO8ZKjo5G8bIs1Un9sErDRg6G7RtMfVfo3SK3MqcKyyF1W7aPbdAxwAzZzZttjqwPxGjo5cpW0Q5HJN5N12bDV0xiZ0mCp2ZBQAMx2YBnFKOrjxxl/SVaQtLZQIFmbOYCuf+xNqbutmV2z/zK6Y/rQke/A/1zCeClIAtr8/Xi+Dk7hjt//WztQJAbLNL7V3y3q4ONcJga2t5EshGx0YaUU0bUH7Om64YZFhoOT6fBEaAFio+60LQBd0E8C4VGsHMrPa2utlFDYct+gKw8uFF4ky6RAeqFwO+KhfKh4lUj5FyH8az3uK7OUXelR/IWF0wqxEQpsX5UjhceAnvAIckQCkcHQqrC6cIDlTJO/YCuE/c7Nrs8A28rsJ8SOpDFmxFB5wQGmlrS2P8Mjh8anoXOPYwS4916ImtZWflDaAdotcB40mbXVvVu5iPpmnbzW0NNJqmSHhjabMrmxf3698BDimvKBwfuG9j2YMEw7GMx5zLN6LNLiHmWvBOBEu8mod7Pzg05ji6QvHJri2tONcSt4rkB1KZ6sixnbYstKiVLEWMu/AR7U5Mfu4HZ5LO2WmoFA/P0hwoVowLA3Imd1IngBgLkhs6QrNLWKVib+fQiPuTZHL3g0MDhq+4igcAOAPN85Y/n+M3xkU9C7HZJZWbcOZMxwvNMast47wfnCyaQB0ERtR15O0q++huDy8NFrSlLCXlYrNLKjeVezsUaiBHXNrsEtZHrbwwt6c1kvzYDc1j7vpkV6gC/QFodol7MuxdSdW9LIS3ah+UC4ThZD88XEBICHSxuGJafSCcRTARIcATKUWtQKjZtSnWU6JNaBVuhMq+7tLsEuZE621dauqynYUFpcP7H9NYhuD4um464hPbahc9X5fpAPUUaz5alC5znyqK881u70b95KTiB5vQmCFEyNDWbYfiyb2HWeqwvqTZlXzscK2tIIPjl0Tt7/zVVNZT/NH3VpQAamKT0KpuFBTnnnF1TzgDumyzzMQJt+wwK2b762ZWnA0WXHIHwMlCVTk6Nk7k08MvuUsyM3pVdT0lnERY3XanfZeAxKYFqmfFlK7eYJp5+tna0WDgr03KOrPGZNFM88EeB5OgbvN5HQCHJaqHi8YiMOlxshzkLo2CaAqfRHChBk4UueSnf6+tPBJ7IBX9UYet5+lsXocP2ALSNB2pIgDgcA0L03G4JNAX58E0u1TdCqFqYqVodrHFuVX9995wSqa6wGLyWOX5nBoOa26CHPlQb51tdqm8S8ycMzSKvjrXB+zcMwlMjAI+zy7z0XcZHfDcaq44JoULTza4xt61fMWxloUaao1Ln7KAejJ1+BEBm89qXOhZjHJhJ7B0Bl7jQM8pr7d4tyHrURy0NDvMIFVayHtg4nVKOOms4efuF7b8E+t1keNwLBmPaWchK7WFNCvU8+1JxgM/oBMlOcLxuDI4R5lzpKqi2bXBOl/OTwkn2Toge440CHg8pg6W4G6Ze3qJ7Ft+er6VnYVlmx9zTZ3DY+qKE70kAxQDhdVRNLsqzc0m7Hh8cc6GL/UzgaFtkp1U+TjkYFGOmgpEUW8nVNVGbkg2MycZZZ75peiQQjfNPA0OyNc4vH36Abljeo2tvHOWHospH/nh79Ps4i62+IS54GnStSCEOuS5jtYWQRgGkyWP57uLSRiGzKhFGLDHPUEonzD4jejWk0bB4R5TO0idGXhvB9DwZid65U9/DvnRxBVWkncpuxXMNULAkkP1M4Ejp3xWt7iVLG11UEPnafzJ8AMkPdklp3zKVrJ01Ac3dH5Zwymdg+2cjY7Q+wRWLfTE4EGt2psV/DXao2n/I4BH7gaKwVl8dBA0r1btwy/rUqnO34J4xLNdNjgLVQK87ddqb351NJHOP9fAR9+afGIXMYjFnR8rGjq12h+/skOx2v+jBnuXcL7Q7XQ67aX7E/En7cuql/So+qryLnU7R9HQadXWf90dSqWXH2HvEpulORrYnz6s+h+z+DFSeRfQzoFDTesZhRpAX8HgHJ9kgQ0JwWienz/xUgbnreRf87CqcBR+3kaTSxmctzrtdgdOhSvPa38q0u4bODhr0HNdz3N/KtLgewUyH0DPJBW+p15+As1HMJraH0/qX8H7eZp+A4Mzg+bt11XPcZX68lZpPrXa5/NVT2/VOv8G4iH+9BuGGkBfNNG7aq3vq57U09H5OoOnVWv9PlnNnTQlhUWrVWmR/enTbx2FYe1/ffNJe/v5O4YaFAqFQqFQKBQKhUKhUCgUCoVCoVAoFAqFQqFQKBQKhUKhUCgUCoXi9H/gEjiVOYKeGwAAAABJRU5ErkJggg==;" parent="1" vertex="1">
          <mxGeometry x="330" y="250" width="192.54" height="120" as="geometry" />
        </mxCell>
        <mxCell id="3gkrU1Qj5pZHPReSSYtD-2" value="" style="verticalLabelPosition=bottom;html=1;verticalAlign=top;align=center;strokeColor=none;fillColor=#00BEF2;shape=mxgraph.azure.server_rack;" parent="1" vertex="1">
          <mxGeometry x="80" y="240" width="120" height="120" as="geometry" />
        </mxCell>
        <mxCell id="3gkrU1Qj5pZHPReSSYtD-3" value="" style="image;aspect=fixed;perimeter=ellipsePerimeter;html=1;align=center;shadow=0;dashed=0;spacingTop=3;image=img/lib/active_directory/cluster_server.svg;" parent="1" vertex="1">
          <mxGeometry x="630" y="245" width="130" height="130" as="geometry" />
        </mxCell>
        <mxCell id="3gkrU1Qj5pZHPReSSYtD-8" style="edgeStyle=orthogonalEdgeStyle;rounded=0;orthogonalLoop=1;jettySize=auto;html=1;entryX=0.5;entryY=1;entryDx=0;entryDy=0;entryPerimeter=0;startArrow=classic;startFill=1;" parent="1" source="3gkrU1Qj5pZHPReSSYtD-4" target="3gkrU1Qj5pZHPReSSYtD-2" edge="1">
          <mxGeometry relative="1" as="geometry" />
        </mxCell>
        <mxCell id="3gkrU1Qj5pZHPReSSYtD-4" value="" style="shape=image;verticalLabelPosition=bottom;labelBackgroundColor=default;verticalAlign=top;aspect=fixed;imageAspect=0;image=data:image/png,iVBORw0KGgoAAAANSUhEUgAAAgAAAAIACAYAAAD0eNT6AAAABHNCSVQICAgIfAhkiAAAAAlwSFlzAAAOxAAADsQBlSsOGwAAABl0RVh0U29mdHdhcmUAd3d3Lmlua3NjYXBlLm9yZ5vuPBoAACAASURBVHic7d13mBRV+vbxu3pyIkcVCZIERQwEQVTUxQBiFsNiwBzWnNOOWVgDuobFhIi6KmYBQSRKFlQQkCggOafJ0931/jHbvvgTZqp6urq6ur6f6+LaXeZUnWc5MM891VWnDAFAJUwzP1A4c87FhqHLJHWUVEsy18vUeDNg/Du3y8h5btcIwD7D7QIAJK7COac2VjDtM0ld9zMkLMN8Ortzp0cMIz8cz9oAVE+q2wUASExbpvbNU3n4Wxk6rJJhAZnGg0Wz5gQkPRCv2gBUX8DtAgAkpuw088kqmv/e7iua1edYRwsCEFMEAAB/sWVq3zyZ5jU2DjHCpm51rCAAMUcAAPAX2anhHpIy7RxjSL0cKgeAAwgAAPbBPCiKg2qbEy/IjXkpABxBAADwF6ZpFEZxWEhbVBzzYuJg4OK+ec/8fNpxbtcBxBMBAMBfmKlmNM/2LzAuHBGKeTFxEC4t62Ma5rNu1wHEEwEAwF/kdRq1QNJ8O8eYht53qJx4OFXSMc8vPLWO24UA8UIAALBPpgJ3SbK2uY9hrMhJMV5xtiJnmKYMGWYvSSmlIeNkt+sB4oUAAGCfcrt+Nc6Qeacks4qhG8OGzjKO+booHnXF2lPzTj1RphpLkhE2L3G7HiBeCAAA9iu766jBkvqY0tJ9fNmU9ImhUKe8zl8vjHNpMRMwzLsi/9001Pep+b3aulkPEC+8CwBAlUwzP1A8e04Xhc1jzIDyTGldwEidkN35yzVu11YdA+ed1iYsc5H+9MOQ+er9R3x7k2tFAXFCAADgW0/PO/VLSX3/z2+XBGR0vPeIMUvcqAmIFz4CAOBLz8zrdZH+2vwlKTMsc2i+mc/3RyQ1/oID8J2nfjy9vinjxUqGHJv5y4wb4lYQ4AICAABfyV95YqaREv5MUoPKxpmmnn96/qmnxKksIO4IAAB8wzRlZOzKfFOSlW1/0yV9+uQvp3VwuCzAFdwECMAXhsw5Om17er3/yNQAm4euNYyUM+7rMPoXRwoDXEIAAJD0np7fu7bM0CeSeVKUpygwZF5y3xHffh3TwgAXEQAAJLVnfunVzQwbQyW1ruapQjL1aGlajYH57UeUxaI2wE0EAABJKf+nE2tlBNIflYybFdv7nZbJ0I33dxj7XQzPCcQdAQBAUnni5z4HphjlN0i6TlI9h6YxJY0KBMyX7jns2+8Mo8r3JQAJhwAAwPOe/OXkhilm6slh6SzD1DmS0uI2uaFFkt6VzO9KD+/2U76Rb+0NioDLCAAAPOup+b3aGqbxkaTDlRjfz7ZJ5gv3H/Htk24XAlSFfQAAeNb9h3+7RGHjasM0H5D0naQSl0pZKpmvmqZxbWm47BWXagBsSYTEDAAx8cycU2oqLeUKU7pdUlOHpyuX9IUMvc4NgfAiAgCApJM/8cTU9DrplxoyBqmKLX+jYMrUsEA4/OC9R41bH+NzA3FDAACQtBx4FJBHAJE0CAAAkt4z83udbsr4UKZqRHsOQ8Yn6YV5l93RbURxLGsD3MJNgACS3n0dvv0mbBg9JP0exeGmTA0s6dC1H80fyYQrAAB845mFpxxsBlNmSDrA8kGGecf9Hb59wbmqAHdwBQCAb9zX/rvfwzJPNaSdVsYbhp6n+SNZEQAA+MqDR3y7QKZxkaSqduz7suTwY++OR02AG/gIAIAvPT2v1yuSceN+vrwtHAi2f/Dw8ZviWhQQR1wBAOBLgYzM+ySt2dfXTFO30/yR7AgAAHzp3rZf7TFM3fXXrxjTHug4dnj8KwLiiwAAwLdaLK3xqSmt2Pv3TGmQW/UA8UQAAOBbF144IhQwzRf3+q2lZR26jnStICCOCAAAfK0krWyopFJJkqnX8438qp4OAJICAQCAr+W3n1RgSFMlyQwHvnG7HiBeCAAAfM+UMVYy1z1w1DeL3K4FiJdUtwsAALcFpK9ChpHrdh0AAAAAAAAAAAAAAAAAAAAAAAAAAAAAAAAAAADwCcPtAvaSI6nF//4zV1ItJVZ9AADYZUraKalAUqGk3/73n65zq8GmS+oqqaek4yS1kdTEpVoAAIin3yUtkTRN0gRJsySVxbuIeAaAgKSTJF0m6RxV/JQPAIDfFUj6TNK7kiZKissrqeMRADIlXSnpHknN4jAfAABetVLSIElDJZU6OZGTASAg6WpJ+ZIaOzgPAADJZr2kf0p6Ww5dEXAqABwp6TVJXRw6PwAAfjBD0o2Sfo71iVNifD5D0q2SPpLUNMbnBgDAb5qo4mp6iqQpqniqICZieQWgpqT3JPWJ4TkBAECFryT1l7Q7FieLVQBoKOkbVVz6BwAAzvhF0mmquEegWmIRAJpJ+k7SITE4FwAAqNwKSSdLWl2dk1Q3ADSQ9L2k1tU8jyQpI7eucuo1UWp6ttKyakgGGwECADzMNFVevFvB0kIVbluj0oLtsTrzEkk9JG2J9gTV6bC5kiZJOjraE2TVbKgDO56m+q27qV7zo5WWXbMa5QAAkNjKinZp28q52rxkmtbNG6OSXZurc7ofVLGjblRbC1cnALwv6ZJoDqzfqqtan3SNGrTpLiMQ6wcRAABIfGY4pM1LpmrJ+Ne1dfnsaE8zXBU77NoWbQC4WtIbdg+q0ailjjjvn6rfqmuU0wIAkHy2LJuhnz95VHs2rYjm8AGq2DnQlmgCQDNJCyVlW57ECKj1ydfq0NNvVSAlNYopAQBIbuFQuRaNfkFLJ7wpmbYe9y+U1F42bwqM5vr7u5IOszo4NSNbXQe8ohbdL5ERCEQxHQAAyc8IpKhBm+6q1aS9Ni4Yr3AoaPXQdFX8cP6Rrfls1tdH0tdWB6dl11T3695SnaZH2JwGAAD/2r7qZ017/WqVF+2yc9gZqtiTxxK7AeAHScdYGZiSlqnjbhiqui0sDQcAAHvZvnqepr7SX8GyYquH/KSKJ/MsfX5g5yOAMyTdbXVwp/7PqVG7E2ycHgAARGTVaqScuk20bt5Yq4c0VsXLgyzdSWgnAAyR1NzKwObdL1abk6+1cWoAAPB/1WjcWsW7Nmvn2oVWD2msinv1qmT1rrymkiz9OJ9Zo74OO9PyhQIAAFCJw8+6T5k1G1gd3lMVbxCsktVn8vrLYlg4rO+9SsvMs3ja/Ssv3m33MQgAABKLYVRsbV8NaZm5at/7Ts394F4rwwOS/i7p6SpLszj/j7Lwpr/cek31twfGRrW73+4NS7R61mfauGiiCrevUzhYZvscAAAkmkBqunLqHqRGh56opl3OU43G9l+fY4ZD+vbJv6lw2xorw+dI6lTVICsBoK6kzbJwBeCIcx/WIcfb25EwWFqkeZ89pt9nfy7TDNs6FgAALzGMgJp2OU8dznlIqRmW99OTJC2fPEzzP3/CytCQpPqSdlQ2yMpl/ROtjAukpKrJ0WdaKewPJbs2a/KL/bR61qc0fwBA0jPNsFbNHKHJL/VTyW57L/JrcvSZVnfTTZGF+/asBIAqLyNIUr1DOis9p7aVoZKkUHmJZr59o3atX2z5GAAAksGudYs1/fVrFLL+jL8ycuvY2Vunc1UDrASANlZmqt/6WCvD/rD421e1ffU8W8cAAJAsdq5dqCXjh9g6pn5Lyy/Tq/JGg5gFgNoHd7AyTJJUWrBdyye/Y3k8AADJaPnEt1VWWOlH9X9S2/rW+m2rGmAlABxoZaa8Bpb2CJIkbfhlnK3LHgAAJKNgWbHWLxhvebyNXntQVQOqCgCGpNwqpzEMZdZsaLEmacuymZbHAgCQzLYsnWF5bFatRpJh6Qn+XFXxpF9VASDHwhilpmfJMKy/6rdo50bLYwEASGbFOzdYHmsEUpSSlmllaIqkrMoGVPU8gaVZAqkZVob9obx4t6Vx6bk1otpUCAAAt5nhkMoKqu53ZfZe+auUtEyrH6NnSyra3xetbgXsin7vT1LdVu3dLgMAANu2LVuo4Wcd5XYZ+2X9uj0AAEgaBAAAAHyIAAAAgA8RAAAA8CECAAAAPkQAAADAhwgAAAD4EAEAAAAfIgAAAOBDBAAAAHyIAAAAgA8RAAAA8CECAAAAPkQAAADAhwgAAAD4EAEAAAAfIgAAAOBDBAAAAHyIAAAAgA8RAAAA8CECAAAAPkQAAADAh1LdLiBZrJjwtX4a9pI2LZir8uLCmJ47LStHDQ8/Wkddfpta9Owd03MDAPyJABADU59/UHPefNax85cXF2rt7ClaO3uKOl97r7rd9phjcwEA/IGPAKppxYSvHW3+/9fs1wdq5aTRcZsPAJCcCADV9NOwl+I+54/DBsd9TgBAciEAVNOmhT/Gf84F8Z8TAJBcCABeZBhuVwAA8DgCQDU1POyo+M/ZPv5zAgCSCwGgmo66/Lb4z3lF/OcEACQXAkA1tejZW52vvTdu83W+/n41P+H0uM0HAEhO7AMQA91ue0yNO3bVj8MGa+Mvc1VeVBDT86dl56rR4cfoqCtuo/kDAGKCABAjzU88Q81PPMPtMgAAsISPAAAA8CECAAAAPkQAAADAhwgAAAD4EAEAAAAfIgAAAOBDBAAAAHyIAAAAgA8RAAAA8CECAAAAPkQAAADAhwgAAAD4EAEAAAAfIgAAAOBDBAAAAHyIAAAAgA+lul0AEC9mKKSCLRtUununwuVlbpeDBBJIS1dGjVrKbXCAjAA/F8EfCABIWmY4rLU/TNFvE0dq3Zyp2rZ8kUJlpW6XhQSWkp6hui3b6aBOPdT8xD46qFMPAgGSFgEASae8uFC/fPSmfhr+b+3ZsMbtcuAhobJSbV70kzYv+kk/DntJeY2b6MjLbtHhF16ltKwct8sDYopoi6SyZPTHeue0dpoy6B6aP6ptz4Y1mjLwbg074zAtHfOJ2+UAMUUAQFIoK9itb+7qr2/u6q/CLRvdLgdJpmDTeo2+41KNuedylRXucbscICYIAPC8om2bNeKyU7Rk9Mdul4Ikt3jkh/rokhNUsGm926UA1UYAgKcVbd+iEf1P0pbF89wuBT6xbdlCfXplLxVv3+J2KUC1EADgWcHSEn1xXV/tWLXM7VLgMztWLdMX15/NUyXwNAIAPGvKM3dr88If3S4DPrVpwRxNGXiP22UAUSMAwJPWzZ2q+R+/4XYZ8Ll5Hw7RmlmT3S4DiAr7AMBzzHBYEx+/VTJN28dmpAXUuH6matdIszR+6eoCFRaHqhzXpkV95WSn264HiWH7ziJt2LxHpWVBeweapqY8c5cu/Wy2ZBjOFAc4hAAAz1kx4WttXbrA1jE9jqqrf1zcQid1rqesjBTLx/W8eppmL9hR5bi3B52vLkc2sVUTEktxSbnGTV2mwW9P05RZKy0ft2XJfK2YOFKHnHSmg9UBscdHAPCc+f/9j+WxWRkpGvrokRrz6rHq3aOhreYPf8nKTFPfU9ppwgfXaNhzFyor09pVIsne30kgURAA4CmFmzdozaxJlsampwX0xeAuuvDUA50tCknn0rM7atTbVyg9zVpg/H3mRBVu3eRwVUBsEQDgKaunfyczHLY09qlb2um4I+s4XBGS1fFdmuvpe0+zNNYMhbRmxniHKwJiiwAAT1n/43RL41o1zdU15zZ1uBokuxv7d1Xr5vUsjV03d5rD1QCxRQCAp2z/bbGlcf17H6TUFO7KRvWkpaao/7lHWRq7/bclDlcDxBYBAJ6yZ/3vlsb17GTtpzagKn87rqWlcXvWr3a4EiC2CADwlLLCAkvjmjTKcrgS+EWTA2pZGldawFsC4S0EAACoRCBg8aOkKDamAtxEAICnpGXnWBq3fkuJw5XAL9Zu2GVpXHpunsOVALFFAICn5Da09kz/pB+2OlwJ/GL89BWWxuU2OsjhSoDYIgDAU+oc0tbSuPdHr1U4zCVZVE84bOq9z3+yNLZO8zYOVwPEFgEAnnLAkcdaGrdwxR69N2qtw9Ug2b3zyVwtWLLR0tgDju7mcDVAbBEA4CkHdzvF8lvX7np+geYttfb5LfB//bxovW577Gtrgw1DBx97srMFATFGAICn1DjgYB14VHdLYwuLQzr9ppkaN3OLw1Uh2YyZvFSnXPqmiorLLY0/8OjjlMc9APAYAgA85/B+11geu2tPuc65fZb+/sBczfplB/cFYL/CYVMzfvxdF970gc68aph27rb+JEmHi651sDLAGaluFwDY1eb0CzTzlce1c/VyS+NNU/p8wgZ9PmGD6tRMV8smOcrJsvaWt8WrrG3ucutjX6tmXqalsUg8BUWlWr5ym7btLLJ9bJ0WbdT61PMcqApwFgEAnmOkpKjng4P1+bV9bB+7fVeZZu8qi3lNc+Zzw6Ff9bhnkIwUa4ESSCR8BABPanrc39S2z8VulwGfa3d2fzU/3torg4FEQwCAZ52c/7LqtLC2LwAQa3VbtVfPh190uwwgagQAeFZadq7OeWOk5d0BgVjJbXigzh7yldKyrG1NDSQiAgA8La9xE104fIJqN2vldinwiZpNmuv8d77lsT94HgEAnlfjoGa68L2Janrc39wuBUmu2fGn6aIPp6pW05ZulwJUGwEASSGrTn2d/Z+v1POhF5WRZ+397YBVGTVq66R//ltnv/aFsmrXc7scICYIAEgaRiCgIy65XleMWajO195LEEC1ZdSorc7X368rxyxUh37XWt6GGvAC9gFA0smqXU/dbntMnW94QCsnj9ZvE0dp7axJ2rORZ/VRtbzGTdSky4lqcWJvNTvhdKVmsMETkhMBAEkrNSNTrXqdq1a9zpUkle7Zpd3rV6tkxzaZJlsC4/8zDEOZteuqxgFNlZFX0+1ygLggAMA3MvJqqn6bDm6XAQAJgXsAAADwIQIAAAA+RAAAAMCHCAAAAPgQAQAAAB8iAAAA4EMEAAAAfIgAAACADxEAAADwIQIAAAA+RAAAAMCHCAAAAPgQAQAAAB8iAAAA4EMEAAAAfIgAAACAD6W6XUBlhp91lNslAACQlLgCAACADxEAAADwIQIAAAA+RAAAAMCHCAAAAPgQAQAAAB8iAAAA4EMEAAAAfIgAAACADyX0ToBTZ8/Toe3au10GAAC2/bpooY7rfITbZewXVwAAAPAhAgAAAD5EAAAAwIcIAAAA+BABAAAAHyIAAADgQwQAAAB8iAAAAIAPEQAAAPAhAgAAAD5EAAAAwIcIAAAA+BABAAAAHyIAAADgQwQAAAB8iAAAAIAPEQAAAPAhAgAAAD6U6nYBiF5pSYlmTJ+qFSuWacvmzSorLXW7JFekZ2SoQcOGatGipY7tdpwyMjPdLqlSrFsF1s2bvLZu2D8CgAdt3LBe/3rmCY348AMVFha4XU5CycnJ1QUXXaK773tIjRof4HY5f8K67R/r5k2JvG6oGh8BeMyXn3+iTh0P1Ttvvc43o30oLCzQO2+9rs4d2+mrLz51u5w/fPHZCNatEqybNyXqusEaAoCHvPXGa7rqsotVVFjodikJr7CwQAP6X6Shbw5xuxS99cZruvryS1g3C1g3b0qkdYN1BACPmDJpgh64+3aZpul2KZ5hmqbuu+tWTft+sms1sG72sW7elAjrBnsIAB4QDAZ17523KhgMul2K5wSDQd1xy42u/NmxbtFj3bzJzXWDfQQAD/j804+1dMmvbpfhWcuXLdGXn38S93lZt+ph3bzJrXWDfQQAD+Dmmur7+ovP4j4n61Z9rJs3ubFusI8A4AGzZ0x3uwTPmzF9atznZN2qj3XzJjfWDfYRABJcWVmZtm3b6nYZnrdt6xaVxnHjFtYtNlg3b4r3uiE6bASU4Pbs2W3pTuS0rBx1ueGBOFSUeGa99pTKiyt/VMs0TRUU7FFGRkZcarK6bjnpKXrwb4fEoaLE8+S4FSosC1U6JlHXLZCWqSZdLotDRYlnzax3FS4vqXRMvNcN0SEAJInUzCwdc/VdbpfhirlDX6gyACSqrLQU3dOzhdtluOL5SauqDACJKiU1Qwcec7HbZbhi/dyPqgwA8AY+AgAAwIcIAAAA+BABAAAAHyIAAADgQwQAAAB8iAAAAIAPEQAAAPAhAgAAAD5EAAAAwIfYCdBnzFBIG+bN0o7Vy1S8bYvScnJV86DmOvCY45SWleN2ediPUNjUrN93aumWIm0uKFVeRqqa18lSjxZ1lJOe4nZ52A/TDKtgwyIV71ij8uKdSknLVkbNRqpx4BFKSct0uzz4HAHAJ0r37NTct57X/I/fVMnObX/5empGpg455Sx1velh1W7WyoUKsS87i8v13KSVen3GGm0rKv/L1zNTAzr78IZ6pFdLta5PgEsUwdICrZ/7oTbO/1rBkt1/+XogNV11DumhJl2vUFbtg1yoECAA+MK6Od9r1G0Xq2j7lv2OCZaWaMmoj7RszKfqcc9AHdn/5jhWiH35/rft6vfuz9pcULbfMSXBsD78aYM+mbdRg85sq1t6NI1jhdiX3evma8mof6q8aOd+x4SDZdq6ZLy2LZukZj1uUOMjz4tjhUAF7gFIcktGfaTPrjqj0ua/t3AoqMlP36kJj/5DsvBWNDjjw5826NQhcypt/nsLhk3d8eWvuunThSybi7YuGa+Fn91ZafPfmxkOaeXkl/XbhBcksXCILwJAEls65hONvW+AQuXWmsje5n/0usY9fL3McNiBylCZEfM26or/zldZyP6f/ZAZa3TtiAUKkwLibuvSSVo29mmZoaDtYzfO/0rLx/1LMvn3hvghACSppWM+0Zi7L1c4im9GEQs/e0ffPXIDISCORszbqP7vz1MwHH0DHzp7ra4bsZAQEEdbl07SsjFPyAxH/3rjzQu/0fLvniUEIG4IAEkoFs0/ghAQP7Fo/hGEgPiJRfOPIAQgnggASSaWzT+CEOC8WDb/CEKA82LZ/CMIAYgXAkAScaL5RxACnONE848gBDjHieYfQQhAPBAAkkSorNSx5h9BCIi90mDYseYfQQiIvXCo3LHmH0EIgNMIAEmirHCP7eZfo4H9ncgWfvaOxj96M48Ixsie0qDt5n9gFOs2dPZa3fjJIpYtRkJlRbabf0bdRrbn2bzwG60YzyOCcAYbAflU0461dOWrR2vy0JWa+MZvto5dMOItmaGQTnnsNRmB2GTIkp3btHb2FO3ZuFblxYXKrlNfdVu1V6PDO8lIYavbiGM71NEXgzvr+eErNHDoMlvHvjlrjUKmqSEXtFfAMGJSz7aick1evl1rdhWrsDSkBnnpOqxRnjo1qamUQGzmSAY12hyt9g+8rbVfva41n75i69hNC0bKNENqecpdkhGbf2/Bkt3atfZnle3ZrFB5idKyaym7bnPlNjpURozmQOIjAPhQpPln5KSq180V2/7aDQELP3tHkqodAjYtmKsZ/35Uq6d/JzP015+osurUV8dLbtCRl9+i9Jy8qOdJBpHmn5udqkeuayNJtkPA0NlrJanaIWDuml3659jlGrd0q0L7uIJRPzddN3Y/WLcd30x5Gf7+NhNp/ilZOWra73ZJsh0CNi/8RpKqHQIKNi3RmhlDtXP1DzL38dFCWlYtNep4jg448nylpGdHPQ+8gajnM3s3/4heN7dSz2ta2D5Xde4JMMNhTXvhIf23X3et+n7sPpu/JBVv36IZLz+md/scoU0L5tqeJ1ns3fwjHrmuje690v57G6pzT0DYNPXg6KXq+tIMjVm8ZZ/NX5K2FJTp0bHLdfigqZq7ZpfteZLF3s0/omm/29XkvJtsn6ta9wSYYa2e9obm//cG7Vg1a5/NX5LKi3dqzYyh+undK1SwaYn9eeApBAAf2Vfzj4hnCAiVl2nU7Rfrhzf+ZflegoJN6zTispO1ctJo2zV63b6af0R1QsD1NkNAWSisfu/+rIETfrN8L8HaXSU68dXZGrXI2lbUyWRfzT8iniHADAW1ZFS+1v3wgazeS1BWsEULRtyqHStn2K4R3kEA8InKmn9EPEJAOFiu0XdcquXjvrA9T7CkWCNv7acVE762faxXVdb8I6INAW/bCAHlIVMXD5+nz3/ZZHue4vKQLhj2k75auNn2sV5VWfOPiEcIMMNBLRn9qLYt/972POFgqRaPfETbV0yzfSy8gQDgA82Oqq0Brx1TafOP6HVzK50woLntOaw8HRAOlmvU7ZdoxfivbJ8/IlReptG3X+KLENC9Yx198WLlzT/ikeva6M7LWtqe4+3Za3XTp5U/HVAeMnXR8J/15QL7zT+iLBTWRe/+7IsQUOPQTmr/4NBKm39E036366Czr7c9h5WnA8xwUEtGPartK6baPv8f5wgFtWR0PiEgSREAklyzo2rryleOVnq29TvpT7u1dVQhYMGIt/Rd/k37DAGxaP4RfggB3TvW0WcvdFZulvUb6B67sW1UIeCNmWt0437eIhiL5h/hhxBQ49BOan//W0rJtH4DXbNL7ooqBGxaMFIrvnte+woBsWj+f5yLEJC0CABJLJrmHxHLEBDL5h+RzCEgmuYfEcsQEMvmH5HMISCa5h8RyxAQy+b/xzkJAUnJ38/nJLHqNP+I025tLUma/PZKW8ctGPGWJOmU/FcUDgVj3vwjIiEgJcP+xjiJqjrNP+KxG9tKkp57d7mt496YuUaS9Op57RUMx775R0RCQGZa8vz8UZ3mH9HskrskSWu/+I+t4zYtGClJOuSUO2SGQzFv/hGREBBISY/5ueEOAkASikXzj6hWCAiHVbxzmyPNPyJUXqZQeZlj54+nWDT/iOqEgLBpamthuSPNP6IsFFZZKDm2uI1F84+oXggIq7x4tyPNP8IMBRVycLtxxBcBIMnEsvlHRB0CPh1qey7DkOofkKfN6/bYPtbLYtn8I6INAW/NWmt7LsMwdPABNbV63U7bx3pZLJt/RPQhwP4jsoZhqM6BTbRt7e+2j4X3Jc81ODjS/COivSfADsOQrs4/Xi+OvVitOzZ0dK5E4kTzj4j2ngA7DMPQcw/11o+jblGnIw5ydK5E4kTzj4j2ngA7DMNQv0ef0yPjflDzjp0cnQuJiQCQJFJSDceaf4STISDS/M+88gjl1MjQugHhngAAHvJJREFUo++d5YsQkJZqONb8I5wMAZHmf8sV3VQzL1Njhg3wRQgwUlIda/4RToaASPM/+aqblF2jlm7770hCgA8RAJJEZk6ao80/wokQsHfzj/BLCMjLTXO0+Uc4EQL2bv4RfgkBqdl5jjb/CCdCwN7NP4IQ4E8EgGQRxxevxTIE7Kv5R/ghBMTzfXmxDAH7av4RfgkB8RLLELCv5h9BCPAfAgCiEosQUFnzj8ipkaH84Wep5eENqjUXKsQiBFTW/CMIAbEVixBQWfOPyK5RS7d98LWadjiqWnPBGwgAiNppt7bW8Zc3i+pYK80/Irdmhh774GxCQIw8dmNb3fb3Q6I61krzj6iZl6nRQ6/UUYcdGNVc+LNml9ylg/peE9WxVpp/RHbN2rrjw9GEAB8gACBqofKwtv5eZPs4O80/ghAQO2XlYa1YU2j7ODvNP6J2zSyNfXcAISAGzGC5ijfYexRXstf8IwgB/kAAQFRC5WF9cPc8LZpob0vXaJp/BCGg+srKw7rsoR/19eSNto6LpvlHEAKqzwyWa/EL/9C2H76zdVw0zT+CEJD8CACwzY3mH0EIiJ4bzT+CEBA9N5p/BCEguREAYIubzT+CEGCfm80/ghBgn5vNP4IQkLwIALAsEZp/BCHAukRo/hGEAOsSoflHEAKSEwEAliRS84+IhICUVP4a708iNf+ISAhITWHd9ieRmn9EJAQEUnmFTLLgXyCqlIjNPyK3Zoay8zIcO7+XJWLzj6hdM0s185LnNc6xlIjNPyK7Zm1l5dV07PyILwIAKpXIzX/vufBnidz8954Lf5bIzX/vuZAcCADYr1DQ1Af3JHbzx1+VB82Eb/74KzMU1OIXbkno5o/kQgDAPoWCpj64+2ctmkDz95LyoKn+D86l+XuMGQpq8fP/0LYfxtk6juaP6iAA4C9o/t5E8/cmmj/cQgDAn9D8vYnm7000f7iJAIA/0Py9iebvTTR/uI0AAEk0f6+i+XsTzR+JgAAAmr9H0fy9ieaPREEA8DmavzfR/L2J5o9EQgDwMZq/N9H8vYnmj0RDAPApmr830fy9ieaPREQA8CGavzfR/L2J5o9ERQDwGZq/N9H8vYnmj0TGex2TRHlpSJPfXlnpGNOUfh69XpuWF9g+f6dTmqusJKhPX5sbbYmOKSsJul1C1EpKQ3p++IpKx4TCpj4au06//rbH1rkNSb1PaqOS0nINGjK5GlU6o7i03O0SohYuK9HaL4dUPsg0tfn7L1W0ZpnNsxvqcEpvlZcUa8wrz0Zdo1PKS4rdLgExQgBIcHl5NWQYhkzTrHRcWXFIY15c6lgds8et1OxxlQeMRBYIBJSXVyNu81ldt8LikB5+5VdHajAljRy/WCPHL3bk/PGQqOsWKi3Wqvf/5VAVpuaNG6l540Y6dH7nxXvdEB0+Akhw6enpqlu3nttleF7devWVnp4et/lYt9hg3bwp3uuG6BAAPKBLt+5ul+B5x3Y7Lu5zsm7Vx7p5kxvrBvsIAB5w5lnnul2C5/U565y4z8m6VR/r5k1urBvsIwB4wLnn91Obtu3cLsOzWrVuq7POOT/u87Ju1cO6eZNb6wb7CAAekJKSooHPvajUVO7ZtCstLU3PvfSqK392rFv0WDdvcnPdYB8BwCN6nNBTTz87WIZhuF2KZxiGoYHPvaTuxx3vWg2sm32smzclwrrBHgKAhwy4+noNfe8j5eTkul1KwsvNzdM773+sywdc43YpGnD19Xp7+IesmwWsmzcl0rrBOgKAx5x51rmaM3+xrrz6OuXm5rldTsLJy6uhAVdfrx/m/ao+fRPnRqS+Z5+nH+b9yrrtB+vmTYm6brCmqutb9SRtqeok6Tm11efJ2ZYn/W5gb+3eUPWmNVNnz9Oh7dpbPq/flJaWaub0qfptxXJt2rRRZaWlbpfkivSMDDVs2EiHtGylLsd2V0ZGhtslVYp1q8C6eZPX1s1Nvy5aqOM6V719eo3GrXXKvaMsn3fkg51VVrjDytD6krbu74vcqeFhGRkZOqHnyTqh58lulwIbWDdvYt2QbPgIAAAAHyIAAADgQwQAAAB8iAAAAIAPEQAAAPAhAgAAAD5EAAAAwIcIAAAA+BABAAAAH2InQJ8rLS3Vyt9WqLSkxNU6MjIz1eKQlkpPT3e1Dq9g3byJdUMiIQD4VGlpqQY++ajefuM/2rNnt9vlSKp4schV196gex54hP3F94N18ybWDYmIAOBD5eXluvj8vpo8cbzbpfzJnj27Nfi5gfr5p7n66LORSk3lr+feWDdvYt2QqLgHwIfeHPJKwn0z2tukCd/prddfdbuMhMO6eRPrhkRFAPCh998d6nYJVfJCjfHmhT8TL9QYb174M/FCjYg9AoDPmKap5cuWul1GlZYuWSzTNN0uI2Gwbt7EuiGREQB8xjAMZWVlu11GlbKzc2QYhttlJAzWzZtYNyQyAoAPdT/+BLdLqNJxJ5zodgkJh3XzJtYNiYoA4EN33fOg0tLS3C5jv9LT03XXPQ+6XUbCYd28iXVDoiIA+FDHo47Wq2+8o4zMTLdL+YvMrCy99uYwdeh4pNulJBzWzZtYNyQqHvz0qXPP76djOnXRO2+9rp9+nKNdu3a6Wk+tWrXV8cijdeXV16nJwU1drSWRsW7exLohEREAfOzgps30yGNPuV0GbGLdvIl1Q6LhIwAAAHyIAAAAgA8RAAAA8CECAAAAPkQAAADAhwgAAAD4EAEAAAAfIgAAAOBDBAAAAHyIAAAAgA8l9FbA77/7tuo3aOh2GQAA2LZl8ya3S6hUQgeA115+0e0SAABISnwEAACADxEAAADwIQIAAAA+RAAAAMCHCAAAAPgQAQAAAB8iAAAA4EMEAAAAfCihNwIacMExqlcnx+0y9uubSUv0y5KNVY5r1O4E1WjcJg4VAQASRVnhdq2a+YnbZexXQgeAWwd0V/vWibsV8OZtBZYCwIFHnK6mXc6LQ0UAgESxe8PShA4AfAQAAIAPEQAAAPAhAgAAAD5EAAAAwIcIAAAA+BABAAAAHyIAAADgQwQAAAB8iAAAAIAPEQAAAPAhAgAAAD5EAAAAwIdi8jKgYGmRfvr4YcvjS3ZtsjTu8ZfGq3bN7GjLctz0ub9bGrf6h8+1ffXPDlcDAEgkZUU7LY0r2bXJVg8NlhZFW9KfGFV8vZ6kLTGZCQAAxFN9SVv390U+AgAAwIcIAAAA+BABAAAAHyIAAADgQwQAAAB8iAAAAIAPEQAAAPAhAgAAAD4Uk50Ac3Jy9fjT/4rFqQAAQCUevv9uFRYWVPs8MdkJsG7delq6emO1iwEAAJVr3bSRtm3b7wZ/e2MnQAAA8GcEAAAAfIgAAACADxEAAADwIQIAAAA+RAAAAMCHCAAAAPgQAQAAAB8iAAAA4EMx2QoYgHcEg0FtWL9OxcVFkqSsrGw1PuBApaby7QDwE/7FA0muvLxc48eN1fhvx2j6tCn6bcVylZWV/WlMenq6DmnZSt26H69TTj1dJ53Si0AAJDneBQAkqZ07d+iN117Wm6+/pq1bNts6tn6Dhrrmuht19fU3qWbNWg5VCCAavAsAwD6Zpqn33x2qzkccqmeefNR285ekLZs36anH/6nORxyq/743zIEqAbiNAAAkkV27durySy/QLTdeY/UnhEpt3bpFN19/la78ez/t2bM7BhUCSBQEACBJbNq4QWee2lOjvvoi5uf+6otPdeapPbV5Ex/1AcmCAAAkge3bt+ns3r20cMEvjs3xy/x5Ort3L+3Ysd2xOQDEDwEA8LhgMKjLLjpPS5f86vhcSxYv0uWXXKBQKOT4XACcRQAAPG7Q049rxvSpcZtv2veT9ezAJ+M2HwBnEAAAD1uyeJFeen5Q3Ocd/OwzcbniAMA5BADAwx7Pf0jl5eW2j8vIzNRBBzfTgQc3VUZmpu3jy8rK9OSjj9g+DkDiYKsvwKOWLF6kMaO+tnVM9xNPUb/LrtaRnY79Y6e/YDCoH2dP10fD3tD0KRMsn2v0yC+1bOlitWrd1lYNABIDVwAAj/pg+DCZpmlpbFZWtp4c/LqefW2YOh3b40/b/Kampqpzt+P13JDhevKFIcrMzLJ0znA4rA+Gs0kQ4FUEAMCjvvriU0vjUlJS9czLb+mkU3tXOfak0/romZffUiAlxdK5v/7iM0vjACQeAgDgQatXrdTvq1dZGnvpgOvVudvxls/dpfsJuviKay2NXblyhdb8vtryuQEkDgIA4EEL5s+zNC4zM0v9r7nJ9vkvv/Yflm8OtFoLgMRCAAA8aPnypZbGderWQ7l5NWyfP69GTR3T9biY1gIgsRAAAA/atXOnpXGt2rSLeo5Wba0du9NiLQASCwEA8KDS0lJL43Ki+Ok/IjevpqVxJcXFUc8BwD0EAMCDsrKzLY3bUY1XAu/YtsXSuOycnKjnAOAeAgDgQfXr17c0bsHPc6Oe4xeLxzZo0CDqOQC4hwAAeFDLVm0sjZv/8xytW2P/Mb21v6+yHB6s1gIgsRAAAA/qeNTRCgSq/ucbDoX06nP239z38r+eUDgcrnJcIBBQx6OOtn1+AO4jAAAeVLduPR12eAdLYyeMHaX333rN8rnfe+tVTf7uG0tjO3Q8UrVr17F8bgCJgwAAeNS5F1xkeezLzz6hwU/nq6Rk/3fsFxcX6YWnHtErz1q/YnDu+f0sjwWQWIwqvl5PUpW3AtetW09LV2+MTUUALNm8aaM6tm+p0pISy8fUa9BQZ1/4d3Xt0VONDzxIpmlq4/p1mjFlgr4c8b62bt5k+VxZ2dn6eeFy1avPTYBAPLVu2kjbrD3hU1/SfgcSAAAPu/fOW/XmkFdcmfv6m27VkwOfc2VuwM/iFQDyJO2uaobc3Dyt3rjDSjEAYmjHju3q0rGd1W8GMVOnTl3N/Gmh6tatF9d5AUhNGtZUUWGhlaG5kvY7sKp7AAolVXkrcFFRoaU7hgHEVu3adfT0s4PjPu+/Br9M8wdcEAqFVFxUZGmopEoHVhUAwlWdQJLC4bA2b+IjAMAN511wkQZcfX3c5rvm+pt19rkXxG0+AP/fxg3rZZqmlaEFkiodaOUpgPVWZlq+jDeCAW555rkXdXqfvo7P07vv2XzuD7jIRq9dV9UAKwFgiZWZfpz7g5VhAByQkpKiocM/0gX9LnFsjn6X9Ndbw/6rlJQUx+YAULmfrPfaKnu3lQCw2MpMU6dMsjIMgEPS0tL02pvD9NhTg5SWlhaz86anp+upQc/rlSFvx/S8AOybMnmi1aFV9m4rAcDShuBTv5+sXbt4LzjgJsMwdNMtd2jitDnq3uOEap+vxwk9NWn6HF134y0yjKoeGgLgpB07tmvm9KlWh1fZu60EgImq4kYCSSotKdHnn3xspSgADju0XXt99c14fTFqnE49vbdSU1MtH5uWlqbTzujzx/Ft2rZzsFIAVn3+6ccqLS21MjQsaVJVg6xG+vmSDq9qUJu27TR19s+WXlICIH62bt2iiePHaeb0qVry6yKtWfO7CvbskSTl5uWpSZOD1ebQdjq2ew/1PPlvPOIHJJhwOKxux3TQsqWWPpX/SdJRVQ2yGgAelfSIlYFD3/tIfc8+z+JpAQBAVT775CNdc8WlVoc/IunxqgZZDQAtJS21Mv6gJgdrxpxflJ2TY/HUAABgf4qLitStUwf9vnqVleGmKnr2b1UNtHqtfrmk6VYGrl3zu55+It/iaQEAQGUez3/IavOXpO9loflLkp0HendIsvTuzzk/zNIRRx6tlq1a2zg9AADY25hRX+vB++60c8gtsrh/j53negxJ82ThZkBJysuroa++Ga8OHY+0MQUAAJCkhQt+0Zmn9rTziP08SUfKwpN7kvWPAPS/Ez5mdfCePbvV77wz9euihTamAAAAixYu0Hl9T7O7v06+LDZ/yV4AkKRPJI2zOnjzpo3q0+tETZ/2vc1pAADwp2nfT1afXidqy+ZNdg4bI+kLOwdEs6n3LEnXSrK0s0hJSYlGfPi+0tLS1LlrN3YTAwBgH8LhsAY/+4z+ccPVKi629MrfiBJJZ0rabuegaALANkm7JZ1u9YBwOKwpkyZo/Lgx6tDhSDVqfEAU0wIAkJx+mjtH/S8+Vx9/+L7C4bDdw2+TNNbuQdH+OG5I+lTSObYPNAyd3qevbrntbnXq0jXK6QEA8L7ZM2foxRcGaezokTJNyx/f722EpAujObA61+NrSZoqqX20J2jVuq3OPu8CndDzZB19TGelp6dXoxwAABJbWVmZ5vwwS5MnjtcXn47Q8mWWntjbn/mSeqjiqrxt1f1A/iBJ0yQdXM3zKC0tTQc3ba6mzZopL6+Gataqxf0CAABPM01Tu3bu1J49u7V61SqtXvWbgsFgLE69SlJ3SeujPUEsOmxbSd9JOjAG5wIAAJVbK+lkVWzRH7VYvLZvsSpSSLWuYwAAgCr9qoqeW63mL8UmAEjSaknHycL7hwEAQFTGq+Iz/99jcbJoHgPcnyJJ76liF6Ieil24AADAz0xJgyRdKakwVid16i67HpJelXSYQ+cHAMAP5ku6URU33MdULK8A7O13SW+q4tGETpKyHJoHAIBktF3Sg5KuUsXH7DEXj+fsclXxf+BeSY3jMB8AAF61RRVX0F+QtMvJieL5oH2GpF6S+ks6SxK7/gAAIIUkTZQ0XBUv3bP1IoBoubXTTg1Jx0s6SRWPM7T93+8BAJDsdqni0fmpqmj8kyXtiXcRibTVXmNJLVTxkUENSTXFkwRIHO0l3VLVoOYtW+vC/lfFoRz/+Xj4W1q53NKjzy9JWuhwOYBVYVU0/N2SCiT9JmmDqxX9j6VX+sbJBiXIHwqwD6fKQgBo0OgAnX3h3+NQjv9MGveN1QAwWlG8GQ3wG37CBgDAhwgAAAD4EAEAAAAfIgAAAOBDBAAAAHyIAAAAgA8RAAAA8CECAAAAPkQAAADAhwgAAAD4EAEAAAAfIgAAAOBDBAAAAHwokd4GGDdmfn4gtC58sWReJhkdJdWStF7S+HDA/Hf6kMfnuVwiAACO8t0VAPPaBxqH1oWnSXpPMnpJaiApXVIzSVcFwsaP5Vc/8oSZn++7PxsAgH/46gqAOeCevLBSv5V0WCXDAoahB4PrwgFJD8SpNAAA4spXP+WGUjKfNM1Km/8fDOm+8usePtbpmgDACwpmnHmF2zUgtnwTAMwB9+RJusbGIYZhGrc6VQ8AeEXB9DMONwzzQbfrQGz5JgCEAtk9JGXaOshUL2eqAQDvMAIp50hqWTCzbwe3a0Hs+CYAGAodFMVhtc0b83NjXgwAeIQ5+vQMybxBkgyFbne7HsSObwKAaRiFURwW0paFxTEvBgA8oqh2yt2SGlX8L+PvhTN7H+1qQYgZ3wSAUDhg+9l+Q1pgjBgRcqIeAEh0BTP7dlBAD+31W6kyjDfMiSfa+zgVCck3ASDjrfwFhjTf1kGm3neoHABIaIVT+x5gmOGvZSrjT18wdWRRVu5H5scXpLhUGmLENwFAksKm7pIUtjh8RSAQeMXJegAgEZXM7NPKSA1PkKGD9zOkb9HBJR+bc87MjmthiClfBYC0Nx8bZ5jmnZLMSgea2hiSeZbxen5RfCoDAPeZpozCGX2uCcn4wZTaVDH63KKgOaNoxhld4lMdYs1XAUCSUt58fLDMQB9TWrqPL5uS+UmKAp0y3nh8YdyLAwAXmHOOTiua2fuiolm9Z8vQ65JZ0+KhHUwjML1gZu8PCALe46utgCNS38wfbebnjwluCHUJhI1jZJp5ZsBYl1IemmAMfXKN2/UBQDwUzjm1sYJprxYFdZKkGlGeJmDIuNg0jIsLZ/ZZbUgfZ3cdeU8s64QzfBkAJMnIzw9LmvG/XwDgOznHjN2wZ8rp16akB042ZVwp6W+SjChOVShTw8OG+XFucSHfUz3CtwEAACDlHf/NFkkfSvqwYGbfDoZCr0pGd4uHh2Xq1fKg+UitHqN2OFgmHEAAAABIknK7fjXfNNWjaHbv+2UaT6jyqwFbA4HweVmdR0+JV32ILd/dBAgA2D/DkJnTZdRTpqn+2v9j0+tTwoFjaf7exhUAD7phvlk7I6XsVhk6R1JLSUGZ5i+GEfigppn2Zn57o8ztGgF4W+6xI98vmNm7kSHj2b1/35D2hA2dkdntq+Vu1YbY4AqAx9zya3m3jNTyX2Xon5I6SMqWVEOG0d2U+cpOo+yH234tbuZulQCSQW7XUc9JGrv375mmeW9ul5G2t1ZH4iEAeMidS0rbBszwaMlsWMmwDjIDY+9dYfk5XgDYr5RQ6CZJwf/9zx+zu3Ya4mY9iB0CgIeEghosyUpjb11WWna/0/UASH6Z3b9ZYUqfSpJhapBh5FvdTh0JjgDgEXcuKm4qQ72sjjcN48oLTJOXdQCovnD4HUPak5W24TO3S0HsEAA8ImQGOsnOBh2m2aDRgtJmjhUEwDdylDM5LI02jplb7nYtiB0CgEcYAaOO3WPSUgL1nagFgL8Y3UYU56Ru6O92HYgtAoBXhO2vVdgwotnSEwD+gp/+kw8BAAAAHyIAAADgQwQAAAB8iK2AE8TtC806plF2h6TzJbWQlLb3102Z9k9qhqfftqj0z78llRjSAtM0h4fTM4b8u5VRup+jAQBJjJvEEsAtv5Z3C8j8XKbZIM5TL5ARPnPwoVmr4jzv/jSRdIqkrpJaS2ogKdPViv6/LEmNqxqUmZmluvXjvYz+sG3LZpWUFFsZukGSpYFxUCJps6SlkmZI+k7SWlcrAv6HAOCyO34taR02jVmSarkxv2lqcUZKeudBbY09bsyvio+hzpV0s6Tjxd9JJLewpCmSXpb0ufb/tj3AcdwD4LKwaTwvl5q/JBmG2paFy+51afrjJc2TNELSCaL5I/kFJJ0o6RNJP0nq4Wo18DUCgItuXlx4gKQz3K5D0gCZZjybb6qkfEkTJR0Wx3mBRNJB0mRJL0pKd7kW+BABwEUpoZRjlBg/9Ta+Y0HxQXGaK0fS15L+Kf7+AYakWySNlpTnci3wGb4Bu8gIGDlu1xBRHkiJxzefLFV8ozstDnMBXnKyKoJxotz0Ch8gALjICAcS5W7gcHZm+ro4zDNMFZ/7A/irEyS97XYR8A8CgItqKnWWIe1wuw7JnD7wEGOXw5NcL+kCh+cAvO5iSde4XQT8gQDgovz2RpkMDXK7DsPUkw5P0UjS0w7PASSLZ2VhzwmguggALqu5Mf1ZSd+4WMKgF9pnjnF4jofl4qOOgMfUkOTWo7nwkUS4A9338hea6TtV/rQM82bF73GgnaZhPvzioZkvOzxPPUlrZOPmppat2ujSy65Q12OPU/2GDWTw1xQetWXzZs2Y/r3ef/cdLV+2xM6hxZIOkrTdmcoAAkBCuX1J0YHhYGofw1BbmeHsP33R0KGSYXfTkC9lmpv+fB5jp0zNV1n6qMFHGjurWbIV/5D0kpWBKSkpeij/Cd34j9uVmsprKpA8gsGgXh78rJ587BGFw5Y3/7tR0msOlgWfIwB4xO0Ly643DdPeNwMj0G3woWkzHCrJqvGSTrIy8JUhb+uiSy9zuBzAPR8Mf0f/uOFqq8O/lXSqg+XA57gHAE5Kl3SslYEXXvx3mj+S3iX9r9D5F15sdfhx+j9vBQViiQAAJ7VUxeY/Vbrn/occLgVIDPc88LDVodmSDnGwFPgcAQBOamZl0KHt2qt5i5YOlwIkhkNatlabtu2sDm/uZC3wNwKAd5TaPSAQNkucKMSGmlYGHdKytdN1AAnlkFatrA6t4WQd8DcCgEeEFPrd5iFmaSDN7jGuCAT4awh/SQmkWB3KPw44hr9cHlEnO3OaJMvb9ZrSrFcONbY5WJIVe6wMWrXqN6frABLKqpUrrA7d7WQd8DcCgEfkNzdKJP3L6nhT5uMOlmOVpSsQC+bP04b18XgXEeC+dWvXaMEv860OX+1kLfA3AoCH1NqUPlDWtg0e9FK7zNFO12PBUkllVQ0Kh8Ma/Jzrr0QA4mLwswNlmqaVoaWSljlcDnyMAOAh+T2NYFFR+llGxZWAfTXW7ZJx4+B2GYmyj3iJpNlWBg598z8aN9bNVyIAzhv7zSi98/brVofPVBQ3/wJWsROgR929sKBRmZHeW6bZMiCVhQ0tygikjx7U1rD0uXsc3SNpoJWBmVlZGvzyEF3Q7xKHSwLi76MPhuv2W25QaYnlh3PukvScgyXB5wgAcNqBklbKxo5m3Y87XpcNuEbHdjtODRs15r0A8KRgMKhNGzdo+rTv9e7bb2j6tO/tHF4uqamkDc5UBxAAEB/DJLHPL2Dd25KucrsIJDcCAOKhhaQFsrgtMOBzRZLaiScA4DDLu1EA1bBDUljSyW4XAnjAg5IS4SkeJDmuACBeApLGSjrF7UKABDZGUm9VBGbAUQQAxFMNSZMldXS7ECAB/SLpeEk73S4E/sA+AIin3aq4AjDT7UKABDNHFf82aP6IGwIA4m2bpL9J+sDtQoAEMVzSiZI2u1wHAMRNP0nrJJn84pcPf62RdL4AwKeyJd0iaYnc/4bML37F49diSf8Qj8XCZdwEiETSSVIvSV0ltZVUT1ItVysCqmenpK2qaPozJH2ris/7Adf9P517PPxzIQVMAAAAAElFTkSuQmCC;" parent="1" vertex="1">
          <mxGeometry x="57" y="510" width="166" height="166" as="geometry" />
        </mxCell>
        <mxCell id="3gkrU1Qj5pZHPReSSYtD-15" style="edgeStyle=orthogonalEdgeStyle;rounded=0;orthogonalLoop=1;jettySize=auto;html=1;startArrow=classic;startFill=1;" parent="1" source="3gkrU1Qj5pZHPReSSYtD-6" target="3gkrU1Qj5pZHPReSSYtD-3" edge="1">
          <mxGeometry relative="1" as="geometry" />
        </mxCell>
        <mxCell id="3gkrU1Qj5pZHPReSSYtD-6" value="" style="shape=image;verticalLabelPosition=bottom;labelBackgroundColor=default;verticalAlign=top;aspect=fixed;imageAspect=0;image=data:image/jpeg,/9j/4AAQSkZJRgABAQEAYABgAAD/2wBDAAgGBgcGBQgHBwcJCQgKDBQNDAsLDBkSEw8UHRofHh0aHBwgJC4nICIsIxwcKDcpLDAxNDQ0Hyc5PTgyPC4zNDL/2wBDAQkJCQwLDBgNDRgyIRwhMjIyMjIyMjIyMjIyMjIyMjIyMjIyMjIyMjIyMjIyMjIyMjIyMjIyMjIyMjIyMjIyMjL/wAARCAMsA1gDASIAAhEBAxEB/8QAHwAAAQUBAQEBAQEAAAAAAAAAAAECAwQFBgcICQoL/8QAtRAAAgEDAwIEAwUFBAQAAAF9AQIDAAQRBRIhMUEGE1FhByJxFDKBkaEII0KxwRVS0fAkM2JyggkKFhcYGRolJicoKSo0NTY3ODk6Q0RFRkdISUpTVFVWV1hZWmNkZWZnaGlqc3R1dnd4eXqDhIWGh4iJipKTlJWWl5iZmqKjpKWmp6ipqrKztLW2t7i5usLDxMXGx8jJytLT1NXW19jZ2uHi4+Tl5ufo6erx8vP09fb3+Pn6/8QAHwEAAwEBAQEBAQEBAQAAAAAAAAECAwQFBgcICQoL/8QAtREAAgECBAQDBAcFBAQAAQJ3AAECAxEEBSExBhJBUQdhcRMiMoEIFEKRobHBCSMzUvAVYnLRChYkNOEl8RcYGRomJygpKjU2Nzg5OkNERUZHSElKU1RVVldYWVpjZGVmZ2hpanN0dXZ3eHl6goOEhYaHiImKkpOUlZaXmJmaoqOkpaanqKmqsrO0tba3uLm6wsPExcbHyMnK0tPU1dbX2Nna4uPk5ebn6Onq8vP09fb3+Pn6/9oADAMBAAIRAxEAPwD3+iiigAooooAKKKKACikzSE0ABNJwFyaNpPegDja1ADVfB56fyp7EjkHikCBeetAH5UAKOadSAUtABRRRQAUUUUAFFFFABRRRQAUUUUAFFFFABRRRQAlcv4x8a6d4MsoZr1JZpbhikFvCMu5HX6Acc+9dPnmvF/jR/wAjR4Z/3Jv6UaJOT6Jv7kbYemqtaNN9Wl95d/4XlF/0K2o/99j/AAo/4XlH/wBCvqX/AH2v+FcJXSJ4bt5Lj7Mt832iNlWZWjAAJQt8nPIGMH615sMxlP4YL7z6itkOFo/HN/ca/wDwvGP/AKFfUv8Avtf8KT/heMX/AEK+pf8Afa/4Vg6foK3smnBrgxpdrIzttzsCEj8elH9kWkVnfSTXM4ls5PLdViBBJLBcHd/s81Sx07X5F9/zIeS4NPl9o7+nnb80b/8AwvKL/oVtS/77X/Cu88J+LdO8YaUb6wDoUfy5YZRh429DXhNdx8DyB/wk3Yfa0/k1b4XFfWOb3bWOPN8ohgqcZxk3d2PX6KbuX1FLuX1FdJ4AtFJuX1FG5fUUALRSbl9RRuX1FAC0Um5fUUbl9RQAtFJuX1FG5fUUALRSbh6ilzQAUUUUANJoxkcdaQ88UjfJgjrQAqng56igGnAgjIpN3tg0AKDS00U6gAooooAKKKKACiiigAooooAKKKKACiiigAooooAKKKKACiiigAooooATFLRRQAUUUUAFFFFABRRRQAUUUUAFFFFABRRRQAUUUUAGaTNJ1NNPBoAfmlpjcGlBoAdRRRQAUUUUAFFFFABRRRQAUUUUAFFFFABRRRQAUUUUAFNJpTSDpk9KAEHOaTBUjNIHAbIFOOJF460ANkDbsinHlBnrQNyjnBo5PWgAApwFAFLQAUUUUAFFFFABRRRQAUUUUAFFFFABRRRQAUUUmaAFopuaXNABXi/xo/5Gnwz/ALk39K9nJrzP4r+EtV106Xqmjwi5uLAuHttwBdWxyM9xjp70muaMo901+B0YSpGnXhOWyaZ5t712kc+mJ4hGrtewkyMpiCvnavlENuHbnArj/wCwfGf/AEKV5/30KX+wfGf/AEKV5/30K8ingcRD7K+9f5n2uIzLA19Pa20a26O3l5HUrq9rLpEU15cAzrbSRFIVVXBaQdBjA+UVW1W8s5YNZMEyN9qkglQZ5PBLfiCea4/b4g/teTSf+EeuPt8cYle33jcEPerX9l+Lf+hVu/8AvoVcsJimrOK+9drdzCnisuhLmVTrfZ90+3kLj2qz4C8Had4oudbkvpryMwXIVfs82zIOevFVf7L8Xf8AQrXf/fQr0P4a+GdR0HTb641RFiur6YSmEHPlgDgEjvzXVl+Gq0HKU9Lruv0OLPsxw+JpRjRldp+ZF/wqXQP+fzVv/Av/AOtR/wAKl0D/AJ/NW/8AAv8A+tXeYNGD6V6PPPufLcz7nB/8Kl0D/n81b/wL/wDrUf8ACpdA/wCfzVv/AAL/APrV3mD6UYPpRzz7hzPucH/wqXQP+fzVv/Av/wCtR/wqXQP+fzVv/Av/AOtXeYPpRg+lHPPuHM+5wf8AwqXQP+fzVv8AwL/+tR/wqXQP+fzVv/Av/wCtXeYPpRg+lHPPuHM+5wf/AAqXQP8An81b/wAC/wD61H/CpdA/5/NW/wDAv/61d5g+lGD6Uc8+4cz7nBN8JtFAzDqOrxSD7ri6yVPr0qz4S1rWPDvi0eENfvGv4bmMyafev99gOqN69D/k12nNcJ4tyPiT4HI6/aZB+gp3ctJDTb0Z6xnim5zxSHNKp+QnvWAg5DAkcUMhJyKRHJODRyCQDxQAuNvTrSgZoAp1ABRRRQAUUUUAFFFFABRRRQAUUUUAFFFFABRRRQAUUUUAFFFFABRRRQAUUUUAFFFFABRRRQAUUUUAFFFFABRRRQAUUUUAFFFFABSE0E0wmgBcEmgEN8p60DlDjrTFQk+lAEh255o47UhJIwetKBQA4UUUUAFFFFABRRRQAUUUUAFFFFABRRRQAUUUUAFFFNJoADSAgjBpdp9aaR2oAXco4AoYYYEcGhcDtzR1NAByacBQBS0AFFFFABRRRQAUUUUAFFFFABRRRQAUUUUAFFFFACGkGDQTSY4yTigA5DgHpQT8xoVg3B60pbBwRQAA0tJnJp1ABSGlooA8q/5rzqn/AGCk/mtdvXEf8151T/sFR/zWu3rafT0QSOQ8YeIdSt7+w8O+H0RtZ1HJV35WCMdXP6/kaZF8JbmeIS6l4x1qW6bl2hl2Jn2HPFRWPzfHs5526R8ue3zV6pSlJxsoj22PNP8AhUEX/Q2eIP8AwJ/+tR/wqCL/AKGzxB/4E/8A1q9Loqfaz7hdnmn/AAqCL/obPEH/AIE//Wo/4VBF/wBDZ4g/8Cf/AK1el0Zo9rPuF2eaf8Kgi/6GzxB/4E//AFqP+FQRf9DZ4g/8Cf8A61el0Ue1n3C7PNP+FQRf9DZ4g/8AAn/61H/CoIv+hs8Qf+BP/wBavS6KPaz7hdnmn/CoIv8AobPEH/gT/wDWo/4VBF/0NniD/wACf/rV6XRR7WfcLs8zPwfi/wChs8Qf+BH/ANaoZfgvZSTRTy+JNbeaI5idpgWQ+xxxXqOeaQoGOSaftZ9w5mec/wDCrHVf3XjDX1lA+VjcZwfpTPDmua/4d8Wp4T8TXAvluUL6fqGMGTH8Le/+ecivSNqngdRXnHxDfZ4y8DHHznUSuR6fLRGTnpIad9D0gMOw5pQM0gFO6VmSLRRRQAUUUUAFFFZHiHX7Hwzo0+qag+2CEdB952PRQO5NCV9EBrUV5fa618TfEcQv9L03S9KspPmhS9JaR17E4/wFT+T8XP8An58Pf98t/hV+z7tDsek0V5t5Pxc/5+fD3/fLf4UeT8XP+fnw9/3y3+FHs/NBY9Jorzbyfi5/z8+Hv++W/wAKPJ+Ln/Pz4e/75b/Cj2fmgsek0V5t5Pxc/wCfnw9/3y3+FQ3TfFi0tJrmS58PbIY2kbajZwBk9qPZ+aCx6fmjNeYfDr4oDxPt03WFjttVYFoWA2pcL/s57jnjvivTTwKUouLswasOzS0wH5M0oNSIdRRRQAUUUUAFFFFABRRRQAUUUUAFFFFABRRRQAUUUUAFFFBoAM03NJ1NAyGxQAmckClZ9pAxQ4IGQKMrIOetAATxuWjcTRwBgUoFAABTqKKACiiigAooooAKKKKACiiigAooooAKKKKACmk0ppu7BzQAZpMkMM9Kdx94c01X3HBFADiMEtyTSYOMt1pMlSR2peSeaAFAp2KQUtABRRRQAUUUUAFFFFABRRRQAUUUUAFFFFABRRSE0ALTSaTJxQv3uaAEIJ7UpG9OKaXIfHanNkYI4oARUwMml5PWjk9acBQAAUtFFABRRRQB5V/zXnVP+wVH/Na7euI/5rzqn/YKj/mtdvW0+nogkcTp/wDyXtv+wP8A+zCvU68s0/8A5L23/YH/APZhXqdRU6eg2LRRRUCOE8d+PJPC8tnpum2QvtWvAWjidsIiD+Jj/noa5L/hYPxC/wCgPo//AH23/wAVS/ED/kr2l/8AYNb+b1n6tbapcpENMv47QqTv3x7t3pXfRowcE2jyMfj6lCsqUbJNXu7/AKGh/wALB+If/QH0f/vtv/iqP+Fg/EP/AKA+j/8Afbf/ABVc5/Znir/oPW//AIDj/Cj+zPFX/Qet/wDwHH+Faexp9jn/ALTq/wA8fuf+R0f/AAsL4h/9AfR/++2/+Ko/4WF8Q/8AoD6P/wB9t/8AFVzf9meKv+g9b/8AgOP8KP7M8Vf9B63/APAcf4Uexp9g/tKr/PH7mdJ/wsP4h/8AQH0f/vpv/iqB8QfiGemj6P8A99N/8VWLdWeuPaWqW+qwxzIpEzmEESHsQO1Qx6Z4o8s41y3z/wBcB/hR7Gn2FHM60ldzivkzfPj/AOIY66Po/wD323/xVIPiB8QSQDpOjgf7zf8AxVYLad4oxs/t23Zj1/0cf4VYuLDXTYW8UWqwrdIT5sphGHHbA7Yo9jDsOWZ1lb34/czaPj/x9GvGk6QT/vN/8VWBrmseNte1PSb+503TUl0ufz4RG5wzccNlunFS2tjrsdrcpcarDJO6gQuIQAh7k+tU/wCy/FX/AEHrf/wHH+FNUoLZCWZ1rtc8fuZ0n/CwfiH/ANAfR/8Avtv/AIqj/hYXxD/6A+j/APfbf/FVzn9meKv+g9B/4Dj/AArX0uC/t7UpqN2l1NuyHRNuB6UvY0+xNTNK0I3Uov0T/U6vwZ8RL3V9dbQde06Oy1ExmWF4WJjlUdRznB/HtXowPFeG6T/yV/w7/wBcJv8A0Fq9yHpXHXgoSsj2sLWdajGpLdjqKKKwOgK80+KSC71vwbp03zWtxqg82Ps2MYz+Zr0uvN/iT/yN3gX/ALCZ/wDZaun8Q47nowGBgDAp1FY+t+JNH8OxRS6vqEVmkzFYzJn5iOuMVFm9hGxijFch/wALQ8Ff9DBa/k3+FH/C0PBX/QwWv5N/hT5Zdh2Z1+KMVyH/AAtDwV/0MFr+Tf4Uf8LQ8Ff9DBa/k3+FHLLsFmdfWdrv/Iv6l/16y/8AoBqTTNTstY0+K/0+4S5tZQSkqHg4OD+oqLXT/wASDUv+vWX/ANANC3EeVeFfBdr4t+EekHebbUrYyvaXacNG3mNgE+ldH4M8ZXf29vC3ilRb69b/ACo54W6UdGU+uPzql8KfEOjWPw9022u9WsredPM3RyzqrDLnqCc1a8a23hTxZZL/AMT/AE621K3O+0u0uUDRt1A4PTNbSu5OMti3vZnouAFPpSfLjivOPAPj86lcHw9rc8J1iDKJNG4ZLoDupHGcc/5NejgVlKLi7Mlqw4UtIBS1IgooooAKKKM0AFFFFABRRRQAUUUUAFFGaKACiiigApDQTTSaAFH3eOtN8snkmgEjpRhm78UAKMpweRQcHgUrdhQBQAAU6iigAooooAKKKKACiiigAooooAKKKKACiiigAooooAYTRgAZY0OvcUMN6gigAxs5Xp3FLhc7hSKCqYNIBQAvU5p2KAKWgAooooAKKKKACiiigAooooAKKKKACiiigAooooAQmkxnk0NQRuXAOKAEVgCQTxQ+7IZT0o2IODQPkOOo7UAG4HqvP0o6mg/MacBQAAUtFFABRRRQAUUUUAeVf8151T/sFR/zWu3riP8AmvOqf9gqP+a129bT6eiCRxOn/wDJe2/7A/8A7MK9TryzT/8Akvbf9gf/ANmFep1FTp6DYtFFFQI8X+IBz8XtLI/6BrfzetDT4tPlLi+uJYQMbNi5zWf8QOfi9pX/AGDW/wDQnrR07To74PvvYLfZj/WHGfpXpU3+6R81mqbxcUlfTZl77L4c/wCghdf9+/8A61L9l8O/9BC6/wC/f/1qT/hH4P8AoM2X/fVH/CPwf9Bmx/76pXj3f9fI5fZ1P+fcfv8A+CIbXw7/ANBC6/79/wD1qhS30Z7t4zdziAICr7PmLUXWjRwW7ypqdpKy8iNW5P0pJtFjhsjcJqVtI4UN5atyfammu7/r5ESjO+sI6a/1qPubfQobdzDd3DzY+VWTgmpY7bQBEkjX1yCVBYCPjP5ULoVvNEpbVbNGIBwW5FOPh+BY9n9sWWf96lzR7v8Ar5Gipzvzckfv/wCCJ5PhzqL66z/1z/8ArU37L4dJydQuf+/X/wBageHoP+gzZf8AfQrNv7NLKcRpcRzjaDvjOR9KcbN2Un/XyIqOdNc0oRt/XmW47fRzdyq93OIAB5bhOSe+asfZfDv/AEELr/v3/wDWrDoq+TzZzRxCX2F+P+Zu/ZfDv/QQuv8Av3/9aq17DpEduWtLueSbIwrJxWXRQoW6sJV01bkS+/8AzKOkf8lf8Of9cJv/AEBq9yFeG6T/AMlf8Of9cJv/AEFq9yFceK+Neh9bl3+6w9P1FooormO0SvOPiR/yN3gT/sJn/wBlr0evOPiR/wAjd4E/7CZ/9lq6Xxff+Q1uekVR1DSdP1WNI9Qsba6RDlVniDhT6jNXqKgRhjwb4Zx/yL+mf+Aqf4Uf8Ib4Z/6F/TP/AAFT/CtuijmfcDE/4Q3wz/0L+mf+Aqf4Uh8HeGf+hf0z/wABU/wrbJpDkDNPmfcCC1trextktrWCOCBBhY4lCqv0AqSSNJIWSRQyOCrKehB6ipeD25pisCNrcUgOSHwz8GSc/wBgWwP1bj9aUfDTwb/0L9t/303+NdaAqdKAMmnzS7juzx/xD4Z0bw78S/BY0mwjtfPuJPM2E/NgDHU+5r2EDFebePP+SmeBP+viX+S16V61VRtpXB9BaKKKgQUUUUAQzSx28Mk0rhI41LMxPAA5JNeX2+v+MvH1xNL4Xlt9I0SJzGl7cR75JyOpUEHj/Oa6z4jSPF8PNdeNirfZGGR78f1qTwDDHB4C0NIlCr9jjbA9SMn9TVrSNxra5zn/AAiXxE/6H2P/AMAlo/4RH4jf9D7H/wCAS16RRT9q/L7gueb/APCI/Eb/AKH2P/wCWj/hEfiN/wBD7H/4BLXpFFHtX5fcgueb/wDCI/Eb/ofY/wDwCWkPhT4jrynjqFmHQNZrg/XivSaQij2r8vuC5554d8X63Y+JE8L+MIIUv5lLWd7BxHcgdvY/l9PX0SvNfiugju/CV0gxPHrEaq46gHqP0FelVMkrKS6g+4uaTNJ1OKQqc+1SIM5NLn5sAcetJtB6HmlyCCDwaAEOCeKBRwBgU4CgBAKdRRQAUUUUAFFFFABRRRQAUUUUAFFFFABRRRQAUUU0mgBc0U3OTiigBu8hyD0pzDHIOKXd6rzSdTQADJ604CgCloAKKKKACiiigAooooAKKKKACiijIoAKKTcPUUbh6igBaKTcPUUhceooAdTSaQuPUUgZS3UUALzSUu/bkswx2pOvPrQAqqByTR1OaUClAoAAKWiigAooooAKKKKACkrlfHvimTwp4fFzbQC4vbiZbe1iboZGzgn2GK51NH+K8yCV/EukwM4yYhbA7PbO2qULq7dh2K/T486p/wBgqP8AmtdvXnf/AAr74gf8JBLrn/CR6X/aMsQheXyDgoMYGNuOwrQ/4RX4n/8AQ1aX/wCA3/2NatJ295A1fqNsP+S+P/2B/wD2YV6nXj8fw++IEXiE66viPSxqJh8jzfIONnpjbitb+wvisP8AmbNK/wDAUf8AxFTOKdrSQ7eZ6VRXm39hfFb/AKGzSv8AwFH/AMRR/YXxW/6GzSv/AAFH/wARS5F3QreY/wCIXgrVNY1Gx17QXhOpWaGJoJjhZUOTjPY8n865L+xviN/0LVp/4Er/APFV1X9hfFb/AKGvSv8AwFH/AMRSf2J8Vf8AobNK/wDAUf8AxFbQqSirJowq4SjVfNOKbOW/sb4jD/mWrT/wJX/4qpP7F+ITJx4ctAf+vlf/AIqukOifFT/obNK/8BR/8RT/AOxPikkef+Ep0st/17D/AOIq/bS7r8TP+zsL/KvxOWi0f4hhmB8OWgP/AF8r/wDFU0aP8R1k/wCRctTz/wA/K/8AxVdZ/YnxQdcjxVpgP/XsP/iab/Y3xU6f8JTpWf8Ar2/+wpe2l3X4h/Z+F/lX4nLyaP8AEQOCvhy0z/18r/8AFU3+x/iMTn/hHLQ/9vK//FVu3Gu+N/BGoWE3ie6sdT0m7nW3klt49jwseh6DNeqr0qZYicexLy/Dfyr8f8zw3+xviP8A9C1af+BS/wDxVH9jfEb/AKFq0/8AApf/AIqvdKKX1qYv7Pwv8i/H/M8L/sb4jf8AQtWn/gSv/wAVWbqc/jXSL3T7S90K1jnv5fKtlE4O9uOMg8dR1r6FrzX4kf8AI5+A/wDsJH/2SnHESk7May3Ct/Avx/zOW/sb4jf9C1af+BK//FUf2N8R/wDoWrT/AMCl/wDiq9zpaX1qYv7Owv8AIvx/zPKfBXgnXV8Up4j8SLBBLbxNHbWsL7tpPBYn6E9+9eq0UVjObm7s6oQjCKjFWSFoooqCxK84+JH/ACN3gT/sJn/2WvR684+JH/I3eBP+wmf/AGWrpfF9/wCQ1uej1z3ipvFK29v/AMIvHp7zbz532wkALjjGPeuhrH1zxPo3huKKXV7+O0SZisZcE7iOvQGoV76K4kcd5vxd/wCffw9/303+NHm/F3/n38Pf99N/jWv/AMLV8Ef9DBb/APfD/wDxNJ/wtXwR/wBB+3/74f8A+JrX3v5fwK17GUkvxa3fNb+Hv++m/wAaRn+LTMf3Hh8D/eb/ABrW/wCFqeCf+g/b/wDfD/4Uf8LT8FscDX4M/wC4/wD8TT97+X8A17GTu+LS8iHw+fYlv8aeZvisRn7P4fJ+rf41q/8AC0fBSL82vwc/7D/4U0fFPwR/0H7f/vh//iaPe/l/ANexW0R/iOdWtxrEGiDT9374wM28DH8PPWu8ArltO+IfhTVr+GwsdagmupjtjjCsCx9ORXVVlK99VYTPNPHn/JTPAn/XxL/Ja9K715r48/5KZ4E/6+Jf5LXpXeqn8Mf66g9kLRRRUCCiiigDk/iX/wAk313/AK9T/MVb8Df8iJoP/XjF/wCgiqnxL/5Jvrv/AF6n+Yq34G/5ETQv+vGL/wBBFX/y7+Y+h0Ga4rxT8TND8K6ithcLc3N7tDtDaxhigPTcSRiu0NfO+vZb4peJieWDxgev3RXRgsOsRVVOTMMRV9jTdS17Hb/8Lx0P/oEax/35X/4qj/heOh/9AfWP+/K//FVxtza3FnN5VzC8MmAdrjBx2rSfQjB4bGrXE3lPK4EERHLjua9eWU4eNry30R5kc0nK9obeZ6p4V8W6X4u05rzTJHxG2yWKRdrxt6EVvV438GePEXioLwN0Jx/31XsOf5V4eIpKlVlBdD14S5oqXdXPOfi2ePCv/Yahr0gGvOfiwAx8LAnH/E5hNeiNxUy+CPzLewEE9KUMfusMUMSqjFCnehzWYhoQq/HSnEZagMcYpQKAACnUUUAFFFFABRRRQAUUUUAFFFFABRRRQAUUUUAFBoppoACaRcHIPWl+6ucc0weZkkCgBThGFFKDuGGHNFAC8nrSgUuKKACiiigAooooAKKKKACiiigAooooAxfE+vQeGvDd7q843Lbx5VM/fY8KPxJFcBpXgXVPGlrHrXi/Wb9DdL5kNhaSeWkKHkA9ecf/AK61PjVn/hXU/vcwg/8AfVd7ZDFjAB08tf5Vonyxut2PZHn/APwpbw7/AM/2s/8AgZ/9aj/hS3h3/n+1n/wM/wDrV6RSZpe0l3DmZ5ufgt4dH/L9rP8A4Gf/AFqVfgx4dB5vdYP1vP8A61eik0hQnvij2ku4czPOv+FL+HFyTe6xgf8AT3/9anD4N+HG5W91cEf9Pf8A9avRAf4W/wD10irsJOeKPaS7hdnnv/CnvDp63mr5H/T3/wDWrz7wzrmueDdQ1e/hWe98N2uoPaXURcu8QB+WQfh+Hr2r6EAzXmnwtgjuH8YRSorxvrEysrDIYHqDVxqNxfNqNPud/peqWesadDf2M6z20y7kde/+B9qvV5He2WofCbV31XS45LrwndSZu7MHLWjH+Jfb/wDUexr07TdUs9X06G/sbhZ7aZdyOp6//X9qzlG2q2E0X6KKKkQUUUUAFFFFAHmnxh/48/Df/YYh/rXV+J9AutftYIbXXL7SWicsXtCAXGOhrlPjD/x5eG/+wzD/AFr0WUSkDymVTnnNaN2jF+o+iOA/4Vpq/wD0P+v/APff/wBej/hWmr/9D/r/AP33/wDXru9t5/z0j/Kjbef89I/ypc8u4czOD/4VprH/AEP+v/8Aff8A9el/4Vrq/wD0P+v/APff/wBeu723n/PSP8qdtufKxvTfnrjtRzyDmZy174M1C70PT9OTxZq8EtqWL3SOPMnz/e+nasr/AIVrq/8A0P8Ar/8A33/9eu8VLncN0iEZ54oZbosdsiBc8ZFJSkguzhD8NNXH/M/6/wD99/8A161H8G38nh6300eK9VWaGVpGvAw8xwf4T7CumKXn/PSP8qaEvA3+sT8qOaQXZzOl+Cr/AE+2v4n8W6vdtdQ+UjyuMwH++vvWcvw41YLtfx3rv/ff/wBeu6KTrHkOu/PJxTQLwjl4/wAqFOQXZww+G+qIDt8d67n/AH//AK9dL4Y0C50G0mhutavdVaR94kuzkoMYwPatQR3n/PSP8qfGtyHG90K9wBQ5NqzC7OA+NP8AyJ9j/wBhSD/2avRh90V5z8af+RQsf+wnB/7NXow6CnL4F8wew6iiioEJXm/xI/5HPwH/ANhI/wDslekV5v8AEj/kc/Af/YSP/slXS+L7/wAhx3PSaKKKgQUUUUAFFFFACV5x8SP+Ru8Cf9hM/wDstej15x8SP+Ru8Cf9hM/+y1dL4vv/ACGtz0eqd7p1lqMape2lvcqpyqzRhwD6jNWya53xVpGuatbW6aHrp0mRHJkYQiTzARwOemKlb7iRbPhjw/8A9APTf/AVP8KB4Z0BRkaHp2f+vVP8K48eC/HmPm+ID5/69FpV8HePE4Pj5j6H7ItaW/vfmP5nXt4Y8Pnroenbv+vVP8KB4Y0AHI0TTh/26p/hXIDwb46Uk/8ACfMSf+nRaZ/whvj8kn/hP2H/AG5ii3978w+Z2f8Awi+gE86Jpx/7dU/wpR4W8P8A/QD03/wFT/CuN/4Qvx//ANFBb/wDWj/hDPH/AP0UBv8AwDWi3978wt5na2+gaPaTrPbaTYwzJ9147dFYfQgVp1wmi+F/GVjq9vc6j4za9tI2zJb/AGVV8wY6Z7V3lZyWu9wZ5p48/wCSmeBP+viX+S16V3rzXx5/yUzwJ/18S/yWvSqqfwx/rqD2QtFFFQIKKKKAOT+Jf/JN9d/69T/MVb8Df8iJoX/XjF/6CKqfEv8A5Jvrv/Xqf5irfgb/AJETQf8Arxi/9BFX/wAu/mPobx9a+eNe/wCSpeJv+uif+givohhkV4V448Na7pvjnUNXs9JuNRstQCsGtl3MjAAEED6V25bUhTrqU3ZHNi6cqlGUIbv/ADOo04WPjHT7ddQmEd7YYMjnrLEOuf8AP8653xLrQ1fUv3I22cA8uBRwAo7/AI1zgHiMdPCesjP/AEwb/Ck2eIv+hS1j/vw3+Fe3SlhadRz59Oi7X3sePUw2KnDl5NerutbbHY/BjjxH4q+sP/s1ew55NeY/CXw5qmlLq2q6rataSahImy3f7yqueT6df0r07H5185i5qdeUo7XPdpxcYRi+iX5HnHxYG4+Fh/1GYjXo+QTtNecfFclG8LZHH9sRV6MV3HINZy+GPzNHsLnb8p5HrRkYwBSseMUAVmIAKdRRQAUUUUAFFFFABRRRQAUUUUAFFFFABRRRQAUUUhNABmmk0dTil+XOO9ACBsCjcxPApD1pwJAoARuWFFKBRQA6iiigAooooAKKKKACiiigAooooAKKKKAPOvjX/wAk6m/6+of/AEKu9s/+PKD/AK5r/KuC+Nf/ACTqb/r6h/8AQq72zP8AoUH/AFzX+VW/gXz/AEH0KHiHUb7S9IkutN0yTU7lSAttG4UsCcE5PpXGp478YtkH4fXg/wC3gf4V6MTQBk59KmMkt1cEzzk+OvGKuB/wr28xnr9oH+FJL468ZAgj4fXuPa4H+FejBg2RRkrweR2queP8v5hddjzo+OvGJhyfh7eZ9PtA/wDia6fwvq+q6zYyzatok2kypJtWKRwxcY+9/St/k04Cpck1oguNAwK8V8OeJrzwXq3iO3ufDWs3X2rU5Zke3tyV25wOT19a9sxSYpxkldNAmeYz/FVLiB4ZvBWvvG6lWRrbIIPUGuF0TxZc+CvEzS2GjarbeGr2UCSzvYivlOx6xt0/DuOPevonFecfGj/kTbT/ALCUH9a0pyi3y23Gmtj0cHIzS0i/dFLWJIUUUUAFFFFAHmnxh/48vDn/AGGIf616LI8qgeUgf1yawvGXhWDxdoT6fLK0EquJYJ1GTHIOhrlU0v4sQIIV1zRJlQYEkkJ3MPU/L1rRWlFK+w90eh+bdf8APBf++qPNuv8Angv/AH1XkH9v/Es+Lrjw3/aOkfbIbcXDP5PybTjgHGc8+la3/F1v+gpof/fk/wCFN0muqC3melJJcFwGhAXud1KJJzLgxDZn72e1ePQ6/wDEybxefDS6jpAvBbfad5g+TbnpnGc/hW/9g+LX/QW0H/v0f/iaHTtu0HL5noDS3AYhYARng7qPNuv+fcf99VwH2H4t/wDQW0H/AL9H/wCJo+w/Fv8A6C2gf9+m/wDiaXJ5oLeZ3/m3X/PuP++qfGZHUmRAhz0zXnn2H4tf9BbQP+/Lf/E0v2D4t/8AQW0D/v03/wATRyeaC3mej9VoArzj7D8W/wDoLaB/36b/AOJo+w/Fv/oLaB/36b/4ml7PzQWPSKK83+xfFr/oLaB/36b/AOJpPsPxb/6C2gf9+m/+Jo9n5oLDvjR/yKNj/wBhOD/2avRh0FeZp4I8V+IdVsZvGWs2c1jZSiZLSzjKiRx03HA/r+Fem0TsklcGLRRRUCErzf4kf8jn4D/7CR/9kr0ivNviT/yOfgP/ALCR/wDZKul8X3/kNbnpVFFGagQUUZooAKKKKAErzj4kn/irvAn/AGEz/wCy16MTXnPxJU/8JZ4FI5xqf/xNXS+L7/yHHc9FJzXP+J/Ftr4Tgt57y0vp0ncoBaw+YVwM888V0CngnvTVfLYNQrX1EeeP8X9FI3LpWtn/ALdP/r0P8YtECLnStbJ/69P/AK9eiD5WIHSlxk5rTmh2/Ed0ecD4y6H/ANAnXP8AwD/+vS/8Lm0P/oE65/4B/wD169HwBRxRzQ7fiF0cl4Z8f6d4q1CSytLHUoJEjMha5t9i4yBjOTzzWN8RfHOqeHdU0/R9Ft7dru7jaVpbjJVVHGAB34Nei8AV4v8AFT/kpOhf9eL/APoTVrhYQqVoxa0ZrQgp1YxezZW/4WB8RPTRv+/bf40v/CwPiJ6aN/37b/GtO50Bf7Dsry0LSXEihpYupAYkKR7ZGKuP4atYb/SbZpGdrgus5RuAy9Qv0PH4V67o4JdO/wCG56zw+D8+v4HD6prPjPV9Z0vVLr+zftOmOzwbAQuTjOR36Vsf8J/8Q89NG/79t/jWhf6ZB9gjurSKeJnnMHky87jjIKnApt9o8djpkkrSCSeO5ELFD8o+TcR9QeK0WHwkrK3kUsJhXbc6P4d+Ob3xLd3+l6xbRQ6lZqrloM7JEPGcEnB6fnXoNeL/AAr/AOSla9/15R/zWvaRXh4unGnWlCOyPHxEFCrKK6MWiiiucxOT+Jf/ACTjXf8Ar1P8xVvwN/yImg/9eMX/AKCKs+JtK/tzwzqWlhgrXVu8ak9mI4/XFcZ8O/GdlFo0PhvWZk07WdNH2d4bhgm8LwCpPB4xVrWFl3H0PS6Q1RGsaX/0ErP/AL/r/jS/2xpn/QSs/wDv+v8AjUWYi7QQapf2xpn/AEErP/v+v+NH9saZ/wBBKz/7/r/jRZgWyKCCyjBwRVM6xpf/AEErP/v+v+NNOtaUgLNqdmFHUmdcD9admBxHxXcKPCwPOdYhr0TAxxXlGt6lD8QfHmjaTozfaNP0q4F5e3acx7h0UHv0x+PtXrIFVJWikxvYAKdRRUCCiiigAooooAKKKKACiiigAooooAKKKKACiikJoATrTeScUFsc04NuU460AJgqc9aUjI+Xv3pqFtxBoxhjigBSABinAUgFOoAKKKKACiiigAooooAKKKKACiiigAooooAKKKKAPOvjX/yTqb/r6h/9CrvLP/jzt/8Armv8q4P41/8AJOpv+vqH/wBCru7X/jzg/wCua/yq3/DXz/QfQnODxnBpoJQ88iszxBocHiHSZNPuLi5gjcqxktpNj8HPX0rkB8I9Kz/yGtdx/wBff/1qmKi92Gh6Jhc5o+9XnLfBzSmbP9t66Ppd/wD1qP8AhTWk/wDQd17/AMC//rVfLDv+AWR6OKWvN/8AhTelf9B3Xv8AwM/+tR/wprSv+g7r3/gZ/wDWo5YfzfgFkekUV5v/AMKa0n/oO69/4F//AFqfD8INKguI5l1zXiY2DAG864OfSlyw7/gGh6NXm/xp/wCROtP+wlB/WvRx0rzj40/8idaf9hKD+tFP40Edz0dfuj6UtIv3R9KWoEFFFFABRRRQAUUUUAeU/wDNetU/7BUf/stdxXEf8151T/sFR/zWu3rafT0QSOI0/wD5L23/AGCP/ZhXqleWaf8A8l7b/sD/APswr1OoqdPQbFoooqBHl3xK8T6vb65p3hvRLr7FNcxGea6AyyoCQAvvwa5P7L4p7+N9V/P/AOvWr8QP+SvaV/2DW/8AQnrP1bQrPWfKN00w8rO3y5CvX1/KvQowjyLQ8PMcbVo14wjLljbsn+ZF9l8U/wDQ76r/AN9f/Xo+y+Kf+h31X/vr/wCvVL/hB9J/v3n/AH/NH/CD6T/fvP8Av+a15Idjk/tGX/P5/wDgKLv2TxT/ANDtqv8A31/9ej7J4p/6HfVf++v/AK9JN4Y0+fTrexdrnyoCShEx3c+p71T/AOEH0n+/ef8Af80ckewo5jUa1qv7l/mXfsvij/od9V/76/8Ar0fZfFP/AEO+q/8AfX/16pf8IPpP9+8/7/mj/hB9J/v3n/f80ckOw/7Sn/z+f/gK/wAy79l8U/8AQ76r/wB9f/Xo+yeKf+h31X8//r1S/wCEH0n+/ef9/wA1u2NnFp9nHawlzHGMDe24/nRyR7GdXMqyXuVG36Jf5mf9l8Vf9Dvqv5//AF6qXmga1qFxbXF34rv55rV98DyDJjb1Xng8Cujoo5YdjD+1cX/N+C/yMf7J4q/6HfVfz/8Ar0fZPFX/AEO+q/n/APXrYoo5I9g/tXF/zfgiTwP4m13T/GsPhzWNRfU7a9haS3nlH7xGUEkE9xwf0r18dcV4bpP/ACWDw7/1wm/9Bavc64cRFKeh9Tg6sqtCFSe7QtJmg0mMjrWB0iE1558RWCeKvA+T11P/AOJr0FgR9K88+IyiXxV4HweRqR/9lq4fEOO56Jjadw5B61g+KPC1v4ot4Ipb69tPJcuGtJdhYkY59a31GxcZzQBUptO6Eebn4O2LNk+I9f8A/Ar/AOtR/wAKbsP+hj1//wACv/rV6Xiiq9pPuPmZ5p/wpyw/6GPxB/4F/wD1q7zSNNTSNJttPjnnnWBNglnfc7e5Per1FTKTluDbYGvFfir/AMlK0H/rxk/9Cavaa4Hx/wCAbzxTf2Gp6Zfx2l/aI0X75SyMh+nQ9fzrfCVI060Zy2RpQmoVIyfRnNr4hmthYtafJJbW5hbdyDkk9Pyp9rryRHSmkjkdrN5Gc5Hzljniqn/CrfG//Qe0v/v03/xNH/CrPG//AEH9L/79N/8AE17TxWCat/XX/NnrvGYRrZ/18/MY2sXsl7FdyTtK8T70EhyF/Crt34iN5o8lpJa26yvNvLJGAMY6j/az39K5fWfC/izRtf0bSJtXsHm1V2SJ0jO1CuM7sj37VvD4W+Nj/wAx7S/+/Tf/ABNOWLweja22G8bhXZ8r0HfCv/kpWvf9eUf81r2jGBXA+APAN34Wv7/U9Tv47u/u0WP9ypVFQc9+p6flXfdRXiYupGpWlOOzPHrzU6spLZsdRRRXOZCEZrA13wZoHiba2r6XDcSKMCXlXA9Nwwa6CihNrVAcF/wp3wR/0CG/8CJP8aX/AIU74I/6BB/8CJP8a7uiq55dx3Zwn/CnfBH/AECD/wCBEn+NH/CnfBH/AECD/wCBEn+Nd3RRzy7hdnCf8Kd8Ef8AQIP/AIESf40D4P8AggMD/Y5ODnBuJP8A4qu7oo55dwuzO0vRdO0SzFppllDawDnZEuMn1Pr+NaVFFTuIKKKKACiiigAooooAKKKKACiiigAooooAKKKQmgBOtNJ5xSgndxSsu7p1FACMwTtQcEb1oOHHPBo4VcCgBd3HHWgCgCnUAFFFFABRRRQAUUUUAFFFFABRRRQAUUUUAFFFFABRRRQB518a/wDknU3/AF9Q/wDoVd5af8eUH/XNf5Vwfxr/AOSdTf8AX1D/AOhV3tn/AMeUH/XNf5Vb/hr5/oPoUNev7/TNJludN01tRuVIC26yBCQTycn0ri/+E28c54+Hk+P+vpf8K9Dubm3tITNczRwxr1eVgqj8TVL/AISPQv8AoM6f/wCBSf40ovTa4I4v/hOPHX/RPZ//AALH+FJ/wnHjn/ons/8A4Fj/AArtf+Ek0P8A6DOnf+BSf40v/CSaH/0GdO/8CU/xqr/3R/I4n/hOPHX/AET2f/wLH+FH/CceOv8Aons//gWP8K7b/hJND/6DOnf+BKf40f8ACSaH/wBBnTv/AAJT/Gi/90PkcT/wm/jr/onk/wD4Fj/CpIPGnjeS4iST4fzojMAzfa14GevSuy/4STQ/+g1p3/gUn+NLDr2jzSpFDq1jJI52qiXCEk+gANF1/L+YvkaQ6V5x8af+ROtP+wlB/WvR+1ecfGn/AJE60/7CUH9aVP40Edz0dfuj6UtIv3R9KWoEFFFFABRRRQAUUU0mgDyz/mvOqf8AYKj/AJrXb1w5P/F+tU/7BUf81ruK2n09EEjidP8A+S9t/wBgf/2YV6nXlmn/APJe2/7A/wD7MK9TqKnT0GxaKKKgR4v8QP8Akr2lf9g1v/QnrRsL23tFfz7FLndjG5iNtZ/xB4+LulE8Z01se/zPWjp50wJJ/aC3BbI2eURjHvmvRh/CR81mt1i42aWnXbqXf7a07/oBQf8AfZ/wpf7a07/oBQf99n/Ck3eHP7l9+a0bvDn/ADzvvzWi0ezOa9X+aP3L/IP7a07/AKAUH/fZ/wAKrpqdmt5JO2lxNEygLGWOFI7ii7bRDbN9lS6E/G3eRj8aS5bRjat9mW6FxgYLEbc96aUezM5yqX1lHTXZf5D7rVLKe3kji0qKJ2HEitkrUqaxp6oFOiQMQME7zz+lIreHNoyt7nHONvWnbvDf9y+/8dpe7tZlL2l+bmj+H+Qv9tad/wBAKD/vs/4Un9tad/0A4P8Avv8A+tSFvDnZL781rMvTaG4P2ISCHA/1mM5701GLezJqVasFfmi/RL/IuRalZR3Msr6XE6SY2IW4X1x9asf21p3/AEA4P++z/hWHRVunFnPHFVIqyt9y/wAjd/trTv8AoBwf99//AFqq32oWdzbmOHTYrd8g71bJrMooVOKFLE1JLldvuX+RR0n/AJK/4c/64Tf+gtXuQrw3STn4weHQOcQTZ/75avchXHivjXofXZd/usPT9QNNHpT6YeDmuY7RRlR8xrhfiXol7qOj2epaShk1LSbhbuGMdZAPvDHc8A/hXdNzg0gWnGXK7jTscRonxT8L6pZJJdahFp90BiW2ujsaNu4561qD4geEP+hh07/v8KtX/hLw/qlx9ov9GsriY9ZJIVLH6mq3/Cv/AAj/ANC7p3/fgVX7vzDQP+Fg+Ef+hi0//v8ACj/hYPhH/oYtP/7/AAo/4V/4R/6F3Tv+/Ao/4V/4R/6F3Tv+/Ao/d+YaB/wsHwj/ANDFp3/f4Uf8LB8I/wDQxaf/AN/hR/wr/wAI/wDQu6d/34FH/Cv/AAj/ANC7p3/fgUfu/MNA/wCFg+Ef+hi0/wD7/Cj/AIWD4R/6GLT/APv8KP8AhX/hH/oXdO/78Cj/AIV/4R/6F3Tv+/Ao/d+YaB/wsHwj/wBDFp//AH+FRS/ETwhFEznxFYYUZ+WXcfyHJqX/AIV/4R/6F3Tv+/ApU8BeE0cOnh3TgwOQfIU0fu/MNDjNHuJviH8RLTxDBBLFoGjIy20sq7TcStwSB6f4D1r1YVFFDHbxLFFGscajCogAAHoBUtTKV9gbFooopCCiiigAooooAKKKKACiiigAooooAKKK5/xnrsnhvwlqOrQxrJLbxZRW6biQoz7ZNCV3YDforwKDUfHd9bx3b+LXhMyiTy0gXC55wOKl87xz/wBDnN/34WtfZLujieY4VOzn+DPeKK8H8/xz/wBDnN/34Wjz/HP/AEOc3/fhaPZr+ZC/tLC/zfgz3iivBvO8c/8AQ5zf9+FpfO8cf9DnN/34Wl7Ndw/tLC/zfgz3iivB/O8cf9DnN/34WjzvHH/Q5zf9+Fo9mu4f2lhf5vwZ7xRXg3neOf8Aoc5v+/C0vneOf+hym/78LR7Ndw/tLC/zfgz3iivBvO8c/wDQ5zf9+Fo8/wAcf9DlN/34Wj2a7h/aWF/m/BnvBNIcivCBc+OQQf8AhMpj/wBsFqVrjxxkFfGExB7eQtP2a7oP7Swv8/4P/I9wUgsaAGD8dK8V0/xR4o0DxDpa6lrH9pWd7cLbyI8YVlLHAIIr2zJHGc1Eo8p106sKsVODugYDPvSgUgFOqSxaKKKACiiigAooooAKKKKACiiigAooooAKKKKACiiigAooooA86+Nf/JOpv+vqH/0Ku9s/+PKD/rmv8q4L41/8k6m/6+of/Qq72z/48oP+ua/yq38C+f6D6FTWdG0/X9Oew1O1W5tXILRsSOQcg8c1zg+E/gf/AKAMX/f1/wD4qt/xCNbOkS/8I+bUajldn2rOzGeenfFcVs+L39/w9+TUR5raSsCv3Nf/AIVN4H/6AEX/AH9k/wDiqP8AhU3gf/oARf8Af2T/AOKrJ2/F7+/4e/JqNvxf/v8Ah78mq/f/AJvxHr3Nb/hU3gf/AKAMX/f2T/4qj/hU3gf/AKAMX/f2T/4qsjb8Xv7/AIe/Jqv6KvxK/ti3/tptEOnZ/feTu34x/D75xSfN/N+Ia9yf/hU/gj/oAxf9/ZP/AIqpbP4Z+D7C8hvLbRYY54XEkbb3O1gcg8msb4x6zf6X4dsbawuHtnv7sQSSxnDBMEkA9s15R/YS99R1An1+0GuzCYKtiYuUZHLiMZChZTb1Pp8GvOfjQf8AijbT/sJQf1ryb+wk/wCghqH/AIEGmSeHYJl2y3t7IAc4abPNdUcmrRkndHOs0w6e7+4+oV+6Oe1KfrXzB/YSf9BDUP8AwINdJ8Ob+/0f4gWekR39zPYX0MheKeQttZQSCM9DxWGIyurRg6kmrI1o42jWnyRevoe+0Ugpa8s6woooNADSaRsYyK4b4o63qGleHrW30uY293qN2los46xhs5I9+Kyn+FWg2FssupeINVB48yaW9CAt+I4zVKKtdsdhnH/C8NTYdf7MT+a12gauD/4Vz4DEhl/4SScsRgt/aUecfXrSn4e+Az/zNNz/AODRK1fK7a/gNpMm08/8X7f/ALBH/swr1PIrydvhX4LhWO9k8QXsaygrHOdQQBwOwbHNSRfDHwfPDLNF4l1GSKIZkdNSUqn1OOKUlGVtfwDQ9UyPWjNeS/8ACu/A3/Q23f8A4NUo/wCFd+Bv+htu/wDwapU8ke/4BZHW+NPAtp4wS3mNzLZ6ha58i6h5Kg9QR3Fcj/wqTX/+h2m/8BR/8VU8Pwx8H3CSPB4l1CVYl3SMmpKwQepwOBUP/Cu/A3/Q23f/AINUrSM3FWUvwIlSpz+JJ+qE/wCFSa//ANDvL/4Cj/4qj/hUmv8A/Q7y/wDgKP8A4ql/4V54G/6G27/8GqUf8K88Df8AQ23f/g1Sr9rL+b8CPq9H+Rfcg/4VJr//AEO8v/gKP/iqT/hUmv8A/Q7y/wDgKP8A4ql/4V34G/6G27/8GqVZtPhX4Tv9ws/EOp3Oz73k6ir4+uBS9rL+b8A+r0f5V9yKv/CpNf8A+h2m/wDAX/7Kl/4VJ4g/6Hab/wABf/sqq+IfD83wxl03XNF1bUJbd7xLe6tLqbzFkVs/T0r2QciplWqKzT0E8PR/kX3I8l/4VJ4g/wCh2m/8Bf8A7Kj/AIVJ4g/6Hab/AMBf/sq9bxRip9vU7i9hR/kX3I8k/wCFSeIP+h2m/wDAX/7Kub8R+D9f8P6xoOnnxXNP/atyYN/khfL6c4zz19q9/wAV5t8SP+Ry8Cf9hI/+yVUK03KzY1h6N/gX3Izf+FSeIP8Aodpv/AX/AOyo/wCFSeIP+h2m/wDAUf8AxVet4oxU+3qdxewo/wAi+5HC+D/hxB4Z1KTVrzUJtT1R08sTyrtEa9woya7rtRS1nKTk7s1SSVkFIRS0VIxMUtFFABRRRQAUUUUAFFFFABRRRQAUUUUAFFFFABRRQaACkzSdaTPOKAH0ZpucGsPxhrEmg+EdV1OEZlt7dmjz/e6A/mRQld2Ao+IviL4a8NXX2W+vi933t7dDI4+oHT8axP8AhdXhX/nnqf8A4CH/ABqz8NfCdnpvhu11a4iW51XUYxc3F1KNzkvzgE9Bg13XlR/3F/KrfInbceh57/wurwr/AM89U/8AAQ/40f8AC6vCv/PPVP8AwEP+NeheUn9xfyo8pP7i/lReHYNDz3/hdXhX/nnqn/gIf8aP+F1eFf8Annqn/gIf8a9C8pP7i/lR5Sf3F/Ki8ewaHnn/AAurwr/zz1T/AMBD/jXNePfij4f8QeCtS0uzS+FxOqhPNtiq8ODyc+1e0eUn9xfyri/ixGg+Ges4RR8idv8ApotVBw5loGhw2mf8gqz/AOuCf+girsLCOaNyAwVgSCODzVLTP+QTZ/8AXBP/AEEVaoe58FV0qP1OmWzht7iYGGNszyPGGXI2rGWH4ZYflUttb29zHBNJbxb5FidwEABP7zt77RWVJrjST2rtCu2CIxOu77+RgnPY4pya75WxYrcCJNgVWfJ2ruyCffcaVmejGtRT8vQs2covLK5mSG2S4SNAzOiBCdx5APHTA/CodISSeK+dIoHm3R43qu0ZY5xniof7Wt/Ie2Nk32coFVRL8wwxbJOPU1UjuxFBcwpHhJmUjLZKhTn8aZi6sE4tu9k7+v3G1fxLBaAW8dskbSyqwdV3EbsDGefypDJbyahcW5s4t1sXaIhABhUOA3ryAeao3eqwXkYEtowdXd0ZZcAFjnkY5p51tPMZltFAlZnmHmZ3kqVOOPl6n1pGjq0ua6emnT/gaF4IgtYLqO1gaafyQwKKFOd2cA8DO0U+SxtzaoyW6q8Uc3mKQCcHftz64K4zWaNZi4jaz3QIE8tPM5BTOCTjnqc00a7JvdmiHzwvEwzwdzFs/hmiw1Xo9X+HnvsXruQQrqaJBbgRSoqZhUkBs57VYlggS9jt/s8Pl3EsofKDICqMYPb14rEuNTM/2z90F+0uj9fu7astryvJ5rWo81Wdom38LuAByMc0WEq9Nt3f9Xf6FvUrOAWEtxHGgxBGjYUcOCpz+IaudjPGK0JdXeW2uoPLAScR9/ulABn8cVmA4ORQjlxM4zmnD+tWc34suksbrRLufcY4NQjkfaMnA5OBXof/AAunwr/zz1P/AMBD/jXBa/zq3hwHnOqRfzFfQXlJj7i/lVTcUldH02U2+qr1f5nnv/C6vCv/ADz1T/wEP+NJ/wALq8Kf889T/wDAQ/416H5Sf3F/KkMSf881/KovDseloYvhzxhofimFn0m+SZk+/EQVkT6qea3q8p+JOlQeGLnTvGmjxpa3lvdJHcrENqzxscEMB37fj7V6ojB0DDoRkUpRSSa2BofRRRUiCiiigAooooAKKKKACiikzQAtFJmjNAC0UUUAFFFFAHnXxr/5J1N/19Q/+hV3tn/x5Qf9c1/lXBfGv/knU3/X1D/6FXe2f/HlB/1zX+VW/gXz/QfQqazren6Bpz6hqdyttaoQGkYE8k4HA5rm/wDhbngf/oOx/wDfmT/4muwuLaC7haG5hjmjbqkihlP4Gqf/AAj2i/8AQI0//wABk/wqVbqGhzf/AAtzwP8A9B2P/vzJ/wDE0v8AwtzwP/0HI/8AvzJ/8TXR/wDCPaL/ANAew/8AAZP8KP8AhHtF/wCgPYf+Ayf4VV4dmGgzQ/EOl+I7E32lXa3NuHMZdVIwwxkYIz3Fa1Vra0t7OLyra3igjznZEgQZ+gqzUu3QR5P8cv8AkG+H/wDsIj/0GqXhdbL+z9Wa/jVoSkSM2OUDNjcPpwfwq78cwV0nQ5TxGmoDc3YfKetcfFfvFbzwxXCiKcASKCMMAcj9a+gyyn7TDSgnbVfmeRmT5akZWvozsJtNs9M8MapZfu572MRyyzLghdz4VQfpyfrU3iZ7WGHUILia0bKx/Y4IkHmxNgZJIHAxnvXFRahJDbzwR3AWOcASLkfNg5FF1fvd3DXE84kmbGWJHOBgfyrvjg5c/NKV9b/l92z+R5rr+7aMelvz+86u6uDqPhGRYZoZJ7cK10GgCMgzgKpA/Pua5fwj/wAla0H/AK5Tf+gNVm78SX19Z/Zbi8RoiQWwFUvjpuI6/jVXwcwl+LeiCMhykMpfac7RsbrWGJpunhaidtXf+tEdeDlzYmLXRM+haKM00mvlj3hc00mkJpSdqZFAHnPxaP8Aovh3P/QXix+tdprOiWGvWZs9TtI7q2LB9j5xkdDxXF/Fpt9l4eB6/wBrw/1r0KRTKmwkj3FaPSMfmN7I5Zfhj4NQYGgWpH1b/Gk/4Vd4KPXw9a/m3+NdKLFf+ekn/fVO+wp/z0k/76qeZ9xXZi3Hgbwzd6ba6dPo9vJZ2hYwRHOE3cnHPei18C+GLGxu7K20e3jtrxQtxGM4kAOQDz61tfYk/wCekn/fVOFqoRk3vhu+aOZ9wuzl/wDhVvgr/oX7X82/xo/4Vd4K/wChftfzb/GumFmv/PST/vqnSWqyOWLuM9gaOZ9x3Zh2PgXwzpkN3DZ6NbxR3cXkzqMnzE9Dk9Kp/wDCrvBX/Qv2v5t/jXTfYk/56Sf99UfYk/56Sf8AfVLmfcV2cz/wq3wV/wBC/a/m3+NH/CrfBX/Qv2v5t/jXVxRCEEBmOf7xqXNHM+47s4//AIVb4K/6F+1/Nv8AGtTRPCmh+G3mfR9NhtGmAEhjzlgOnU+9bdLQ5SejYXZ5t8af+RQsf+wnB/7NXo46CvOfjR/yKFj/ANhOD/2avRh0FVL4F8wew6iiioEJXm3xI/5HLwH/ANhI/wDslek15t8SP+Ry8B/9hI/+yVdL4vv/ACGtz0qiiioEFFFFABRRRQAUUUUAFFFFABRRRQAUUUUAFFFIaAForh9b8evDrMmieHtIm1rU4h+/WNgkUHs7njPtVb/hIPiR/wBCbY/+DBarkY7HoNFef/2/8R/+hNsf/BgtH9v/ABH/AOhMsf8AwYrR7N9194WPQKQ15/8A8JD8R/8AoTbH/wAGC0h8Q/Ebv4Nsf/BgtHs33X3hY78Z6ilGGwe4rgm1/wCIoiBHg+xz/wBhBajTX/iPnjwbY/8AgwWn7N9194WPQSAT15rkPihx8Ntdx/z7/wDswqg2v/EQ42+DbL/wYLWR4jk+IfiPw7e6RJ4Ts4Uuo9hkW/UleQen4U4wakm2vvGlqd54P/5EzRP+vGH/ANAFbVeaaVqHxF0vSbPT08IWUi20KQhzfqC20AZ/Srn9v/Ej/oTbH/wYLScG3uvvFY9Aorz/APt/4kf9CbY/+DBaP7f+JH/Qm2P/AIMFo9m+6+8LHoFFef8A9v8AxI/6E2x/8GC0f2/8SP8AoTbH/wAGC0vZvuvvCx39UtV0y11jTLnTr2PzLa4jMci5xkH09643+3/iR/0Jtj/4MFo/t/4kf9CbY/8AgwWnyPuvvCxjf8KWMXyWvizU4YF4SPaDtHp1FH/Cmbn/AKHPU/8Av2P/AIqtn+3/AIj/APQmWP8A4MVo/t/4j/8AQmWP/gxWtOap3X4GbpQerS+5GN/wpm5/6HLU/wDvgf8AxVH/AApm5/6HLU/++B/8VWz/AG/8R/8AoTLH/wAGK0f2/wDEf/oTLH/wYrRzVO6/APYw/lX3Ixv+FM3P/Q5an/3wP/iqP+FM3P8A0OWp/wDfA/8Aiq2f7f8AiP8A9CZY/wDgxWj+3/iP/wBCZY/+DFaOap3X4B7GH8q+5GN/wpm5/wChy1P/AL4H/wAVR/wpm5/6HLU/++B/8VWz/b/xH/6E2x/8GK0f2/8AEf8A6Eyx/wDBitF6ndfgHsYfyr7kY3/Cmbn/AKHLU/8Avgf/ABVH/Cmbn/octT/74H/xVbP9v/Ef/oTLH/wYrR/b/wAR/wDoTLH/AMGK0c1TuvwD2MP5V9yMb/hTNz/0OWp/98D/AOKo/wCFM3P/AEOWp/8AfA/+KrZ/t/4j/wDQmWP/AIMVo/t/4j/9CbY/+DFaOap3X4B7GH8q+5GN/wAKZuf+hy1P/vgf/FUf8KYuf+hy1P8A74H/AMVWz/b/AMR/+hMsf/BitH9v/Ef/AKEyx/8ABitF6ndfgHsYfyr7kV9C+Elppus22p6jrF7qslq2+COcAIjeuMnNejDgVwP9v/Ef/oTLH/wYLR/wkHxH/wChNsf/AAYLUyjKW7X3otRsrI7+lri9B8eG91caHrelz6Nq7LujhmYNHMB12OODXaCs3Fx0YHnXxq/5J5J/19w/+hV39uf9Hi/3B/KvP/jYM/DuUZxm6h/9CrKi8A6u0KEeOtdAKg4Eh4/WtFFOCu7b/oVpY9azRXkzeCfEtqvm6f471U3C8qtwdyE+hGf6Gt/wF4uvtYmvtE12FINc04jzgn3ZUPRx/nuKl07K6dxW7Hd0UCioEFFFFABRRRQAhpMZFBNJgqN2aABeuDQDSghvmFGVz0oAUGlpop1ABRRRQB538aVJ+HVwQMhbiEn2G6u6sXWSwt3Ugq0SkEdxgVW1zSLbX9Gu9LvFJguYyjY6j0I9wcGvOtM1Lxv4Et10i70CXxBp8Py213Zt8+zsGGD0/wAk1aXNGy3Q90er0V5v/wALL13/AKJ7rn5f/Y0f8LL1z/onuufl/wDY0ezkFmekUV5v/wALL1z/AKJ7rn5f/Y0f8LL1z/onuufl/wDY0ckgsz0iivN/+Fl65/0T3XPy/wDsaP8AhZeuf9E91z8v/saPZyCzO31jR7DXNNksNRtkuLaT7yMO/Yg9j71xv/ClvBf/AD5XI/7eX/xqL/hZeuf9E81z8v8A7Gj/AIWXrn/RPNc/L/7GqiqkdvzCxL/wpbwX/wA+l1/4EvXGfEn4c+G/Deg2txpsEyXU97FAN07NuU5yAD9K64/ErXj934ea3nt/nbUGn6F4k8Z+JbLXfFNpHp2n6e/mWemhtzM/Zn/T/CrjOpF3k9PUaVty3/wpXwaRzaXOf+vlq3vDfgTQPCkks2lWPlzyDa00jl3x6ZPQfSumoNZOpJqzZI2hht5yKUfepChJyTUAO6jjGaYrYyrCjZt5U07cCOlAHm3xfdYNL0KduIo9WhLv2Uc8mvQmzNEGhlAB5DDkEVU1jRbHXdLm07UYRNayjDKRjHoQexHrXED4O6fGNkHiHX4oh92NbvhR6DirTi4pN2sPRo78Q3H/AD8/pS+Tcf8APz+leGjwex+JN54b/wCEh1r7JBZrcLJ9qO8sccemOa6P/hV8P/Qza/8A+BVW4RXX8AaSPTxDOGBNx/47T3jlMm5ZsL6Yrwy28GtP8Sm8NN4h1r7ILH7T5gujv3Zxj0xXZf8ACn7X/oaPEP8A4F//AFqThFbv8Asj0iivOP8AhUFp/wBDP4h/8C//AK1H/CoLT/oZ/EP/AIF//WqeWHf8Asj0eivOP+FQWn/Qz+If/Av/AOtR/wAKgtP+hn8Q/wDgX/8AWo5Yd/wCyPR6K84/4VBaf9DP4h/8C/8A61H/AAqC0/6GfxD/AOBf/wBajlh3/ALI9Horzj/hUFp/0M/iH/wL/wDrUn/Cn7T/AKGfxD/4F/8A1qOWHf8AALIZ8Z5UPhnTbYMDPLqcPlx/xNjOcD8R+delL0FcNovwt0bSNWh1Oe6v9TuoDmFr6beIz6gY613XalJqySBi0maQmkORUiHV5f8AFO7t7DxP4Ju7qVYreG/Z5JG6Ko25Jr0/oAa8w+KFvBe+KfBFtcxJLBLqDK8bjIYHbkEVdP4hx3Oy0/xn4b1a4FvYa1ZTzHpGso3H6A9a3s5ri9a+GHhbVrFoY9Lgsp8ZjuLVPLdG7Hjr+NVvhjreoXum6ho+rymXUNGuTaySk8yL/CT78EUOKaugt2O+oooqBBRRRQAUUUUAFFFFABRRRQAUUUUAFVb+VrfT7mdPvRxM6/UAmrVU9W/5A19/17yf+gmhAcd8JbOOLwFaX2N11qDyXNxKfvO5cjk/QV3fSuO+FX/JMtE/64t/6G1bmt6smkWJkwGlb5Y09T/gKqesmTVqRpxc5PRE+oanZ6bHvupQuei9SfoK5i8+IFvBny7YBOzTSBc1y1laat401GcwXBhtIn23F8y7iW7pEDwSO5PArsrPwN4Y0uFpJrGG4dRl7i+Pmt9SW4H4Yp2S3OCLxNdcyfLHppdlC1+IcdxJt8iGQd/KmBNdHp3iPTtScRRybJf+ecgwT9PWqDeGvCWrxZj0zTJ1HHmWyqCp/wB5OQfxrlde8IXnh9Gv9MnnvLBPmlgkO6aEf3kbqwHoefc0Wi9ENwxVH3lLm8mrP5Hp+ce4pc5HFcp4U8RrqcSW8kokfZujlB/1i/411iipasdVGtGtBSiAFOoozSNgooozQAUVj6xr1ppNhqNwXSWaxtmuJLZZBv2gHHHYHHWn+H9YTXdAsNUERhF3CJRGzZK57e9OztcDVooozSAKKM0UAFFFFABRSZpaACiml1BALAE8AE9arXmoWenRpJeXUVujuI1aVwoLHoOe5oAt0Vz2k+KLfV/EWs6NFBKkulsiySMRh9wzx9K6AUNNbgLRRRQAUlBrno/FNvL40uPDPkSLPBaC6MxI2EE4x+ooSb2A6KimKwZQwIIPII70+gApKWigDz34uWyL4QTVkGy8026hmt5R1U7wCPpz+ld9ExeJHIwWUGuJ+L3/ACTfUP8ArpD/AOjFrtbf/j3i/wBwfyq38C+f6D6Hn/xr/wCSeSf9fcP/AKFXRwf8e8X+4P5Vznxr/wCSeSf9fcP/AKFXRwf8e8X+4P5U/sL5iexJXEWPyfHs7eN+kfNjvgj/AAFdvXE2f/Je1/7BB/nVQ6+gRPVKKKKxAKKKQmgBaaTSE0LyT7UAISaVwSBjkUgky2CKUkqcDpQAiqVGentS/eNHJpwFAABS0UUAFFFFABSGlooATFFLRQAlFLRQAlFLRQAlFLRQAmKWikJoACaTNITS8hRgZJoAbRgtxmlY5wO9AHNABjauKAKXFKBQAtFFFAHlX/NedU/7BUf81rt64j/mvOqf9gqP+a129bT6eiCRxOn/APJe2/7A/wD7MK9Tryyw/wCS9t/2CP8A2YV6nmpqdPQbFooorMQUUUUAFFFFABRRRQAUGkzTSaAA9eKXOflbrSKRzUZJLe9AEpAwATXm/wASFH/CYeBDn/mJHA/74r0bPGGHNeb/ABHH/FZeA/8AsJH/ANkq6Xxff+Q47npQrzj4df8AI7+PP+wiv/s1ej14louleJ9S8deM28O67Fpapf4mEkAk8wndjqOMc/nTgrpgtme3ClrzX/hGPiZ/0PNr/wCAS/4Uf8Ix8TP+h5tf/AJf8KXIv5kFj0qivNf+EY+Jn/Q82v8A4BL/AIUf8Ix8TP8AoebX/wAAl/wo5F/Mgsek5ozXmcmhfFGyQzweKdPvpF5FvLbBA/tnFbvgjxkfE0N1aX1obHWLB/Lu7U9j/eX2pOFldO4WOwooFFSIKKKKACiiigAqnq3/ACBr7/r3k/8AQTVyqerf8ga+/wCveT/0E0LcDmPhV/yTPQ/+uLf+htXO+O724vtWFjaviWWVLOA/3WcgFvwyT+FdD8Kz/wAWy0P/AK4t/wChtXM3eF+ImmeZ93+026+pR9v64rVfGzgxy5pwg9m9fkek6Xptvo2lW9hZxhYYECKO/uT6knmueuLFPEHjK6tdQHm2Gm28TpbMcpJLIWO5x0bAUAA+prqLiVoLaaVV3FELAHvgVyPg3UpNW1u/v5FWN7rT7GYoOgLK+ce2eKmN7OR6CJPEOmWeiRw65p0EVnc288SyeSgRZ4mdVZWA4P3sg9iK68qOwrnPHhB8KzDuZrcD3PnJxV/w/qkmrWdzNJGkflXk9uu3oyxuVB/Sk7uNw6HnV3anwt41ntbcbLdtt7aqOihiQ6D2DA8ejV6xDKssSSL0ZQR+NecfEDb/AMJfpIX74spi30Lpj9c132kgjSLPPXyk/kKctUmedQXJipxWzSfzGjWdObWm0gXSf2gsPnmDncEzjPp1q+SMZrybW0mk+LGux24czt4akWMJ94t2x71c8Laf4ritfBJBnhsILWUalFK21snOzcp5PbHpT5Fa9z0rGto/xI06/wBHt9QvYZLP7TqLadCg/ebnB4JIHAqH4jeJvsngnV5dF1JUvrKaKKRoWBaFi44PpxXmNh/yKHh7/sbG/pVjXv8AkD/E3/sLQf8Aow1oqcU7/wBbjsrmtrMjS+LvGkjnLN4YRmPqSq0eHJni8S/DvDNtGiTMVB4Pyt/hTdU/5Gjxl/2K8f8A6AlN0D/kZPh7/wBgOb/0F6vp/XYfQ0n8f6rrNn4Ov4G+wm+1hra4iiOVdFYDBz7Guot/iPp6Qa1cajC9rBpeoCx3j5zIScA4A4715dov/IteAP8AsYJP/QxSax/yLPjb/sZY/wD0I1Lpxen9bhZHu+pa5p+lWF3eXM6+XZxedMqfM6r2O3rzWbb+M9NvNf03SoVmeTULL7dDJtwuzsD3B615p4gilXX/AIjSNG4jOjw4YrwflX/69S6P5v8AwmnhEQZ87/hFT5eP721sfrUeyVr/ANbE2PXrvVbCwurS1urmOKe8cx26McGRgMkClv8AUrLS4FnvrmK3iZ1jDyNgFicAfWvH2XWkl+Gy+IDN/aX9ozeZ55y+Nwxn8Kb4yXxAng27/t8yEnxEhtPMKn9zk4xjtSVNXSuHKanirxZqsqeP9OWYQxabbQm2eLKupbG75h65rrdJ8TWcOhada3F35uqf2Ql6YWJ3SIEGTnHc/jXm3iT/AJCfxR/69bb+a1Zt/wDkcNM/7E7/ANkNW4Jx/rsh20Ll14hk8T658OdYWFrb7RPcFog+4DGF68Z6Vh61rOo674OMmoXBneDxSIYyQBtQZwOPrS+GnxbfC8Hp591z/wADqnIm3wbcEdD4tNWkk9P61GdXp2uQeG/F/wARdYuYnkitWt2ZI8bmyMcZ+or0f+3rP+yze+YMiz+2eTuHmeXt3Zx+leO+IIm3/FLpz9m/mKtEMPGLAjj/AIQ7/wBp1EoJ6/1shNHqGg+KdO13R9Ov0kW3bUVZoIJnAkbaTkAZ5xjtU+ueIdO8Px2kmoSMi3VwttFtQtl26fhXjnh7/j4+FP8AuXP8zTtbTW08KaWNe+1faf8AhKMx/aSS3l9se3XFT7JcwuXU2bjxnq+jS/EC+Wf7T/Z11AlrDOSUjDHacAVU1O4e48eeJbk/K8nhUyHb2JQGsnxD/wAePxR/6/bb/wBCrSu/+Rx8Qf8AYoj/ANAWtEktV/WxRu+C/FT2Gl+CtB+zeZ/aNhJIZy/KbMkDHfpV34ZeJHuvB8dxreph7ibUJbeJ7iQBnOeFGevfiuQ8O/8AIc+Gn/YMuP5NWNpAz4R8I4H/ADNDfzFKUE7/ANdxWPfrLVrDUZ7uC0uo5pbSTyrhUPMb+hq9XjOlQa7dP4/h8OTCHUjrKFXLBfl3HdyeOldp9k8Xf8JNrMsd1GtjJYRpY+awaNLjHJKjnrn9KxlFJ7ktEHxe/wCSbah/vw/+jFrtbf8A49ov9wfyrgPiYt5H8JLhNQkikvQIBO8S4Rn3rkgema7+3/49ov8AcH8qH8C9X+gdDz/41/8AJPJP+vuH/wBCro4P+PeL/cH8q5z41/8AJPJP+vuH/wBCro4P+PeL/cH8qf2F8xPYkribP/kva/8AYIP867auJs/+S9r/ANgg/wA6qHX0CJ6pRRRWICE03BIzSmhgSAAeKABTkc4ppJV844NHl+5zShuzdRQAYQnNHU0dTmnAUAAFLRRQAUUUUAFFFFABRRRQAUUUUAFFFFABRRRQAUUUhNACE0EZGRSHnpSAMpzjIoAXCjgnml+5x2prJvG5acegFACDaOnWlFIBT6ACiiigAooooA8n8b+b4S+INn4veF5NKurcWd4yDJiOflY+3T8jXTW3iTRLuBZoNXsnjYZB89R/M11c8EV1C8E8SSxONro6gqw9CD1rkJvhT4KnlaR9ChVmOSEkdR+QOBWilFpcw9Huc5pFzBd/HeSS2njmj/sjG6NwwzuHcVJezeIPG3jrWNH0/XJtG0zSAiO1uP3krsPXjjg9+1VtB0HTPDnxyew0q2Fvbf2SX2Bi3zFhk8k+lP0Cwl1Txv8AEHT4dRuNPnlmgKz25AkUDJyP5fjWkrbrshmn/wAK11//AKKHrf5f/ZUf8K11/wD6KJrX5f8A2VSD4b6x/wBD/r//AH2P8aP+Fcaz/wBD/r//AH2P8anm/vfgF/Mj/wCFba//ANFE1r8v/sqP+Fba/wD9FE1r8v8A7KteXwbqMnh2HTB4t1dJ45jKb0MPMcH+A+wo0jwbqOmw3yT+LdXvTcwGJGmYZgJ/jX/apc7tv+AX8zI/4Vrr/wD0UTWvy/8AsqP+Fa+IP+iia1+X/wBlUn/Ct9Y/6H/X/wDvsf40f8K31j/of9f/AO+x/jT5vP8AAL+ZF/wrXX/+ih61+X/2VH/Cttf/AOih61+X/wBlW54c8JX2h6g9zc+KNU1RGjKCC6YFAcj5vrxXVDgjNS6kk9H+AczPOP8AhW+v/wDRQta/L/7KnD4ca6gy3xA1kk+o/wDsq9FYDaTik4kX3pe0kLmZ57/wrnXfvL8QNZ+mP/sqB8PNdPP/AAn+s/l/9lXoYGxTzQBS55BzM8h1638TfDoWet/8JRdavYm5SG5tbteqt3Xk81rfEYg+MPARHQ6kT/6BT/jSQPA0SZG5r+AKO55NZ/xXv00rWfBd/JFLKlteNIyRLl2ACcAetax96z66lI9Xrzf4ckHxp48YHKnUV5/77qtcfFDUNYha08M+F9Vlv5BtWS6h2Rx/7ROf8K6XwF4VfwtoTR3cwn1K7lNxeTDndIew9h/jUcrgnfqK1lqdbRRRWZIUUUUAJXmkKi3/AGgJxENoudHDSgfxEMACfyFel15sf+TgV/7A3/s1XT6+g0elUUUVAgooooAKKKDQAZqlqx/4k19/17yf+gmrfWqWqgnSL4dP9Hk5/wCAmhbgc18K+fhroY/6Yt/6G1Y3jvTZotR+1Wq4l3JcQN2EqEHH44/Wtn4WoU+G2i4OcRN/6G1dFq+mRavYtbyHaTyrgcqatu0mzmxlJ1Ie78Sd16oh0PWbXXtHgv7U5SQYdD1Rhwyn3B4rh7vS9V8K3yy2InFtEGS2uorc3CiEsW8maNfmwpJ2uvQHFU5ItY8H6rJNp6oDIczW0ufKuMfxA/wtjv8AnXS2fxK0Z0C6lHd6ZN/Es0LOmfZ1BBH5VSTW2qFh8ZTqaPSXVPcwBqOs+LZbZ7YreiJ98AhtJIbSOQdJJHk5faeQijqOa9A0jTYdB0OGyWTckCEyTOcFmOSzn6kk1x+h+M/DugeHrbT0v31CeLfxZ20jbsuW7jA69zWTq+t6v4wcWX2d7LTHODaq26a49nI4Vf8AZHXuaGm9NkXWxVKkrt/Lq/kMSd/F3i+a/hBNvIVtrQ/9MVJJf6Ekn6Yr1uOMRxqo/hGBXP8Ahnw8NHg86VV+0OMYHSNfQV0VRJ3ZjhKcryrVFaUunZdEVRp9mNRbUBbRfbDH5Rn2jeUznbn0zVsjNLRUnacho3w+0nS9JisLgNfJDftfxNNwUkJ46elV/iN4euNX8EalZ6RZI97cyRuyoFUyEOMknjJwO9dvRT53e47niOsxtF4u8axOMOnhhFYe4VaXw3bSzeIvh46xSGL+xJVaQKSF+VhyfxFes6lo1lqlle208IX7ZAbeWRAA5QjGN3tmn6PpNvomj2mmWpcwWsQiQucsQPU1p7X3f67D5tDzab4eajpNr4RsbI/bksNXa6uJQAmxGOc4J9q6u0+H2kxx6xFeBr2HU777a8cvARgcgDHoa67HrRUOcmK7Keoabaanp89hdwiS2nTy5Ezjcvpkc1mw+EtJttasdVghdLixtPscCq52LH6Y9a36KlNoRSudMsry4tri5tYpZrVy8DuoJjY8ZHpTr2wtNRhWG8toriNXDhJUDAMOQcHvVukJoA8o8U+ENWSPx5qEUQnTVLaEW0UOWkYrjdxj2rq9I8N2kuhafNcWgi1MaSlk0xHzxqUGVx9a6rqaNoPGeapzbVh3PJL3w6fDGs/DzSIne5S2nnDTeXgHOG6c461yJkx4JuAen/CW9fSvoghWIDAZHQ1i6f4V0bTLae3t7JHimujeMsv7weaedwz0x2q1V7j5jg9N0WHxB4x+IWkXEsiQ3TW6s0ZG5eM8Z+lejf2LaHSfsGz5Da/ZPMwN+zbtxmqeleGLXSPEGr6xFLK02psjSI5G1Noxx+db4GKiU7vQTZiaF4asNC0jT9PhjEwsFKwyzKC65JyQccZz2qzq2iafrcdumoWqzrbzLPEGJG116HitOkIpXd7iPJpvA2q6xN49s3QWkeqXUL2s8oyrhTuJ45qhqds8Hj/xLajMjx+FTH8o+8QoHSvZyKwYvC9rF4zuPEollNzPai2MRxsABBz654FaKr3K5jkPBXhNb3R/B2vSTSRTadYSRiAp9/fkck9OtaXwv0G80jwj9l1ay8m4W9llRJACVBPDD0ruwMDjilqHUbuhXK0FlbWsk0kFvFE8775WRADI3qcdT71aooqRHC/F7/km+of9dIf/AEYtdrb/APHtF/uD+VcV8Xf+Sb6h/vw/+jFrtbf/AI9ov9wfyq38C9X+g+h5/wDGv/knkn/X3D/6FXRwf8e8X+4P5Vznxr/5J5J/19w/+hV0cH/HvF/uD+VP7C+YnsSVxNn/AMl7X/sEH+ddtXE2f/Je1/7BB/nVQ6+gRPVKKKKxAYaTJ7GnZ4y3FNoAVVwck0dTmlxSgUAAFLRRQAUUUUAFFFFABRRRQAUUUUAFFFFABRRRQAUUUmaAEJpGHGRQTRuCAZoAEOVJHWmo5LYNOIx8y9O4o3g9BzQAnKscdKUDNAFOFAC0UUZoAKKKKACiiigAooooA8u8ZTN4S+JWleLZ43bSri3NjdyKM+Sckhj7dPyNX9Z8G6H4sv01/StdmsLuSMK11p84xKvbPPWu5u7O3v7WS2u4I54JBteORQysPcGuGn+DXg6aZpFsp4QxzsiuGCj6CtIzWmtmikyj/wAK0uv+iha3/wB//wD7Kj/hWl1/0ULW/wDv/wD/AF6t/wDClPB3/PG9/wDApqP+FKeDv+eN7/4FNV+0Xf8ABBcqf8K0uv8AooWt/wDf/wD+vR/wrS6/6KFrf/f/AP8Ar1b/AOFKeDv+eN7/AOBTUf8AClPB3/PG9/8AApqPaLv+CC5U/wCFaXX/AEULW/8Av/8A/XpT8Nbn/ooOt/8Af/8A+vVv/hSvg7/nje/+BTUh+C3g7/nje/8AgU1HtF3/AAQXKyfDW5BJPxA1o/8Abcf401vhteOc/wDCf60AP+m4/wAatr8GfCCHiG9/8Cmpx+DvhM9Ib3/wKajnXf8ABBcqD4cXan5vH+skHv53/wBekb4azckePtaBPpP/APXq43wZ8ImPaYr0/wDb01MHwV8H/wDPG9/8Cmpc67/gguVR8Nbk/wDNQda/7/8A/wBel/4Vpc/9FB1v/v8Aj/GrX/ClPB3/ADxvf/ApqP8AhSng7/nje/8AgU1P2i7/AIILkVl8NtMttRt9Q1rxJfauLRvMijvZx5aMO5Gao3uoReO/ihotvpJE+naCzXNzdJyhkOMKD35A/X0rTHwW8HBsm2u3H91rpsGuy0jRNN0GxWz0yyitYBztjHU+pPUn3NS5re92FzSApaKKyJCiiigAooooASvNj/ycCv8A2Bv/AGavSa82P/JwK/8AYG/9mq6fX0Gj0qiijNQIKKTIpaACkJpOtNJ5xQAEntmobuE3djcW4O1pI2TPpkYqdn2YAFI3zAOOtAHBfCe+VfCw0Kc+XqOlSPb3EDfeX5iQcehz+ld5jLEj1rl9f8C6drl8upQ3F1pmqAbftllJsdh6N61lj4e63/0P2u/mtW+WTvew9GdvcWcF3CYriJJEP8LDNYFx4JsJWJhllhz2B3D9ayP+Ffa3/wBD/rn5rR/wr7W/+h/1z81o0/mMKmGpVfjSZqR+BrNTmW6mcegwtblhpFlpy4toVUnq3Vj+Ncf/AMK+1v8A6H/Xf/HaP+Ffa3/0P+uf+O0afzE08JQpu8YpM78UVwH/AAr3W/8Aof8AXf8Ax2j/AIV7rf8A0P8Arv8A47S5V3Omy7nf0VwH/Cvdb/6H/Xf/AB2sTxb4Y1/w74W1DVovHOtzPax71jdgA3IGMj601FN2uFl3PWs0V5hovg3XtU0Ox1B/HmtxvdW6TFVIIUsoOB+daH/Cvdb/AOh/1z/x2jlS6hZdzv6K4D/hXut/9D/rv/jtH/Cvdb/6H/Xf/HaVl3Cy7nf0VwH/AAr3W/8Aof8AXf8Ax2j/AIV7rf8A0P8Arv8A47RZdwsu539FcB/wr3W/+h/13/x2kPw+1z/ooGu/+O0cq7hZdzviaAAR1rg/+EB1mNefHuuEn1K01fAWuDP/ABXeuH8qOVdwsjvgQGxmmlTvyK4Rvh9rMgBHj3XAf+A0HwBrg4/4T/XP/HaLR7hZHetyRSiuAHw91v8A6KBrv/jtO/4V7rf/AEP+u/8AjtFl3CyO+orgP+Fe63/0P+u/+O0f8K91v/of9d/8do5V3Cy7nf0VwH/Cvdb/AOh/13/x2j/hXut/9D/rv/jtHKu4WXc7+iuA/wCFe63/AND/AK7/AOO0f8K91v8A6H/Xf/HaOVdwsu539FcB/wAK91v/AKH/AF3/AMdo/wCFe63/AND/AK7/AOO0cq7hZdzv6K4D/hXut/8AQ/65/wCO0f8ACvdb/wCh/wBd/NaOWPcLLuRfFe8W60W18NWxEmpardRRxRLyQoYFnPoBivQYl2RKnXaAK5fw34E0zw9eyagZbm/1SQYe9vZN8mPQegrqxRJqySB9jzv41/8AJPJP+vuH/wBCro4P+PeL/cH8q5z41f8AJPJP+vuH/wBCro4P+PeL/cH8qr7C+YnsSVxFp/yXxf8AsEH+ddvXD2f/ACXtf+wQf51UOvoET1M5ooVgeDRWIAdpOa8x1LWvEXjTxRe6D4ZvP7N07T22Xuohcuz/AN1P16enWvTcV5x8G1B0PWpMfO+rz7m7npVw0TY13FHwt1DGW8d+ICe5Ev8A9ej/AIVZqH/Q9eIP+/3/ANenat4v8T6h4svtC8I6dZSnTlU3VxeOQNzchQAR/nNJ9o+Lf/Pj4e/77b/GrvPq0PUP+FWX/wD0PfiD/v8Af/Xo/wCFWX//AEPfiD/v9/8AXo8/4t/8+Ph//vtv8aPP+Lf/AD4+H/8Avtv8ad5/zL8B69w/4VZf/wDQ9+IP+/3/ANej/hVl/wD9D34g/wC/3/16PP8Ai3/z4+H/APvtv8aPP+Lf/Pj4f/77b/Gi8/5l+Aa9w/4VZf8A/Q9+IP8Av9/9ej/hVl//AND34g/7/f8A16PP+Lf/AD4+H/8Avtv8aPP+Lf8Az4+H/wDvtv8AGi8/5l+Aa9w/4VZf/wDQ9+IP+/3/ANej/hVl/wD9D34g/wC/3/16PP8Ai3/z4+Hv++2/xo8/4t/8+Ph//vtv8aLz/mX4Br3D/hVl/wD9D34g/wC/3/16P+FWX/8A0PfiD/v9/wDXo8/4t/8APj4e/wC+2/xo8/4t/wDPj4e/77b/ABovP+ZfgGvcP+FWX/8A0PfiD/v9/wDXo/4VZf8A/Q9+IP8Av9/9ejz/AIt/8+Ph/wD77b/Gjz/i3/z4+H/++2/xovP+ZfgGvcP+FWX/AP0PfiD/AL/f/Xo/4VZf/wDQ9+IP+/3/ANejz/i3/wA+Ph//AL7b/Gjz/i3/AM+Ph/8A77b/ABovP+ZfgGvcQ/C2+H/M9+IP+/3/ANelHwtvcc+OdfP/AG2/+vSG4+Lf/Pj4e/77b/GlS4+LOSGsvD+D/tt/jSvP+ZBr3Gn4WX45HjnXz/21/wDr08/DC9kXH/Cca+CP+mv/ANemWvi7xXoWvabp/iywsRBqcnkwT2bk7H7Agn3FbWo+IdauvEF1o3h2xs5JbONHuri9kZUUuMqoCjJOOaTc11FqZA+F98i4HjjXyf8Art/9emD4WX5/5nrxB/39/wDr1sB/iJ/z7eG/+/s3+FL5vxF/59vDf/f2b/Ci8+6C7Mf/AIVZqH/Q9eIP+/v/ANel/wCFWah/0PfiD/v7/wDXrY834if8+3hv/v7N/hR5vxE/59vDf/f2b/Cjmn3QXZj/APCrb/8A6HvxB/3+/wDr1m6npvi/4e251ix16513TIfmu7O95cJ3ZW5/z61vajrnjTQLKTVNU03R7iwtxuuFs5pBKqd2G4YOOuK6jU5Ir3w3eSLh4ZrN2GR1Uof8aOeS31QXZJo2p22taRa6naPuguYxImeoz2PuOlaNcH8HmJ+GOlZJODKBn/ro1d3WclaTQnuLRRRSEFFFFABRRRQAUUUUAFJmkJpCCKAAmjgYyMk0FDjrSj9RQAjAA0DPalA25JOTQBQAYyeaUCjgUZFAC0UUUAFFFFABRRRQAUUUUAFFFFACV5sf+TgV/wCwN/7NXpNebH/k4Ff+wN/7NV0+voNHo5PTivL/ABp8UbrR9bk0TQbGG6u4ADcTTk+XGSM7QBjJr1Ejivn34g6FqHhrxdqWtG0muNK1BhKZ41z5Tdw3pzWb5lFuKu+iOnBQpTrRjWdo9Wd14D+JM3iLVX0XWLKO01EIZImiJMcwHXGeh79fWvRs14X8MdA1HVvF9v4jltJbXTrSJhC8o2mdmBHHqOSc17ptI96FflTkrO2qFi4U4VpRou8ejFH3uKUgN0PIpqN8xB60BGD5B4pnMLkNw3Bo4xgUNyaUCgAAp1FFABRRRmgAopMiloAKKKKACuQ+KH/JNdd/69//AGYV14rkPih/yTXXP+vf/wBmFOPxIa3NTwf/AMiZon/XjD/6AK2jWL4P/wCRM0T/AK8Yf/QBUviPRh4g0K50true0E4A86BsOuCDx+VD3DqauaM15L/wo+P/AKGvVvz/APr0f8KPj/6GvVvz/wDr1fJD+b8Asu561mjNeUQ/BSOGeOT/AISvVzsYNgNg8H1zWl4j+FUfiLW59TPiHU7YyhR5SNlVwAOOfalywv8AF+AWXc9EJpCa8n/4UfGTj/hK9W/P/wCvR/wo+Lt4s1bP1/8Ar0+WH834BZdz1jcO4pA+WwBxXk//AApCP/oa9W/P/wCvUo+CsYXA8U6qD/n3o5YfzfgFl3PUzwxxTgK8m/4UfGTk+LNW/P8A+vR/wo+P/obNW/z+NPkh/N+AWXc9azS1zXg7wovhHTJbJdSu7/zJTJvuWzt4AwB2HFdLWTtfQQUUUUAFFFFABRRRQAUUUUAFFFFABRRRQB518a/+SeSf9fcP/oVdHCf9Hi/3B/Kuc+Nf/JPZP+vuH/0Kuhh/494v9wfyrT7C+YPYkPFcTYru+PAY9BpB/nXcD5l5ribL5PjuFPQ6ScH8aqHX0CJ6iCjcUUgjAbOeKKxAdivN/g1/yL2sf9hef/2WvSe1eb/Br/kXtY/7C8//ALLWkfgl8hrYb4G/5Kj48/67Q/yNelV5r4G/5Kj47/67Q/yNelmir8XyQPcKKKKzEFFFFABRRUE9xDawPPPKkUSDczuwCqPUk0ASgUua8z1f406DZztbaVbXWrzKcEwLtj/76PX8BWGfjTrJkyPCQ8v0N183/oND03aXq7G8MLWqK8IN+iPaKO1eX6T8bNFnmWDWbC70p243yDfH+Y5/SvSLO7tr+1jubSeOeCQZSSNgykexFDXUynTlB2krMs0UUUEhRRRQAUwjmn0mKAPNvifg+IPA5/6i6/8Asta/hof8XA8Y/wC/af8Aoo1kfE8f8VB4H/7C6/8AstbPhr/koHjH/ftP/RRrb/l38v1K6HY0UUViSFFFFAHN+P8A/kQde/68pf8A0Gp0/wCRGH/YN/8AadQeP/8AkQNe/wCvKX/0Gp1P/FDD/sG/+06pfCvUfQwPg7/yTHS/rL/6Mau7rg/g5/yTHS/rL/6Mau8on8bB7i0UUVIgooooAKKKKACkzSGkbigBCaVX5w3BoBwm6gMJBgjmgBrBg2Qc05xyKFYjg9qOpzQAAU7pSiigDyr4qeLdV0/ULDw9o9wbSe6jM01yo+ZUBIAX0PB5rh9M8Xa94O1O1u7rWLrUdLklCXMNyxcgHqy56EdeK9N+IngK48Um01HS7iO31WzBVDJ9yRD/AAn0/wDrmuS0P4V+INQ1i1uPE72kNhayCT7NA28zEdAfQV6dCphlh5Ka94wmq3tYuLXL1R2I+MPggf8AMY/8gSf/ABNL/wALh8D/APQXP/gPJ/8AE11f9i6X/wBA2z/78L/hS/2Lpf8A0DbP/vwv+FefzU+zOjQ5P/hcPgj/AKC5/wDAeT/4mj/hcPgj/oLn/wAB5P8A4mus/sbS/wDoG2f/AH4X/Cj+xtL/AOgbZ/8Afhf8Kd6fZ/eGhyf/AAuHwR/0Fz/4Dyf/ABNH/C4fBH/QXP8A4Dyf/E11n9jaX/0DbP8A78L/AIUf2Npf/QNs/wDvwv8AhRen2f3hocn/AMLh8D/9Bc/+A8n/AMTR/wALh8Ef9Bk/9+JP/ia6v+xdL/6Btn/34X/Cj+xdL/6Btn/34X/ClzU+zDQz9D8Z+H/EpKaTqkNxKBkxcq4H+6cGt+vNviH4Ksl0efxFo0Men6zpqm5jntlCbwvJDAdeM12PhbV/7e8L6bqjJte5gWRgOzY5/XNKUVa6BrqjYrzY/wDJwK/9gb/2avSa82P/ACcCv/YG/wDZqdPr6Aj0kVyXxO/5Jvrv/Xt/7MK62uR+J/8AyTbXf+vb/wBmFTH4kC3NDwd/yJehn/pxh/8AQBW4d2QRWL4OH/FFaH/14w/+gCtselEt2JgQpOD1pORxuzSY5pwFIAArndc8deGvDk3kanq0MM5/5ZLl3H1Cg4/Gm+PNdl8N+C9T1O3/AOPiOMLET2diFB/DOaxvA3gPTNM0aC9vraK91a8QT3NzcoJG3MM4GegGfxqoxVryGl1ZJ/wuHwR/0GD/AOA8n/xNJ/wuHwR/0Fz/AOA8n/xNdZ/Yul/9Ayz/AO/C/wCFL/Yul/8AQNs/+/C/4U+an2YaHJf8Lg8Ef9Bj/wAgSf8AxNcZ4v8AiTN4i1C30fwlqbwWxjMl1eIhV/8AdXIBH4etev8A9jaV/wBAyz/78L/hXC+OvhzNq11b6t4da2s9Rt0MbRMu2OZOuDjoa1oSpKonNaGlJwU05rQ4vw/4n17wt4j02G71a41LTL6dbeRLltzRsxwGUmvfAa8f8NfDTXbjxBZ6n4nltY4LJxLDa27bt7joSfTvXsNXjJUZVL0tisTKm6jdNaC0UUVyGACuQ+KH/JNdc/69/wD2YV14rkPih/yTXXP+vf8A9mFOPxIa3NTwf/yJmif9eMP/AKAK2HdUUs7BVHUk4ArH8H/8iZon/XjD/wCgCpvEGiW3iPRLnSrxpVguAAzRNtYYIPB/Ch/FqHUufbrX/n6h/wC/go+3Wv8Az9Q/9/BXmn/Ch/DH/P7qn/f5P/iaD8B/DH/P7qn/AH+T/wCJrTlp/wA34BZHpX221PS5h/7+Ck+3Wp6XMP8A38Febr8DfDUfH23VMf8AXVP/AImnH4HeG1UlLzU+f+mqf/E0uWn3/ALI9GF7ag83MIz/ANNBQby1HAuYeep8wV5wvwP8NuCDean/AN/V/wDiaQfA7w7jH27VP+/qf/E0ctPv+AWR6YssTJvSRWUdWDZFMF9af8/MP/fwVy+k/DzSNI8NahoME949rfZ81nl+cZGOCAAOnpXO/wDCh/DP/P8Aap/39T/4mklDqw0PS/ttr/z9Q/8AfwUfbbX/AJ+of+/grzT/AIUP4Z/5/tV/7/J/8TR/wofwz/z/AGq/9/k/+Jp8tP8Am/ALI9NS6t5W2xzRu3orAmke7t42KvPGjdwzgGuH8PfCXQfDWtwaraXOoSTwZ2LLKNvII5AAz1qPW/g9oGvazdapc3WopNcvvdY5V2g+2VNTaN9w0O+jnimz5cqPjrtYHFMN7bAkG5hBH+2K5bwp8OdH8ISXklhPeytdRiN/OlBwvtgDn3rn3+BHhh3ZvtuqjJJx5y//ABNCUL7hoek/brX/AJ+Yf++xR9utf+fmH/vsV5p/wofwz/z+6r/3+T/4mj/hQ/hn/n91X/v8n/xNVy0/5vwHZHp0dxDMSI5UcjrtYHFMa8tVYq1xECOCC44rk/Cfw00bwfqMt7p1xeyzSReURPKCAMg9AB6ViXHwP8NXNzNO15qgaVy5AmU4JOe65pWhfcVkej/brX/n5h/77FH261/5+Yf++xXmn/Ch/DP/AD+6r/3+T/4mj/hQ/hn/AJ/dV/7/ACf/ABNPlp/zfgOyPS/t9p/z8w/9/BUjTRJH5jSIEPRicD868x/4UN4Y/wCf7Vf+/wAv/wATXRaj8O9H1TwnZeHJpr1bOzIMbJL85Iz1JGD1Papaj0YtDqBfWpOBcw5/3xVgmvLR8CPDAYH7bqhwf+ey/wDxNemQQrb28cKZ2RqEXJycAY5NKSivhYO3Q4H40gt8PZAB/wAvUP8A6FW/Cf8AR48/3B/KsP4yE/8ACv5AOv2qH/0KuggIe3j3L0Ufyq/sL5iew5wTGNv6VxtkS3xzUMP+YSf512YBQcHI964qzct8eFXoP7JP86qHX0CJ6gBRTgKKxAXtXm/wa/5F7WP+wvP/AOy16R2rzf4Nf8i9rH/YXn/9lq4/BL5DWw3wN/yVHx3/ANdof5GvSzXmngb/AJKj47/67Q/yNelmnV+L5IHuFFFFZiCiiigCteXUFjay3dzIsUESF5HY8Ko5Jr538UeKr/x9fuWeS20CJyILYHBmx/E/+eP1rufjXrEi2GneHbeQq2oSF58f88l7fif5V57HGsSLHGoVFGAB6VyYzEOhBKPxS/BH0WQ5bDESdaqrxj07sSGGG3jEcUaoo6KBin859q0PA3gO08b2+tXNzfXVte210I4JYm+VRjPK9/zFQ614S8V+E9z3dp/adgv/AC9Wgyyj1Zeo/wA81yVMuqNcylzPqv63Pao59hlUdGceVLRdinJEsyFJEV1PUMM1JoGv6j4Bvxd2DPPpDt/pVkzZAH95fQ/5NVLPUbW9X9zKC3dDww/CrLKHUqwyCMEHvXPRr1cLUs1p1TO/FYPD4+jpZ9mj6K0zUrXV9Mt9QspRJbzoHRh6H+tXa8c+C+rSWt7qvhmViY4sXNqD2UnDD9Qfzr2HNe9pvHZ6n5xXpSpVHTlunYfRRRQZhRRRQB5t8T/+Rg8D/wDYXX/2Wphrdl4S8ea/Lrbva22opbyW1w0bNG+xCrLkA4I9Kh+J/wDyMHgf/sLr/wCy1raz4rvItcl0XRtFXU7m2jWS5eWYRRxbvujJByxHNbfZS/rcroS/8LN8Hf8AQdg/74f/AOJpf+Fm+Dv+g7B/3w//AMTWd/bvi7/oT9O/8GC//E0f274t/wChP07/AMGC/wDxNHIv6aFoaP8Aws3wd/0HYP8Avh//AImj/hZvg7/oOwf98P8A/E1nf274t/6E/Tv/AAYL/wDE0f274t/6E/Tv/Bgv/wATS5F/TQaFXxZ440DW/C+o6TpF6b/UL2E28FvBG5ZmbgduB712E0DW3hGS3kxvisCjY9RHg1yk3jHXdGiN9q3hWGGwjx581reLI8a9227RkD612OpyJN4fvJI2DI9q7KR3BQ4qWrWSA8f+H3hvxfqHguyutJ8XHT7Ry/l232YOFwxB59zzXS6b4q8SeF/EVpoXjLyLiC+bZZ6pAu1Wf+644wf881ofB3/kmOl/WX/0Y1UvjWqjwRFNj97FfQtG3dTk1bfNNxaK3dj0kUtRQMWgjZupUH9KlrEgKKKKAGk4FcHqPxe8JabqElm11POYm2yS28JeND7t/hmuk8UR3cvhbVY7HP2prSURbeu7acY968j8F32g2/gyGKWW1gdFIu45iAxbPO4Hk1zYrEfV6fOouWtrI3oUVUbTdj2jTtTs9XsIr7T7hJ7aYbkkQ8GrnBGCeTXl/wAGI5o9B1SVUkj06XUHazV/7nGce3+Br050LEEV02MZKzsKPlG1unagBV5FL/B83JpAKBABk07gUdKRuhoBmdPrumW0rRS3sKyKcMpbkVbt7mC7hEsEiyRnoynIryHUP+QjdevnP/M0QeNte8Op9j0zwvc6pAfnM8YfAY9V4UjsPzr0a2BUKalF6ngZfm88VinQlFJa/get3N7b2UXmXMyRJnGWOOahtta068mEMF3E8h6KrcmvKLjxdrXiUCPVPDk+kpF8yNJu/eE8Y5UVHHf3Olut/aWbXlxD88duucyH0GATRTwKlS529dQxWb1KONWHUVa6X3ntRIrMk1/So5Gje/hDqcEFuhrzL/hani9hg+ALwZ74k/8AiKpFi53MME8kelRhsH7W/M7WNs3zKeBUOSKfNffyse0wzR3MKywuskbDKspyDUV3qFrYIrXU6RKxwN5xmvJYfHniHQo/sGn+E7rUbZOVuED4JPJHCkcUyfxRq3iZlfVtBm0ryOI1k3fvM9T8wHTFTDCN1eRvQ1r46dPArFKOrSdvU9YtdXsL2UxW11FI4GdqtzirhIUZJwBXjEWq3miSDULDT3v7mL7tsmcvng9ATxnPSrDfE/xZOpik8B3kaSDYzkSfKDwT9ztRXwns5qMXoLLMfPF4eVaSSabX4XPTW8Q6SjENfwgg4PzVoxyJNGsiMGRhkEHIIrxYDNWoviH4m0iNbCy8HXN9bw/KlwgkxIOueFIrTE4JU4pxdzmynNqmNqypzilZX09T0DxpcxJ4U1W2MiiaezlSKMnl2KkAAVR+G00cfgbSNPdwt1BbgSwk/MhyeoriJ/EWp+I5Bc6po0ulyxjYsMm7LDru5A9SPwpINb1Dw/J9u03S5NSuMbPs8eckHqeAelWsEvq/NfXcmWcVI476ryq10r9T2ZmCKWYgADJJ7V5kbuD/AIXWNU81fsP9l+T9oz8m/d93PrWY/wASPFOoRtZ3Hgm7tYJxsedhJiNTwW5XtVSpwuD9om5M1zbNamBnGEIp3XU9qVg6hkIKmuR+JM0cngXVrBHVrue3xFCD8znI6CuOT4k+KdPjFnbeCby5ghHlxzgSYkUcBuF71DNrl/r7/bdS0qTTLjGz7PJuzgdDyAeazoYRyq8reiN8fjp4bCxxEUm3b8T0bwZcwv4U0q3WRDPBZxRyxg8qwUAgit6SVIo2kkYIijJJOABXjkHiPUvDbm50rRZdVllGxoo92VHXPAPpUkvxC8S6vG1heeDrqxtphte4cPiMdcnKgdqVXCuNbkT0DCY+VbBPEtapPT0PT18QaSWCi/gJJwPmrUByM54rxPtVxfif4sgUQx+BLyVIxtWTEnzAcA/c71eJwapW5XcwyjM6mOclOKVrbeZ0HxakS68DX+nQESXkhjZYVOWIDgk4+ldboV5Bc6TbLDMkhjhRWCnO07Rwa8om1a81qU6hf6e9hcy/etnzlMcDqAe2a7D4fn99e/7qfzNVVwahh+e+u/32MqOcTqY54VxVrtX66HeUUgpa84+gCiiigAooooAKKKKAAVyHxQ/5Jrrn/Xv/AOzCuvFch8UP+Sa65/17/wDswpx+JDW5qeD/APkTNE/68Yf/AEAVf1C+i06yku5gxjjxkKMnriqHg/8A5EzRP+vGH/0AVsuAwIIBHoaJbsTOY/4TvSyDiK6/74H+NIPHWlsQPKuv++B/jXSLDFnHlIf+Aika3iVgwhTHf5RRoI50+OdIB2mO5z/uD/Gg+ONLjx+7udp/2Bx+tdC1rC/zCKP/AL5FKYIQoXyk/wC+RRoBzp8daSvSO5yfRB/jV678RWVlp9teyrMY7jlAqc9O9agt4f8AnlH/AN8inmNGGGVSB0BFGgHNf8J3pX/PO6/74H+NaB8R2Q0YamVm8gtsxs+bP0rU+zw/88o/++RS+WmzZsXb6Y4o0Gc3/wAJ3pX/ADyuv++B/jR/wnelf887r/vgf410fkQ/88o/++RR5EP/ADyj/wC+RRoI5z/hO9K/553X/fA/xo/4TvSv+eV1/wB8D/Guj8iH/nlH/wB8ijyIf+eUf/fIo0Ay7nxHZWumW+oSLMYZzhAE5/GqH/Cd6V/zyuv++B/jXStGrLtZVK+hHFN8iH/nlH/3yKNAOc/4TvSv+ed1/wB8D/Gj/hO9K/553X/fA/xro/Ih/wCeUf8A3yKPIh/55R/98ijQDnP+E70r/nldf98D/Gr+oeIrLTbe2mmExW4Xcm1Occdc9OtankQ/88o/++RTmjRgAyqwHqM0aAc1/wAJ3pX/ADzuv++B/jR/wnelf887r/vgf410fkQ/88o/++RR5EP/ADyT/vkUaBqc6vjrSmdVEd1knH3B/jVzVPEtlo86Q3CTMzJvGxMjH51reREDkRIP+AilaJH+8itj1GaNAOb/AOE70onHlXX/AH7H+NdIjCSNXXOGAIzSeRDn/VJ/3yKkpaDPO/jQdngBz/09w/8AoVdHGSLaLHQqP5VznxrH/FvZP+vuH/0Kuigz9miH+wP5Vp9hfMHsOAOMZ4ri7P8A5L4v/YIP867YCuKs/wDkva/9gg/zqodfQInqlFFFYgJ2rzf4Nf8AIvax/wBhef8A9lr0jtXm/wAGv+Re1j/sLz/+y1cfgl8hrYb4G/5Kj47/AOu0P8jXpZrzTwN/yVHx3/12h/ka9LNOr8XyQPcKKKKzEFFFFAHg/wAVXZ/ifZI/3Y9OBT6lmzWB1rr/AI02DWutaFrwH7nDWkzemeVz+bflXIV5GZxfPGXS35M+74bqReFcVumd58Df+PLxF/1/j/0GvWSK8Y+EOsabo+leI7jUr2C1iW+BJlcL/D6d6n134zNcM9r4U09rhhwb25G2Me4Xqfxx9K9d7cz0Vlr8j5CrRnVxEowV3dnReNPAHhLUoJdRvzHpM6jJvYXEXP8AtDo3868XsJSLu+tor0X9rBJshu9hXzR64NT3yajrt19r8QalNfy5yIy2I09gvT+VWI40iQJGioo6ADArzcbi6U4ckfefft6dT6nJsqxOHkqlWVl27+prfDxmj+LVkB/y0spQ/wBME/0FfQI7V4d8IbFtQ8b6prGMwWUAtkbsXY5P6A/mK9yrupJxpRT3sj5rNakamLnKO1xaKKK0PPCiiigDzb4n/wDIweB/+wuv/stWNM/5KF4u/wB61/8ARVV/if8A8jB4H/7C6/8AstWNM/5KF4u/3rX/ANFVuvg+X6lPY6OiiiszMKKKKAMHxt/yI+t/9ecn8q6BP+RHH/YO/wDadc/42/5EfW/+vOT+VdAn/Ijj/sHf+06b+FepS2Of+Dv/ACTHS/rL/wCjGqn8bjt+HrHHS8hP6mrnwd/5Jjpf1l/9GNVT42f8k/P/AF+Q/wAzVL+L8yvtEMXxetFhRf8AhGPEJwoGRae31p5+MemR/Nc6Br1vCPvSvacL9ea9Et/+PaL/AHB/KnsoYEMAVIwQR1qeaHb8RXRm6H4g0zxHpy3+l3aXEDHBK9VPoR1BrUxXlkdlH4R+M9nb6YoisNdtnaa3ThVkTJ3Adun6mvU+1ROKW2zBoRq8k8b+GtGl+I/hdDp8AW/lk+1KowJsAEZAr1s15x42O34oeBveWYfoKqk2np5gj0G2tobW1jgiijiijG1I0XCqPQCpcbRwaGGTQAKgQAEnmnCgVHLMkMTyyMFRFLMx7AdaAKGta7pnh+wa91S8jtoBxlzyx9AOpP0rzi5+PGjecyWWkajdRr/GAq5/DmsTQdMl+LvjC71zWDJ/YVlJ5VtbAkB/RfywWPuBXtNlptjp1utvZWkNvCowEijCgflWrUIaS1ZWnU+dbnx8k91NMNHvQJHZgPTJz6Vv6D8YIdGsWgbw9fykuWyGA649vavddi/3R+VJsU9h+Vb1MW6keSS0POoZbhaFX2tONpep4N4g+LkWtxQovh++h8pi2WYHOfwrJ034iJYahBdHRb1xG+7aOM/pX0hsXso/KkEa+g/KiGLcIezS0HVy3C1a3t5R97Tr2PHm+O9uylf+EZ1DPr5g/wAK4lvHYYsf7IvOTnp/9avpjYv90flSbF/uj8qVHFexvyrcvF4HD4q3tY3ttqeH6J8ZodJ05LRvDt/KVYncHA6nPpVHxF8V4tckgZdBvofKBHLA5zj29q9+2L/dH5UbF/uj8qUcQo1PaJalTwlGdBUJR93Tr2PnXSPiRHpmpRXb6LeyCPPyg4zkEeldPN8dIJoHjHhnUBvUrnzBxkfSvY9i/wB0flS7F/uj8qKmJVWXNKOoYfCUMPTdOnGyfmfM/wDwnS/9Ai8/L/61dXpfxqt9O02G0Phy/kMS43BwM859K9s2r/dH5UbV6bR+VOri3VVpIywuXYbCzc6UbN6bs+fdf+KMetXkc66FfRBV24Jznkn0qPRPibHpGoi5bRL2QBCu0HHX8K+hyi/3R+VGxcfdH5U1i2qfs7aCeW4V1/buPvXvueLX/wAb7e8sZrceG79TIhXJcHGR9K5D/hOlxj+yLz8q+l9i/wB0flS7F/uj8qVLFeyVoorFZfhsVJSqxu15ni9h8b4LKxgtj4bv2MaBdwcDOB9KwNc+Jser6j9qXRL2IbAu0nPT8K+htq/3R+VGxR2GPpSp4lU5c8Y6mlfCUa9JUZx91efY+ffD/wAUo9Eu5J20K9mDJswDjHOfStfVfjVBqWmT2Y8OX6GVcbi4OOfpXte1f7o/KjYvoPyoniFOftHHUKWEoUqLoQj7rv177nzR/wAJ0n/QIvPy/wDrV2dv8creG3SL/hGtQJRQM+YOcDHpXsuxf7o/Kjy19B+VOri/bW5lsRhMBh8K26UbX8z501f4kR6pqct2NEvYxJj5Sc4wAPSr3hz4rQaJJO0uh38vmgAbcDGM/wCNe+bFx0H5UbE/uj8qcsW3T9m1oRDLcLCv7eMfeu3u+p55oHxl8M6zcraXDT6bOxwougAhPpuHA/HFeiKwYAggg9CK5fxX4D0TxbZSR3drHFdEHy7qNAJEP17j2Ncf8Kdc1DT9V1HwPrMhe50/JtnY5ygPK/TkEexrncYyXNHp0PRsmtD1uikB4pazJCiiigAooooABXIfFD/kmuuf9e//ALMK64VyPxQ/5Jrrv/Xv/wCzCnH4kNbmn4QP/FGaIP8Apxh/9AFXtSN4LGX7Bs+04+TzOnWqPg8/8Udon/XjD/6AK2GcKcNjHqaJbsTOVT/hMirf8emf+A0kf/CaBsEWuP8AgNdT5kQOVmT6bhR9oizjzIwf94UCOWZfGQb5fsvv92gDxp/06f8AjtdSJ4f+e0f/AH0KUTREgCVCfQMKLgZVgNd/s65+2/Z/tfPkY6dO+PeqVmPFn2qL7V9k8jcPMxj7vfpXSNLGhwzqpPqcUGRAm8uoX1zxRcZhar/wkn20/wBmfZvs2BjfjOe+c1S/4rT/AKdP/Ha6jz4f+esf/fQo+0Q/89o/++hQI5f/AIrT/p0/8do/4rT/AKdP/Ha6j7RD/wA9o/8AvoUvnw/89U/76FAHMRDxh5yeZ9k8vcN3Tp3q9rA8Q/ak/sryPI2c78Z3fjW00iJjeyrn1OKFkRxlWVgPQ5ouM5X/AIrT/p0/8do/4rT/AKdP/Ha6jz4f+esf/fQo+0Q/89o/++hQI5f/AIrT/p0/8do/4rT/AKdP/Ha6j7RD/wA9o/8AvoUefD/z1j/76FAHL/8AFaf9On/jtGPGn/Tp/wCO11TSIgBZlUH1OKb9oh/57R/99CgDKuBrv9iw+R9n/tHI83P3cc9P0rM/4rT/AKdP/Ha6j7RD/wA9o/8AvoUfaIf+eqf99CgDJ0b+3/Ol/tXyPL2/Jsxnd+Has5x4y8xtv2Pbk4xjpXUtIiqGZlAPcmm/aIf+e0f/AH0KLjOXH/CZ5H/Hp/47XVR7/LXzMb8Ddjpmm+fD/wA9U/76FS0gPOvjX/yTyT/r7h/9Cro4P+PeL/cH8q5z41/8k8k/6+4f/Qq6OD/j3i/3B/KtPsL5g9iSuJs/+S9r/wBgg/zrtq4mz/5L2v8A2CD/ADqodfQInqlFFFYgJ2rzf4Nf8i9rH/YXn/8AZa9I7V5v8Gv+Re1j/sLz/wDstXH4JfIa2G+Bv+So+O/+u0P8jXpZrzTwN/yVHx3/ANdof5GvSjTq/F8kD3FooorMQUUUUAYnifw9beKNAutJuuEmX5X7o45Vh9DXzwYr3Q9Sk0PWEMV5AdqOfuzL2ZT3r6grnfFXg/SPF1iLfUrfMiZ8q4j4kiPsf6His6tKNWHJP5Psd+X5hUwdTnjquq7nz9Jo9jcXfnywAyE5PPBPuKvGIQqFVQqDoAMAVuaj8LfF2jyEaXNb6vag/KHby5QPx4P51mDRPGG7yZPCl2X9Qw2n8a82rgcS7R5rpba/oz63D5zl6vNe63voQsoCqR1NZ80l1e3sWkaVEbjUbg7FVP4PUn0xXV6f8NvF+s7FvTb6TbHqS2+THsB/iK9P8J+B9G8H2zLYRNJcyD97dS8yP+PYewrXD5eoS56rv5L9TizDiGLg6eH3fX/Im8FeF7fwj4bt9MiIeXG+4l/56SHqfp2HsK6SkFLXotts+QbuFFFFABRRRQB5t8Tv+Rg8D/8AYXX/ANlqOTU7LQPiJ4h/ta5js0vkt5raSc7UkCptbDHjIPapPid/yMHgj/sLr/7LWr4i8S2iaqdHh8Pya5dwoJZo1VNkAbpln4yfStl8KX9bldCL/hMfDX/Qe07/AMCF/wAaP+Ex8Nf9B7Tv/Ahf8azv7Wk/6Jifzt6P7Wk/6Jifzt6fKv6aFZGj/wAJj4a/6D2nf+BC/wCNH/CY+Gv+g9p3/gQv+NZ39rSf9ExP529H9rSf9ExP529LlX9NBZFbxd4p0O98KajZWWqW13d3UJgggt5A7u7cAACu5lhe38HvBIMSR2BRh6ER4NceviqDR5Fvb/wLLplshAe8jWFvKB4yQvOK7nVHWTQL10IZWtZCpB6jacVMtLIDkvg86r8MdMBIGDL3/wCmjVjfEjVbfxReaZ4L0iRbm8nu0lumiO5YI15O4jv3/D3rG+Hnwx0LxF4KsdTvpb8TzFwyxXJVeHI6Y9BXqPhzwhofhWF00mxSFn/1kp+Z3+rHn8KqTjGbfUbsmbiKERVHQDAp9FFYknm3in/ktHg7/rhP/I16RXm/in/ktHg7/rhP/I16RWkto+g30CvNvHI/4uh4F/67TfyFek15v45/5Kh4F/67TfyFKn8X3gtz0fFLS0jVAjlb7xrbWV7LbfZZXMTFSwIAJHWsLxL45in8L6rDHaSo8lpKgbcOCVIzVHxNp91YXeoX9zDss1cyNMfuhSep/Ouf1Cyub7wjeahbQvLZvbSOsyj5SADzXsQw+H9mpdfU+QeYZl9Z5bPl5rbdL+h1/wAEo1T4b2zKMF7iUsfU7sf0Fdvqup2ujaTdaleyeXbW0ZkdupwP69q4v4Kf8k1tP+u83/oRqb4xkj4Zalju0Q/8iLXmSjzVbeZ9g3qcn/wt3xNqBabSPC0bWZP7t55DuYevGB+VL/wtLxz/ANCpaf8Afxv/AIqodHULodiAMAW6cD/dFXOte1HL6NkfE1+J68KkoxgrJvv/AJkP/C0vHP8A0Ktn/wB/G/8AiqP+FpeOf+hVtP8Av43/AMVU6qzsFUEseAB1NXRo2omPf9imx9OfypSweHj8WgU+I8bU+Cmn6Jv9TL/4Wl45/wChVtP+/jf/ABVH/C0vHP8A0Ktp/wB/G/8AiqmdGjYq6lWHUEYIpuKr+z6Jn/rRilvBfj/mR/8AC0vHP/Qq2n/fxv8A4qj/AIWl45/6FW0/7+N/8VT6KP7Poi/1pxP8i/H/ADI/+Fp+OP8AoVbT/v43/wAVR/wtPxx/0Ktp/wB/G/8AiqfRR/Z9Ef8ArTif5F+P+Yz/AIWn44/6FW0/7+N/8VR/wtPxx/0Ktp/38b/4qnYOMihRuOKX1CiP/WjE/wAi/H/Mb/wtTxx/0Ktp/wB/G/8AiqP+FqeOP+hVtP8Av43/AMVQTzS0/wCz6If60Yn+SP4/5if8LU8cf9Craf8Afxv/AIqj/hanjj/oVrP/AL+N/wDFUtJR/Z9EP9aMT/JH8f8AMX/havjj/oVbP/v43+NJ/wALV8cf9CrZ/wDfxv8AGkpaP7Po9g/1oxP8i/H/ADD/AIWr44/6Faz/AO/jf/FUv/C1fHH/AEKtn/38b/GmUUf2fR7D/wBaMR/Ivx/zH/8AC1fHH/Qq2f8A38b/ABpP+FreN/8AoVbP/v43+NNpKP7Po9g/1nxP8i/H/Mcfip42P/Mq2f8A38b/ABrc8JfFObVtcj0TXtL/ALNvph+4ZWJSQ+nPQ/nWFng8Vgalx418JsOG+3qM/wDAlrGvgacabaPQy3PauKxEaM4pJ32v2Pok8jFeI6/fpo37QcV35ZYG0G9VOC2YyP6Cvbs14P41t5br46QwwRtJI1qmFXqfkavNwyTqWlsfQ4mc4UZyp/Ek7ep6P/wn1vj/AI8Zv++hWzoeuRa3FJJHG8ZjYBlbnr715ZcxvZ6pb6XcqYr65GYYG+8456fka9A8Gabd6fBctdRGIyMu1W68A/412Yqhh4UnKG/qfOZbjcwq4iMK6fLr0t0OtFFAoryz6kKKKQ0AFcj8UP8Akmuu/wDXv/7MKxPEuva7r3ixvCPhadbN4IxJqGoEZMIPRV9+f17YNc/41+HU+leDNU1GfxVrV7JDFvaKab93IcjqPStYQSabZSWp6d4R/wCRN0T/AK8Yf/QBWhfWcWoWMlrNu2OMHacH1rP8ID/ijNE/68Yf/QBWhqF9Hp1lJdShzHGBkIMnriol8TJZgDwNpmcmW6z/AL4/wpw8CaUest1/32P8KaPHemf88Lr/AL5H+NL/AMJ5pn/PC6/74H+NHvC0Hf8ACCaV/wA9br/vsf4U6HwTpcM0cqyXJZGDAGQdR+FM/wCE80z/AJ4XX/fA/wAaP+E80z/nhdf98D/Gj3g0L2qeGbHV7kXFy0wcLt+R8DH5U+fw9Z3GkQ6Y7TeREcqQ/wA2eep/Gs7/AITzTP8Anhdf98D/ABq9pniOz1SO4eFJlEC723r29sfSlqGhS/4QTSv+et1/32P8KP8AhBNJ/wCet1/32P8ACm/8J5pn/PC6/wC+B/jS/wDCeaZ/zwuv++B/jT94NBf+EE0n/nrdf99j/ClHgXSlYHzLo4Of9YP8Kb/wnmmf88Lr/vgf40f8J5pn/PC6/wC+B/jR7waGhqvh2y1d4nuGmBiXaux8cUaZ4estLjnSBpmE42vvft7Y+tJaeI7O9025vo0nEdv98MnJ47etUP8AhPNM/wCeF1/3yP8AGlqGgv8Awgmlf89Lr/v4P8KP+EE0r/nrdf8AfY/wpP8AhPNM/wCeF1/3wP8AGk/4TzTP+eF1/wB8D/Gn7waDv+EE0r/nrdf99j/Cj/hBNK/563X/AH2P8KvDxJZtox1Ty5/JDbNuz5s1n/8ACeaZ/wA8Lr/vkf40tQ0NLUfD1nqdvbwzmYLbjamx+cYA5z16Vn/8IJpX/PS6/wC+x/hWxpOrW+sWxnt1kVVbaRIuDmr9F2gOX/4QTSv+et1/32P8KX/hBNK/56XX/fwf4V1FJxRdhYyL3w9Z32nW1lK0wit8bCr89Mc+tZ//AAgmlf8APS6/77H+FdPmjNF2OxzH/CCaUD/rLo/9tB/hXSxxiONUXOFGBk5p9FK4HnXxr/5J5J/19w/+hV0cH/HvF/uD+Vc58a/+SeSf9fcP/oVdHB/x7xf7g/lWn2F8wexJXE2f/Je1/wCwQf5121cTZ/8AJe1/7BB/nVQ6+gRPVKKKKxATtXm/wa/5F7WP+wvP/wCy16R2rzf4Nf8AIvax/wBhef8A9lq4/BL5DWw3wN/yVLx3/wBdof5GvSs15X4VhnuPiB8Q4La5NtPI0axzBQxjYq2GweuKsjwL44/6KHc/+Aw/xqpxTlq7bfkNo6zxR4v0nwlaRz6nMwaU7Yool3SSH2FUPDHxD0TxTeSWNsbi2vkXcba7j8tyvqPWvPdU07U/BPjjRde8V6jPremojxfajD/x7Oeny8/XP+FO1y9j+Ivj3SD4OuZIJbGN2uNXSEgRgjgc4z3HP96qVONv1CyPbRS15r/wgvjj/oodz/4DD/Gm/wDCC+OP+iiXP/gMP8az5I9/zFZdz0ukJrzU+BvHH/RQ7n/wGH+NSf8ACE+NkUZ+IFwT/wBew/xo5I9/zCy7noq859aZtYtjvXnv/CD+NiNy/EC4B/69h/jR/wAIV42I48fXA/7dx/jRyR/m/MLLuejZIGDyaAK82/4QXxyef+Fh3H/gMP8AGj/hBPHP/RQ7j/wGH+NHJH+b8wsu56XRXmv/AAgnjn/oodx/4DD/ABo/4QTxz/0UO4/8Bh/jRyR7/mFl3PSqK81/4QTxz/0UO4/8Bh/jR/wgnjn/AKKHcf8AgMP8aOSPf8wsu56VRXmv/CCeOf8Aoodx/wCAw/xpP+EE8c/9FEuf/AYf40cke/5hZdx3xP8A+Rg8Ef8AYXX/ANlqzpf/ACULxd/vWv8A6KrJ8b2l3Y3Xw+tb69a+uo9UVZLllCmQ8c4HStbS/wDkoXi7/etf/RVX9n+u43sdHRRRUGYUUUUAYPjb/kR9b/685P5Vvp/yIw/7Bv8A7TrA8bf8iPrf/XnJ/KugT/kRx/2Dv/adN/CvUpbHP/B3/kmOl/WX/wBGNXd1wnwd/wCSY6X9Zf8A0Y1d3U1PjfqN7i0UUVIjzbxT/wAlo8Hf9cJ/5GvSK838U/8AJaPB3/XCf+Rr0itJ7R9BvoFebePGEPxJ8Cyv8sf2iVNx6ZIUAV6TXM+NvCcPi7RPshmNvdQuJrW4XrFIOh+lTBpS1BbnTZoJrzC38S/EXRYhZ6j4SGrSRjaLu1nCiQDuRjr+Aqb/AITvxrn/AJJ3d/8AgSP8Kfs5eX3gbHxPI/4VvrgGM+QOP+BCsDQ/+TfSO/8AZc/H/fdZN5e3eoTyTX0LwSyHMlu7bvLP933xWVrTMugXyKSF+zvwDx0NenHAP2avLzPmv9Ykq3seTra9/O3Y7j4K/wDJNLT/AK7zf+hGpvjJ/wAky1L/AHov/Ri1D8Ff+Sa2n/Xeb/0I1N8Zf+SZal/vxf8Aoxa4P+X3zPpepx2j4/sWxJ/590/9BFatjYT6hcCGFcnqSeij1JrL0ZS+i2CjkmCMAevyiuvnMWgaZNZLIzX9wo3lRwg9M/nX0FWo4pRj8T2/z+R+YU8PGpWqVKmkIt3/ABsl5sTfaeH4GME8VzqBO0MBkRjvWWdc1Iy+b9tl3fXj8ulUkR5HWNFLOxwAByTW/P4Su4tNWcNvnA3NEB29vU1i40aT/eu7ff8ArY2jPFYmL+rRcYQ6Jv8ApsUXNjrtsovpo7W9Q7RKBw496xtS0+bTbowy4ORuVl6MPUVVPfPFdFYTnWtNnsLpVaWCPfDLjkAdqpp0Pej8Pbt6CjKOOXJUVqnR97dH5+ZzZpKKK7DyGFITQaaaQ0h6OVHP3fX0pwQBww6GmyEogA702NyBzyv8qk0Q8xEnO6mH5TjOaHIDfKfyptNEsWkoopiCkoooGFFFJSAKSiigYVhan/yOnhP/AK/1/wDQlrdrC1L/AJHTwn/1/p/6EtYYn+FI9jIf9/h8/wAj6JxyK8c1A4/aSsM/8+o/9FPXsecV4H47JX44REHB+yp0/wBxq8DDw558vc/QK1X2VKdS17Jv7jd8aEf8L08JFenlr/6E9eugjHbFeKsdzh25cdGPUVqaZ4k1/SY2j0rw/cayjHLlJtvlH05B6/0rrxGCcKalzbHiYHPVi68aPJa/W56zmjNebf8ACd+Nv+id3f8A4Ej/AApf+E78bf8ARO7v/wACR/hXB7KX9NH0Fj0jNITXnH/Cd+Nv+id3f/gSP8KT/hO/Gv8A0Tu7/wDAkf4Ueyl/TQWD4egHx348cjLfb0Gfb5q2/ih/yTXXf+vf/wBmFcz8J7q5vPEfjO5vLRrO5kvI2kt2bJjYhvlJrpvif/yTXXf+vf8A9mFVL+IvkN7mp4P/AORM0T/rxh/9AFbLKGGCAR6VjeD/APkTNE/68Yf/AEAVsM6opZmCqBkkngCs5bskTyIv+eSf98ijyIv+eSf98io7a8tryLzba4injzjdE4YZ+oqxmkBH5EX/ADyT/vkUeRF/zyT/AL5FSUUAR+RF/wA8k/75FKqKv3VC59Bin0UAR+TF/wA8k/75FHkRf88k/wC+RUlFAEfkRf8APJP++RR5EX/PJP8AvkVJRQAwIqjAUAHsBSeRF/zzT/vkVJRQBH5EX/PJP++RR5EX/PJP++RUlFADNi7du1dvpjimmGL/AJ5p/wB8ipaYTg0AIAqDCqAPQCnZ4oOGHFGCVHHNACg0tMAI604UALRRRQAUUUUAedfGv/knkn/X3D/6FXRwf8e8X+4P5Vznxr/5J5J/19w/+hV0cH/HvF/uD+VafYXzB7ElcTZ/8l7X/sEH+ddtXE2f/Je1/wCwQf51UOvoET1SiiisQE7V5v8ABr/kX9Y/7C0/9K9I7V5t8G/+Rf1j/sLT/wDstaQ+CXyGtij4c1Sw0P4q+Mo9VvIbJrlopITO4QOoHUE8dxXe/wDCYeGv+g/pn/gUn+NcZ4x8SfDeTWZLDxLClxeWp2km2clcjONw69a5z+1vgp/0D0/8B5qrk5tWmO1z1KXxV4XniaOXW9KdGGCr3CEH8M1HbeJPCNlH5drq2jwJ12xTxqPyBrzH+1/gp/0Do/8AwHloOrfBT/oHR/8AgPLT9n5MLHqv/CX+GzwNe03/AMCk/wAaP+Et8Oqwzrum8/8ATyn+NeWxar8GOSunJn/rhLW94d8PfDXxatw+laRDKLcgSb1kXbnOMZPsalwSV2mFjtG8WeHNpxrmmn/t5T/Gmjxf4akXB17Tc/8AXyn+NZg+GPg1Of7BtiD7t/jSn4YeCSD/AMU/a8+7f40v3fmLQ1P+Eu8NIuP7e03/AMCk/wAaQeL/AA1/0H9N/wDApP8AGssfC3wV/wBC/bf99N/jR/wq3wV/0L9t+bf40v3fmGhrf8Jh4a/6D+mf+BSf40f8Jh4a/wCg/pn/AIFJ/jWV/wAKt8Ff9C9a/m3+NH/CrfBX/QvWv5t/jR+78w0NX/hMPDX/AEH9M/8AApP8aP8AhMPDX/Qf0z/wKT/Gsr/hVvgr/oXrX82/xo/4Vb4K/wChetfzb/Gj935hoav/AAmHhr/oP6Z/4FJ/jR/wmHhr/oP6Z/4FJ/jWV/wq3wV/0L1r+bf40h+Fvgr/AKF61/76b/Gj935hoa3/AAmHhr/oP6Z/4FJ/jR/wmHhv/oP6Z/4FJ/jXl11ffBizu5rabTohLC5jcCCUgEHBqL+1vgp/0D0/8B5av2a7P7h2Nnx1rWm634s8F2ml31vezR6mJXW3kD7VGOTjp0P5VoW95bad8R/EsV7PHbvcpbSw+awUSKE2kgnrg8VR8KeJfhjaa3b2+gW8dvfXTCGNxbPkk9tx6Zr0LVNB0nW1QanptreeX9zzogxX6Z6UpNR0adgfYyf7W03/AKCNp/3/AF/xo/tbTf8AoI2n/f8AX/Gpf+EB8Jf9C5pv/gOtH/CA+Ev+hc03/wAB1pXgTZEX9rab/wBBG0/7/r/jR/a2m/8AQRtP+/6/41L/AMID4S/6FzTf/AdaP+EB8Jf9C5pv/gOtK8Asjm/G2r6cfBmqxJfW7yzW7RRxpKGZ3bgAAckk11zRvD4NaKQFXTT9rA9iI+ajtPBvhqwukubTQ9PhnQ5SRIFBU+xq/q5/4kt+P+neT/0E0OS0SGcn8HP+SY6X9Zf/AEY1d3XCfCAbPhppYPXMv/oxq7vNKfxMHuLRRRUiPNfFP/JZ/B//AFwn/ka9JrzL4kmTQ/E/hrxaY3ks7GVoLvaMlEfjd+p/SvQ7DULTU7SO7srmO4gkG5ZI2BBFXP4UxvZFuiiioEJikNOpDQBwXxD0y1sPCur63bx7L6KMOr5JG7IGcdK5+z0q11P4Ny61dIzXsmnzSMwYgbhuA4/CtXxrrQ1bStT8PrCUWUeUZyckEEc7fwrA/to6P8Mrjw8sAlWKyli84tgnIY5xj3r04U8T7Nb/AH9Dwnicq9rZpc9+3X19TpPgr/yTS0/67zf+hGpvjL/yTLUv9+L/ANGLUPwU/wCSa2v/AF3l/wDQqm+Mv/JMtS/34v8A0Ytcf/L75nvPc5DQnMWl6c46rDGw/ACuwvrGHX5vt1pdwo7qPMjkbBBArjNIP/Elss9fs6f+girmMHkV786TnaUXZo/MPrMac6lOpHmi3e17aq+tzpLLRb7TrgXMFzZb1BA3NkDP4VZN1e/2Lp8iXAE7XTguzfKeW6n0rkc+1bNzdQP4XsrZZAZkmYsncDn/ABFc9WhJyTlrd9vJnZhcbTjGSppxSTdr7u6289Cxc+Hru6uZJnubMM7biVfA/lSsbTQrCdIrhbi+nXYdnIRe/Nc5xnrxRn8q29hJpKUrrtaxyfXqULzpU7Sd9W27X7eYHpUc08dvA08rhI4wWZj0Ap2TjisPxGkmoRWWh2pP2nUp1i47LkZP8v1rapNQi5MwwWGeJrxpLq/w6kMfi+0nOYbHUZY+0iW5IP0qT/hKrUnb/ZuqZ/69zXu+m2Nvpdhb6fbpthgiWNAB2AxVry/myOleO8yn2Pt1w9gl0f3nglr4osbm8jspobm2lk/1f2iIqH+lbLOAu1a6T4uaEdT8HSX1uv8ApmluLqJh1wPvD8ufwrjtNvE1HTre8TpKgb6HuPzrvwmI9tF33PAzvK4YTlnSvyvTXuWaKKK7T50KSiikMGcRIzuwVVBJJ7Cuf/4TCzkLGCzv7iMHAkigJU/Q1pa4QNAvz38h/wCVemfDREHw40LaoA+zA8Dvk1w4zEyoWsj6XJMroYuEp1b6O2mh5CPFsOf+QXqn/gMa0tL1a01e3aa3ZvlO10cYZT6EV7uRzXgKqqfEHxaqgKv2wHAH1rLC42VafK0dmaZLhsPhpVad01bqadFFJXpnx4Vhal/yOfhP/r/T/wBCWtysPUf+R08J/wDX+n/oS1z4n+FI9nIv9/h8/wAj6LxXimu2UOoftEWdrcAmJ7UZAOOkbGva814d4n1A6Z+0BbXgjEhjtV+UnGcxsK8HDKTlaO9j9AqyhGnJz+Gzv6FzxLCmmfFPw/oVuNun3qAzITkk5YcHqOgr1XTdJtNKhaO0j2BjliTkn8a8o1if+2PHGk+JSvltp6hRADkPgk/e7fer0rQNeGuRSv5PlPGQCN2Qc/8A6q6MTTxCppz266nk4TE5bOqo4dJS9LG6OlLSClrgPZCkNLSGgDzf4dn/AIrjx5/2EF/9mra+J/8AyTXXf+vf/wBmFcrPqH/CufiRqV7qKOuha6VkF0qkiGYdQ35n8x6GtX4heJdD1D4b6zHaaxYzyS2/yJHcKWb5h0Gc1s03NNbaFdbnU+D/APkTNE/68Yf/AEAVj/FN3i+GuttGxU+SoyDjguoI/Ktjwf8A8iZon/XjD/6AKxviv/yTLWv+uaf+hrUR/iL1JPI9I0S+0yztNQ8O6rPp908KPIm7MchwDyv/AOuuy0j4t3emMlr4w0x7f+EX1qu6Nvcjt+H5VyieI9O0rSLKKSXzbgwIFghG5ydo7dq07Dwl4v8AGafv4U0PSpOpmXdNIvsvb8cVs1f49jx8FVxkpvmV4X3en3dz2uwv7XU7GG8sp0ntpl3xyIchhTTq+mg4OoWoP/XZf8ap6BoFp4f8O22iW5eS3hjKZkPLZJJJ+pJrmj8G/BLMSdLk5Of+PmT/ABrBKN3dns6HYf2vpn/QRtP+/wAv+NH9r6Z/0EbT/v8AL/jXH/8ACmvBP/QLk/8AAmT/ABo/4U14J/6Bcn/gTJ/jTtDuw0Ow/tfTP+gjaf8Af5f8aP7X0z/oI2n/AH+X/GuP/wCFNeCf+gXJ/wCBMn+NJ/wprwT/ANAuT/wJk/xotT7sNBmueO9Um8Qnw/4P02DU76OMS3E8smIYgegyDyenfvU3hfx5cXeq3eh+JrOHStYtVDkeYPLlQ91JP07mudPhnV/hv4mn1Lwtorapo95Csctokv72Jh3BOSR+fWnWHga88deIrvxD400r7JA0Sw2lgJSHUA/eYg/X8+lacsLeX4lWR6d/a+mf9BG0/wC/y/40f2vpn/QRtP8Av8v+Ncd/wprwT/0C5P8AwJk/xpf+FNeCf+gXJ/4Eyf41nan3ZOh2H9r6Z/0EbT/v8v8AjR/a+mf9BG1/7/L/AI1x/wDwprwT/wBAuT/wJk/xpD8G/BP/AEC5P/AmT/Gi0O7DQ7A6xpn/AEEbT/v8v+NIur6ax/5CFp/3+X/GuQHwa8En/mGSf+BD/wCNKvwd8Fxk402TB/6eH/xotDuw0OtOs6aGyNQtP+/y/wCNO/tfTWXI1G1H/bZf8a4//hTXggnP9mSf+BD/AONB+Dvglj/yDJP/AAIf/Gi0O7DQ6/8AtjTT11G0/wC/y/407+19M/6CNp/3+X/GuOHwa8Ef9AyT/wACZP8AGl/4U14J/wCgXJ/4Eyf40Wh3YaHYf2vpn/QRtP8Av8v+NH9r6Z/0EbT/AL/L/jXH/wDCmvBP/QLk/wDAmT/Gj/hTXgn/AKBcn/gTJ/jRaHdhodlDqNjO4jhvbeSQ9FSVST+ANW643Sfhh4U0PVINSsNOdLqA7o2M7tg4x0JxXZVLt0Ezzv41/wDJPJP+vuH/ANCro4P+PeL/AHB/Kuc+Nf8AyTyT/r7h/wDQq6OD/j3i/wBwfyq/sL5g9iSuJs/+S9r/ANgg/wA67auJs/8Akva/9gg/zqodfQInqlFFFYgJ2rzf4Nf8i/rH/YWn/wDZa9HPSvMPhhdx6Pq/iHwret5V/FfyXESvx5sbYwV9eAD+NXH4JfIa2PSJLG0mcvLbQu56s0YJ/Om/2ZY/8+Vt/wB+l/wq0DRmouxFQ6ZYf8+Vt/36X/CkOm2H/Plbf9+l/wAKtE0ucYGMk07sCoNOsQeLK2/79L/hUkcEcIKwRRxg9Qihc1M2M8UDNIAPC46mgClxzThQAUUUUAFFFFABRRRQAUhFLRQBUbT7J2LPZ27MTkkxAk/pR/Zlj/z5W3/fpf8ACrdFFwM64TTNLt5L6eO1t4oFLvKUChAOpzXDv8bfCCOyq9/IAcB0tjg/TJq/8XmZPhlqxUkZ8sHH/XRa8ysY0XT7cKigCJeAPavSwOCjiU3J2sd2Dwn1m93ax3n/AAu/wl2XUv8AwF/+vR/wu/wl3XUv/AX/AOvXJQ2XnW1xOmzECqzKRyQTjj8a0V8NvhmeeFFVSXYgnbhFY9B6MK6pZZQjo5/gdUstpx0c/wADc/4Xf4S/6iP/AIDf/Xo/4Xf4S9NR/wDAb/69YL6CIY2mnvLeOHK7JNrEPuXcCMD271DNoxiszP5sTOEWV4gDuCMcA9Mdxx70ll1B/b/ASy+m/t/gdJ/wu/wmTwupZ/69f/r10Fl4s0fxd4Z1K40q48zy4JFkR12vGdp6g15bGqqhbaM/SqPh3XrXw7rPi66uJFQSaeqxxDjzJDgAAd+v86zxWWxow54u5lisAqEOZSueo/CME/DbTPrL/wCjGruMYrkvhtp0+mfD7Sre5Vo5jGZGQ8FdzFgPyIrrRXlT+JnnPccKKKKkRXurWC9tZLa5iSWCVSrxuuVYHsRXA3HwZ8NPO8lpNqdirHJitrohPwBBr0WlpxlKOzGm0ea/8KW0T/oMa5/4F/8A1qP+FL6L/wBBfXP/AAL/APrV6VRVe1n3DmZ5r/wpfRf+gvrn/gX/APWpP+FL6L/0F9c/8Cx/hXpdFHtZ9w5meRaz4dm8NWM9xIXOnWqj9+7hm29AT3J/Csq80271HwVd6taxeZYvaySLLkDKgHJx17Gu/wDic6P8PNbiVlMhgGEB+Y/MO1c/osscfwCaJ2CyjTJwUY4bPzdq9COMrezWnkeA8kwntfa8zve+6L/wU/5Jra/9d5f/AEKpvjL/AMky1L/fi/8ARi1D8Ff+SaWn/Xeb/wBCNTfGX/kmeo/78X/oxa4/+X3zPfe5xekf8gWx/wCvdP8A0EVdqlpH/IFsf+vdP/QRV2vplsfkmI/iy9X+YmaKSiqMQpppSaaaQyVv3acDk1H8PLKTXPiFf6w67rXSo/IhJ6GRupH4Z/MVS1nVRpej3N233kTCe7HgV6F8MtEfRPBNkkqYuLoG6nz13PyAfoMCvNzGryw5e59fwzhbylXfTRfqdjgOPQijkHAJpD944pwFeGfYEM0MdxA8Uqho5FKMp7g8EV4BotrJoWt6x4ZmJzYzloSf4om5B/UfnX0L3rx74rWH9j+KNG8TxjEU/wDoV2R+ak/r+VdmBq8lW3c87NcN9Zws4LfdeqK5pKKK+hPzO1goopKAKGuf8gK//wCuD/yr1H4af8k30L/r2H8zXl2uf8gK/wD+uD/yr1H4af8AJN9C/wCvYfzNeVmm0T7bhj+BP1X5HVV4Af8Akofi3/r7H9a9/rwA/wDJQ/Fv/X2P5GuXL/4p6Od/7hP5fmjRpKKK98/OgrD1H/kdPCf/AF/p/wChLW5WHqP/ACOnhP8A6/0/9CWufE/wpHsZF/v8Pn+R9FY6V4R4ztZ7347QW9um+R7RcLnGfkavd88V43qbqn7SNizsFX7KMknA/wBW1eDh5OMuZdEfoFWnGrTlCWzTRBeRSafrtpo10vl392MwxZzvHPccDoa9C8JaTd6XBcG8jCNKwwoIJwAf8a4vxc6S/GrwtIpDRpGu515UfM/evWY2VgSrBl7EHNdGJxVSdNRa3PIweT4XDVVUpyba80SA06mAH0pwrgPaFooooAq3llbahbPbXlvHcQOMNHKoZT+BrzP4gfD/AMK6Z4I1jUbLRoILqKHfHIhb5TuHIGcV6rWN4q0c6/4X1LS1YK9zAyIT0DdR+oFVCTTWo07CeEP+RM0T/rxh/wDQBV7UtOtdX06ewvYRNazoUkjPcVwXw/8AG9jHo8Ph7W5003WdOUW0kNywTeF4BUng8YruP7f0b/oLWH/gSn+NElJSBp3Mnw94B8OeGHMunaagnJ/18p8yQfQnp+FdOBWd/wAJBo3/AEFrD/wJT/Gj/hING/6C9h/4Ep/jSfM9w1NKis7+39G/6C9h/wCBKf40f2/o3/QXsP8AwJT/ABpWYjRorO/t/Rv+gvYf+BKf40f2/o3/AEF7D/wJT/GizA0aKzv7f0b/AKC9h/4Ep/jR/b+jf9Bew/8AAlP8aLMDRorO/t/Rv+gvYf8AgSn+NH9v6N/0F7D/AMCU/wAaLMDRpCazv+Eg0b/oL2H/AIEp/jSDXtHY8atYf+BKf40WYGhnJxQVPNZreINGz/yFbHj/AKeU/wAaUeIdGf5Tqtj/AOBKf407MDRYFkGKI87TurOGuaSmcatYY/6+E/xo/wCEg0c/8xaw/wDAlP8AGizA0AKeBWcNe0b/AKC9h/4Ep/jS/wBv6N/0F7D/AMCU/wAaVmBo0Vnf2/o3/QXsP/AlP8aP7f0b/oL2H/gSn+NFmBo0Vnf2/o3/AEF7D/wJT/Gj+39G/wCgvYf+BKf40WYGjRWd/b+jf9Bew/8AAlP8aQ+INFAz/a9h/wCBKf40WYHF/Gv/AJJ5J/19w/8AoVdJB/x7xf7g/lXAeO9dtvHOoWXhHQJVukNws99dRcxxIvbd0P8A+oV6EqhVCjoBgVrZqCTCWwtcTZ/8l7X/ALBB/nXbVxNn/wAl7X/sEH+dOHX0CJ6pRRRWICGuV8VeA9I8WPFcXPm21/D/AKq8tm2SL7Z7iurpCaE2ndAebf8ACs9aHA+IGugDoN3b/vqg/DLXO3xA138//sq9GPNAJBww+lX7SQ+ZnnX/AArPWf8AooGuZ/3v/sqePhxrWMHx9refXP8A9lXoLK2/I705xkij2kguzzpfhrrKA48fa2SfU/8A2VNHw01z/ooOufn/APZV6OBT6PaSDmZ5t/wrPXP+ig67+f8A9lR/wrPXP+ig67+f/wBlXpNFHtJBzM82/wCFZ65/0UHXfz/+yo/4Vnrn/RQdd/P/AOyr0mij2kg5mebf8Kz1z/ooOu/n/wDZUf8ACs9c/wCig67+f/2Vek0Ue0kHMzzb/hWeuf8ARQdd/P8A+yo/4Vnrn/RQdd/P/wCyr0mij2kg5mebf8Kz1z/ooOu/n/8AZUf8Kz1z/ooOu/n/APZV6TRR7SQczPNv+FZ65/0UHXfz/wDsqP8AhWeuf9FB138//sq9Joo9pIOZnh3xB8D6po/gu/vrnxhq2oRR7N1tOfkfLgc89utZdl/x42//AFzX+Qr1v4h6JdeIfA2p6dZDdcyIrRrnG4qwbH44rxGHUtQtYI7efw9qyyxKEcC2YjIFezlWIhFS53Y9XLK8Kblzux1/h8JLfyWsjBUuImQknAB4YfqK3IZhe298IyC8slyI1yMkbUA/lXm/9s3X/QA1f/wFNOj1e4ZiG0HV/wDwGauut7GcubnO2pUoTlzc56JcLK2kfZobeC4niEKSRsQ2whDnHPUVXuYwthNcOy+XJYxRK24csCMrj1GDXCNqtxGA39h6sSD/AM+xp0mq3TgFdC1b/wABmqIqkvtr+rf5EKdFfbRrDEY/2f5UeAtB0rWviRqT39usxtII5okY/Lu4GSO9ZB1i6SHB0LVs/wDXs1dn8JdF1Ma3q+v3tjNZ29zEkMEc67XfB5OD24qcxxFOVC0ZamWYYinOlaDu7nrainCgClr508QKKKKACiikyKAFoozRQAU006kNAHkOuMW1y9ySf3zDn61g61/yAr//AK4P/KvQ/iNY21n4N1jVYIVjvY4gyzL1B3AZx06Vz2n6daX/AME5NUuoRLevp0ztKSclhuwfTsK9mGNh7NKz7HybyDEPEe15lbmv173Nf4K/8k1tP+u83/oRqb4yf8kz1H/fi/8ARi1D8Ff+SaWn/Xeb/wBCNTfGT/kmWpf70X/oxa83/l98z617nF6R/wAgax/690/9BFXKpaR/yBrH/rgn/oIq4a+mWx+SYj+LL1f5hSE0AEgkUihm6U7mVhVG5sU7YjA4PSkVSjfN0PelcbUPIVAMsfSpuaRjfQwrixPiTxlovhxfmhMn2m6x/wA815wfrg/mK9+VQAAAABwAO1eV/CPThfXmr+KZE/18n2a3P/TNev64/KvVxXz2Nq+0qvyP03LsKsNhoU+ttfVmZrmrW+g6JeapdZ8m2iMjAdW9APqcD8a820P4ualc6zYRa1o0Npp+oyCO3nSQlkJ+7uz6/hU/xk1FrmHSfC8DfPfzCWcDtEh/x/8AQa5HxLp32rw7JHANsluBLDjsV9PwrbDYRVKTk/kYY7Mo4WtTpP7T18lsvxPoQdK5vx1oA8SeDtR04LmZo/MhPpIvK/yx+NSeC9dXxJ4R07VM5kliAl9pBw36it89a4NYy9D1T5/8NagdR0OCR/8AXRjypQeoZeOa1+9Z2pWP/CM/ErVNLA22moD7ZbDtk/eA/HP5CtDpxX0tCp7SmpH5tm2E+rYqUVs9V6MSkoorY8wo65/yAr//AK4P/KvUfhp/yTfQv+vYfzNeXa5/yAr/AP64P/I16j8NP+Sb6F/17D+Zrycz2ifbcMfwJ+q/I6qvAG/5KH4t/wCvsf1r3+vn5v8Akoni3/r7H9a5sv8A4p6Gd/7hP5fmjSoopK98/OwrD1H/AJHTwn/1/p/6Etbmaw9QP/FZ+E/+v9P/AEJawxP8KR7GRf7/AA+f5M+i814D485+N0Y/6dU/9AavfM56V41rFjHeftDWUc6B42tRuU8ZxGxrwcNJQnzPofeYik6tKUFu0196IpMIoUDnrmu48AyM9veKc8MuB26GuT8UwR2nxW8OaVbDyrG5QGaEdH5brnnsK9Ts9OtdOiMdpCsSk7iF7n6114rFwqU+VLc8HL8mr4avGrOSsr7X7FwFhxSikUU+vMPpAooooAKQjNLRQBg634P8P+IyratpVvcyKMCQja4/4EMGsX/hUXgf/oBp/wB/pP8A4qu4pKanJbMd2eGeJ/AfhvT/AIjeGtLttNWOzvI5TPH5jHeQDjknIrpv+FXeDv8AoDr/AN/X/wAaZ49YWnxO8G3kx2W7GWHeegYjgfqK7OtnOVlqDbOQ/wCFXeDv+gOv/f1/8aP+FXeDv+gOv/f1/wDGuvoqfaS7k8zOQ/4Vd4O/6A6/9/X/AMaP+FXeDv8AoDr/AN/X/wAa6+ij2ku4czOQ/wCFXeDv+gOv/f1/8aP+FXeDv+gOv/f1/wDGuvoo9pLuHMzj/wDhV3g7/oDr/wB/X/xo/wCFXeDv+gOv/f1/8a7CkJo55dwuzkP+FX+Dv+gOv/f1/wDGlT4Z+D0P/IIXn/pq/wDjXXAEjOcCmspHWjnl3C7OT/4Vn4NTpo6/9/X/AMaVvhl4QdMnR19v3r/411agZ5FOJzwOlHPLuHMzkP8AhWfhJhg6SuP+ur/40f8ACrvB/wD0B1/7+v8A4114FLRzy7hzM4//AIVd4O/6A6/9/X/xpf8AhV3g7/oDr/39f/Guvoo9pLuHMzkP+FXeDv8AoDr/AN/X/wAaP+FXeDv+gOv/AH9f/Guvoo9pLuHMzkP+FXeDv+gOv/f1/wDGj/hV3g7/AKA6/wDf1/8AGuvoo9pLuHMzkP8AhV3g7/oDr/39f/Gj/hV3g7/oDr/39f8Axrr6KPaS7hzMoaVoum6JbmDTLKG1jPURrgt9T1NX6KKlu4griLP/AJL2v/YIP867euH0si7+PFw8J3ra6VslI/hYkYH61cNn6FRPVqKKKxAaetI3FB60pIGFJ60AJnCbh1oVt4IIo+5weVoG0dKAAEjjrilA70gFPoAKKKKACiiigAooooAKKKKACiiigAooooAKKKKAENIelOppNAAOmTTMsWyBTgcUFz0AoAQHd8rDBo27RwTTm5Az1pAKADHOacBS4ooAKKKKACiiigBpryDxL488Rah4lvdI8My29nb2D+XPdyoHLydwAcjAr1+vFfEfhTxD4d8UajqWjaY+p6bqUnnNHC2JIpD149Mk1pStd3McQ6ipv2XxdDX8H/Ea7XVZ9D8Xz2kNwiebBe7hGkq+hzwD+XQ13P8Awl3hz/oPaZ/4FJ/jXm3hX4d3Wu6vNrXjHTI44PK8q2sJGyRz95sH/Oa7X/hWHgr/AKF60/Nv8ac1C/8AkXS5uRe0+LrY1f8AhL/Df/Qe03/wKT/GkPi7w2T/AMh7Tf8AwKT/ABrM/wCFX+Cv+hetPzb/ABoPwv8ABX/Qu2n5t/jU/u/M00Of8W+IF1/TNQ0dBEbG4HlieNtxYZB3A9O1YUmszaR8ObnQYo0e3is5Ig753EHJz6d61vEfhw+HLC81BUjj0u1XcqxnlEzgAD2zWNc6Tdap4Cu9btghspLSSRSzYbaAQePwr2IRw3s1t/wT5B1M1+sW15ebtpa/+R1fwT/5Jraf9d5f/Qqm+Mn/ACTPUf8Afi/9GLUPwV/5Jpaf9d5v/QjU3xl/5JlqX+/F/wCjFry/+X3zPr+pxOkH/iS2P/Xun/oIq4TVPSATotkR/wA+6f8AoIq2vzMBX0yeh+TYhfvZer/MFcqfapGJKZSkLojbcUH92Qw+6eopELQI2LghufrXP+Kb2W20Vre3Ja4u2FvEo6ktx/L+ddAzDb8vfvWf4Zsf+Ej+KNsjDdZ6LH58noZT90fnj8qxxFT2dNyPWybC/WcXFPaOr+X/AAT1zwtoqeHvDOn6Un/LvCFcju/Vj+ZNbB4pQeK5f4ga/wD8I54L1G/VsTmPyoPXzG4GPpnP4V82ryl6n6KeUz3/APwkvxD1nWs7ra1P2O1PbC9SPqcn8a0zgjB5FZnh3T/7N0O2gYfvCvmSe7Hk/wCFavSvpaNP2cFE/Nc1xTxGLlNbbL0Ra+EV+dN1nWvC0rYRX+2WoP8AdPDAf+O/rXrvQ18+314fDvizRPEiZEcM3kXOO8bcH9Cf0r6BRldQykFWGQR3FeJjaXJVfmfd5ZifrOFhU62s/VHmPxl0t/7JsPElsmZ9KnBkI7xMcH9cfmawYZUuII54zlJFDKfY17Bq+mw6vpF3p1wMw3MTRN7ZGM14L4Yaa3t7rR7vi602doHB9AeK68tq6ODPI4kwvPSjXW8dH6M3KKKSvWPiijrf/IDv/wDrg/8AKvUvhp/yTjQv+vYfzNeWa3/yA7//AK4P/KvU/hp/yTjQv+vYfzNeTme0T7Xhj+DP1X5HVGvn9v8Akoni3/r7H8jX0Aa+f3/5KJ4t/wCvsfyNc2X/AMU9HO/9xn8vzNCkJpTTe/Fe8fnYE1j6hGT4x8KEH/l/T/0Ja2mCovzck1i3koXxh4VU5/4/15/4Etc+If7pns5GrY6Hz/I+h17jvXh/ia/m0z4+W91GgdktV4bODlGH9a9vZSG3A14f4ttri/8AjtBZ26qZXtVxk4H3GNeHhuXn97Y+6xDmqM3T+Kzt62LmrynVfGGneI5QFuLBQEiX7jYJPPfvXo/hnW5NbhnaWFY3iYD5ehB//VXm2oQSaZ4lstAucC/vhuhC8qckjk9uhr0Xwnotzo8E4uim6VgQqnOAM/4124uNBUvctfofO5bUzGWIiq9+TXdHSiloFFeUfUBRRRQAUUUUAFFFFAHP+LvCtl4v0VtPuy0bBhJDOn3onHRhXDppnxS0hBaQnSNVhThLiVijke/I5/OvWKKqM2lYdzyrPxW/6A+if9/v/sqM/Fb/AKA+if8Af7/7KvVKKr2nkgv5Hlefit/0B9E/7/f/AGVGfit/0B9E/wC/3/2VeqUUe08kF/I8rz8Vv+gPon/f7/7KkJ+K/wD0CNE/7/f/AGVeq00mj2nkgv5HlZPxW/6BGif9/v8A7KkP/C1iP+QPov8A3+/+yr1UEN+FNZyrYxxR7TyQX8jzEf8AC0iq/wDEq0bj/pt/9lSD/hajHJ0jRgo6Dzv/ALKvUGJBGO9Lkmj2nkgv5Hln/F1u2kaJ/wB/v/sqP+Lrf9AfRP8Av9/9lXqgFLR7TyQX8jyv/i63/QH0T/v9/wDZUZ+K3/QH0T/v9/8AZV6pRR7TyQX8jyvPxW/6A+if9/v/ALKjPxW/6A+if9/v/sq9Uoo9p5IL+R5Xn4rf9AfRP+/3/wBlRn4rf9AfRP8Av9/9lXqlFHtPJBfyPK8/Fb/oD6J/3+/+yoz8Vv8AoD6J/wB/v/sq9Uoo9p5IL+R5Xn4rf9AfRP8Av9/9lRn4rf8AQH0T/v8Af/ZV6pRR7TyQX8jyvPxW/wCgPon/AH+/+yoz8Vv+gPon/f7/AOyr1Sij2nkgv5HlLW3xWvAYPs2jWIfg3AfcU9wMn+VdZ4L8GQeErOYtcNeahdv5l3dyD5pG9B6AZNdVQTUyqNq2wXFopuc0VIhhJVgSOKV034INOzhfmpCAPunFACnhcHk0gFAFPxQAUUUUAFFFFABRRRQAUUUUAFFFFABRRRQAUUUUAFJmjNNJOcUAKTRgdD1ppDDmndRkcmgBCMGgHHajbgc8k0oFAByTzSgUtFABRRRQAUUUUAFFFFABRRRQACiiigAooprUAcX8S7mGfwJrNjFKj3TwgLCrAuTuHAHWue0u7t7T4FvZXE6RXS6bOphdgGBO7jHWq2t5/ty83Z/1z9frWDrX/IDvv+uD/wAq9iGBj7NO/mfLf6w1fb+yUFa9vxsdz8Ff+Sa2n/Xeb/0I1P8AGX/kmeo/78X/AKMWq/wV/wCSa2mP+e83/oRqb4yZHwz1H/fi/wDRi153/L75n1XU4zRCf7Hsh28hP5CrrLhg68+oqlonOh2Yzz5Cf+girkYdWwQcV9JHY/Ka/wDFl6v8xSiycg4pJCAoUdqbJt38U2mYNkV5cpZWM11IcJEhc/h2rqfg7o72fhSTV7lf9L1aY3DE9dnRR/M/jXnviGKXVrvTPD1sT52pXCq2P4UB5P8AX8K+gLO1isrSG1gULDCixoo7KBgV5OZVdoI+44bwvs8O6z3k/wAF/wAEmAwOK8e+Kt9/a/izRvDUZzDbf6bdD36KD+Gf++q9hbtXztbalFdeMfEeo6jPHDePdtCI5WClEU4A5+g/KuXBU1Oqr9D1sxrSo4WcoLW1l8zoKX8apnVdP/5/rb/v6v8AjSf2rp//AD/W3/f1f8a9/mR+b/V638r+4brNiNT0i5tSOXQ7fZuo/WvQ/hdrp13wNZmZibqzzazg9dycAn8MV59/aun4/wCP22/7+r/jV/4T3gh8d6/p9o4msJ4VuWZDlUkyB199x/KvOzCClDmXQ+r4bnUg50ZppbrT7z2Y9K8T8fWH/CP/ABLttSQbbTWYvLk9BMvH6/L+Zr26uG+K2gtrXgi6kgTN3YEXcJHXK/eH/fOfyFeZh6ns6ikfSYijGtSlTls1Y4tuuaTqap6VfLqWl292p/1iAt7Hv+tXO1fSJ3Vz8wqQlTm4S3Whn63/AMgO/wD+uD/yr1T4af8AJN9C/wCvYfzNeV63/wAgO/8A+uD/AMq9U+Gn/JN9C/69h/M15eZ7RPsOGf4M/VfkdUa+f3/5KJ4t/wCvsfyNfQBr5+k/5KJ4s/6+x/I1zZf/ABT0c7/3Cfy/M0DSZwQaACxwKc0ZAyDmvdbPz1IcTGcMetY16yv4y8LKB/y/L2/2lrTrKvnVfGHhUKOTfJ/6EtYYj+Ez2Mjf+3Q+f5H0KARwOleN6rNHbftGWMs0ipGLUZZzgD921ezYrwTx5/yW+P8A69E/9AavDw0eefL3PusRVdKlKouib+5G34tkW5+Mvhe/gYS2kEaiWdDlE+Z+p6DqK9aguoLqPfbypImcZRsj9K8a45rR0tvGSo48LppzR5Hn/bM9e23H412YnBRhT5lLY8HL87qYqvGjKCV7/wCZ65RXmok+L3/PHw9+bf40eZ8Xv+ePh782/wAa872fmj6Sx6VRXmvmfF7/AJ4+Hvzb/GjzPi9/zx8Pfm3+NHs/NBY9HZ1jVndgqqMkk4AFcafir4MGofYTrUe/dt8zy28vP+9jH49K4rxpJ8Tz4Q1H+049KWx8v9+bMt5mzIzjnp6+2ajji8K/8IIPls/sX2bJY7d+7b+e7NceLxKwqg3Fy5nbTobUqPtL62se1xyJLGskbBkYZVlOQR60+uG+Ehuz8N9L+2b8/P5W/r5e47f0/Su6NdLVmYMKKKKACiiigApCaWmE0ABNAGeT0pSNy0i8qVPWgA2g8qeaOHHzDkUiIVJJoxliaAFPJ+lOAoApaACiiigAooooAKKKKACiiigAooooAKKKKACiiigBDTeppxpF7igBpIVhzRS7FHU0UADDnNKBS4paACiiigAooooAKKM1Xe9tY2Kvcwqw6hpADQBYoqr9vs/+fy3/AO/g/wAaX7fZ/wDP5b/9/B/jRYCzRVb7fZ/8/lv/AN/B/jR9vs/+fy3/AO/g/wAaLAWaKrfb7P8A5/Lf/v4P8aPt9n/z+W//AH8H+NFgLNFVft9n/wA/lv8A9/B/jR9vsv8An9t/+/o/xosBZrgfGfxNt/C2px6Xa6dNqN+UEjxo21Y1PTJwefau0+32ZPF3B/38H+NeDeMpUl+LOqPG6sptIvmU5H3V7114KhGvWUJbGVeo6VOU0tjoP+F1ap/0KEv/AIE//Y1Knxn1JxkeEZc/9fP/ANjWHpFvaz38MF15oEzBFaLGQSepz2q9NY6Sli12hvOZnhRQUzlVByePU17FTLsNCfJqeVHMqso83KvxLQ+M+rCTafCMvP8A08//AGNEnxn1RH48Iy/+BP8A9jVWXTLW3sF1GWSVrWRI/K243M5++vpxhv0qG/020XVLWztXn3z+WWaXBA3gEYx6ZpRwGFbtr/ww3mNZK/KvxL//AAunVOv/AAiE3/gT/wDY0v8AwurVP+hPl/8AAn/7GoV0fSned47m4Mdukpkj+XzMoVAI9jn9KLTw9a39nBdW8s6pJd+SyPjcqcDdx7n9an6ng0rtsf1+u3ZRRL/wurVP+hPl/wDAn/7Gj/hdWqf9CfL/AOBP/wBjUI0bTvt9hYmS78+5WNmf5doDDJxxmmxaJZ3F5YeVNMlpcrI0hkA3xhM56cHpT+pYPrf+v+GYv7Qr/wAqLP8AwurVP+hQl/8AAn/7Gk/4XVqn/Qny/wDgT/8AY1WOl6fDDqP2hroy2Muw7Cu1ssQDz9KtP4atI51t3uJ/Nndo4CoGAVQNlvqTjih4LBrdv+tfyGsfXf2UH/C69U/6E+X/AMCf/saT/hdepL8z+D5to5OLnnH/AHzVfUPDyWVsZ1ldk+yJMMgffLKGU/TdmufPStaeV4WtHmg2RPM60HaUV+J7l4Y8R2XivQ4NVsdwikyrI4+ZGHVTW1XmXwN/5EWf/r/l/ktem183UiozcUe2tgoooqQCimM6opZiFUDJJOAK5u4+IXhG1maGbxDYLIpwVEu7H5UJN7AdNikauV/4WX4N/wChhsf++z/hQfiV4NP/ADMNl/30f8KfLLsOzKnxKtILfwLrN9DEiXaQgrMq4cHcOc1z2l2Vtd/At7+4gjlu202ZmmdQWJ+bnNP8S+Ij4k06805HifTLldokjzl0yCCD749KxrjVrrSvAFzolt5f2OOzkjG8ZbBBJ5/GvShha3s1r579DwXmmX+15OX3r22W51PwUOPhtaf9d5f/AEKrHxgJ/wCFcagMZBeL/wBDFVvgqP8Ai21p/wBd5v8A0KrPxfJ/4VpqOOu6L/0MVxf8vvme69zi9KQf2TZFTg+Qn8hVlpGHHH4VQ0gn+x7I9/IT/wBBFXK+litD8pxL/ey9WLQRxmj+Gs3xBqP9maHcXIP7zbtj92PApt2VyaFJ1akaa3bsanwxsf7b8d6pr7jdb6ev2S2J6bz94j8M/wDfVezDoK5T4c+H/wDhHPBGn2jri4lTz5/Xe/J/IYH4V1lfM16ntKjkfqdGlGjTjTjtFWA1zWreAvC+t3rXmoaNbzXLfek5Ut9cEZrpqKxTa1RqcZ/wqrwT/wBACD/vt/8A4qj/AIVV4J/6AEH/AH2//wAVXZ5pM1XPLuBxv/CqvBP/AEL8H/fb/wDxVbmieHNI8OwNDpOnw2iOcv5Y5Y+5PJrWopOUno2AtRyIsiMjqGVhgg9wakopAfO9nZN4e8Ua14bfISCYzW2e8TcjH5j9a2T0q/8AF7TzpusaP4qiXCq32S6I/unJUn9f0rOzkAg5B719Dg6vtKS8j4TiHC+yxPtVtLX59Sjrf/IDv/8Arg/8q9T+Gv8AyTfQv+vUfzNeWa1/yA7/AP64P/KvU/ht/wAk30L/AK9R/M1y5ntE9bhn+DP1X5HVE18/SZPxD8W45/0sfyNfQG4Zwa8EmPl+P/FWB/y9jn8DXNgP4p6Odf7jP5fmi9H0YdDQcqNig57mjduTcOGFM81sdBXuH59sIyhWxmsS/wD+R08Kf9f6f+hLW1WLff8AI6eFP+v9P/QlrLEfwmerkf8Av8Pn+TPow141q8EVx+0bZQzxq8bWgyrDIP7tq9mI45rwzxdfTad8e7e6g2+YlquNwyOUYV4OGi5TtHex97VnGnTlOeyTv6Gl4tjW0+MnhjTrcCKynjUywoMI/wAz9R36CvWra1t7SPy7eFIkznCKAK8d1GZ9U8T6f4guP+P6xAWELwnUnkd+prsNP+IOnW8bf29f21nKT+7DErvHf16V0YjDVowTetjycHmWCrVVCjG0n5JHdDpRiuUHxK8G/wDQw2X/AH2f8K1NK8T6HrjMumara3bqMlIpAWA+nWuFxkt0e1ZmxRRRSERSRpKjRyIrIwwysMgj0NcUfhH4NOo/bP7I53bvJ81vKz/u5/TpXc0uaE2guRRRJBEkUaKkaAKqqMAAdABUtFFABRRRQAUhpaaaAEzSZp2flzik2q4yOKAEkJUjHSl4dd3Q0ZIGGGfcUE546UAIMnvTwKQU6gAooozQAUUUUAFFFFABRRRQAUUUUAFFFFABRRSZoAWkJpN1NJoAXk0lOOcjHApM7zx0FACBcnk0UoFFAD6KKKACiiigApDS0hoA8z8Xahq3iXxjH4K0S8exhjhE+pXkf31Q9EX8x+ftU0fwV8ICMCaG8nk/ieS6bLH1OKZ4YGfjT4vPf7PB/IV6Fc3MNnbSXFzKkUMalnkdsKoHcmtJScbKJTdtjhP+FLeC/wDnyuf/AAKf/Gj/AIUt4L/58rn/AMCn/wAa6H/hOvCn/QxaZ/4Er/jR/wAJ14U/6GLTP/Alf8aL1fMLs5//AIUt4L/58rn/AMCn/wAaP+FLeC/+fK5/8Cn/AMa6aTxf4dhtobmTW9PWCYkRSG4XD46457VD/wAJ34U/6GLTP/Alf8aOap3Yrs57/hS3gv8A58rn/wACn/xo/wCFLeC/+fK5/wDAp/8AGuh/4Trwp/0MWmf+BK/40f8ACdeFP+hi0z/wJX/Gi9XzHdnPf8KW8F/8+Vz/AOBT/wCNH/ClvBf/AD5XP/gU/wDjXQHx34U/6GLTf/Ahf8afH4z8NTSpFFrunvI5Cqq3CkknoOtHNU7sLs5sfBnwahyLO5z/ANfL/wCNebazoNhoPxC1DTNORo7eO2jZQzliCQCeT719EA5avJfH/gjxBceLT4g0GCK8E8KxTQO4QqV4BGeo4FdWBr8ldSqPQ58TCVWlKEd2YWkzRRapZyTsEWOZGZj2APWtWG6QaDPbxanFA7XEsjxuSPMQgAdAfesWXwr48Kg/8I5Fu/6+U/8Aiqj/AOEU8f8A/QuRf+BKf/FV7tTFYWo7uf8ASPFhgcTFWUV9/wDwTZvL2ym0P+zEkU/ZFSSF8H945/1g/Uf981DdX1v/AG/ZXSvvhiSDcVH91VyP0NZn/CKfED/oW4v/AAJT/wCKo/4RT4gf9C3F/wCBKf8AxVEcTg4/b7/juOWCxT+yunVdNjr4dUtLdZII9UgEzLcNFOoYLGHKlVJxnPDGotJ1i2sLm0juryOdTNN58q5I52MrdP7y1yv/AAinxA/6FuL/AMCU/wDiqX/hFPiB/wBC3F/4Ep/8VWKng2mnPf8A4Pl5l/VsXdNRWnn/AME6kanCb3SpzqsP2S3EW6A7tysBgnGMfrUA1izlsluLyUy3ItpICkfyMQZBjHGB8ue1c5/winxA/wChbi/8CU/+Ko/4RT4gf9C3F/4Ep/8AFUKeC/nD6ri/5V9//BNzUtQs501V4JRm7S3dUPJ3D7w6dRWlLqunTXsN19sjUWkskm0hsyBo1A28eoIrhNX0vxloemTajqOgxQ2sOC7+erYycdAc9TVm38OeO7q2iuIfDsTRSoHRvtKcgjIPWrlUwjS9/wDqyX5ISwmKTvyr7/O/c6m71m0m0jUbQygu0UHknnk4QOP/AB0flXKGpv8AhFPiB/0LcX/gSn/xVB8JfEFvlHh2FSeMm5TA/wDHq1o4zCUotRnv/lb9DOeAxVSSckvvR3HwM/5EWf8A6/5f5LXptcj8PPC8/hLwpFp91Isl08jTzFPuqzY4HrgAV1vevlarUpto+hWwtFFFQB5h46ku/E/jLTfA9tcyW1nLCbvUJIzhmjB4T9P1HpXT2fw+8J2NskEWgWLKoxuliDsfck5Jrm1/5ODf/sDf+zV6XVybSSQ2zB/4Qrwt/wBC/pn/AICp/hSHwV4X/wChf0z/AMBk/wAK6DFJU80u4rs8v8VeHx4f02+1dPKWwtl3iCMYZVyBtA6cZrEl0efV/h1c6/C8aW0lnLKEfO8AAj6dq7P4kXttdeC9Z0uCZJL6SEKsKn5idwOK57TtQtbH4IyaXdTLFeJp0yNC3UMd2B+telDEV/ZrT8Oh4by/Lva87kua/frfsavwV/5Jraf9d5v/AEI1P8YyV+GepEf34v8A0YtQ/BX/AJJpaf8AXeb/ANCNTfGX/kmWpf78X/oxa4/+X3zPde5w2k/8gey/64J/6CKu1S0n/kDWX/XBP/QRV2vpY7H5NiP4svV/mHeslLD/AISbx/o2hY3W0DfbLsdtq9Afr0/GtN3WONpHICqCSfQCtb4Naa1xHqvimdCJL+YxQZ7RJ/if/Qa5MdV5KTt1Pf4bwvtMQ6r2ivxex6r0FVNT1C30rTbnULl9kFvE0kh9gM1b615h8ZNWf+yLHw7bPi41WcB8dREpyf1x+RrwacHOSifbykopylsjMHxg1+6Hn2HhIPaucxPJc4Zl9SMU7/hbHiv/AKE+L/wK/wDrVRhiW3gjhjGEjUKo9hTute2svpWPjanE1fnfLBW+Zc/4Wz4r/wChPj/8Cv8A61H/AAtnxX/0J8f/AIFf/WqnSU/7Pok/6z4j+Rfj/mXf+Fs+K/8AoT4v/Ar/AOtR/wALZ8V/9CfF/wCBX/1qo0Uf2fRD/WbE/wAi/H/M3/D/AMVLq+1+00nXNDOnG8bZbypLvUv6HjvXp3XtxXzx4otpJdJ+125K3Nm4uImHUFea9x8NazHr/hyw1WLG25hV2A7N0YfgQa83GYdUZLl2PpMsx/12jztWknZ2IfGGhp4k8KahpbD55oT5R9HHKn8wK8V8MXr3mjRrMCLi3JhlB6hl4/wr6HIrwbxDp/8AwjfxOvrVV22mrJ9qh9A/8Q/PP5itMvq8s+V9THPML7fCNreOv+ZFrf8AyA77/rg/8q9T+GvPw50Ef9Oo/ma8v1YhtCvlI/5YP/KvUPhuNnw90IHp9lGD+JrXM9onFw0rUZ+q/I6kqpOM814LIf8Ai4PitH5/0oY9+DXvLId+RXglyc/EDxUO/wBrH8jXPl/8U9HOv9xn8vzRfbCKVHeo6Slr3T89bCsW+/5HTwp/1/p/6EtbVYt9/wAjp4U/6/0/9CWscR/CZ62R/wC/Q+f5H0b2rwzxZYSal8fra0iZVeS1XBbpwjGvc/avGNZuYbP9ouynuJAkS2gyx6D921eBh21O8dz72rCE6co1Phad/QNUt20nxdpvhyYhrrUFDRyJ9xckjnv2NdxpfgewSJ/7Xs7O+lJ+TzYg4Qe2RXGeKZFvvi94a1a2YS2FsiiadfuodzdfzFes2l9a38ZktZklUHBKnoa6cRXruCUtE/I8nB4HAUqqnQknJedzK/4Qjwt/0L+mf+Aqf4Vy3jH4caZ/Zsur+HrddL1myUzwS2vyBioztIHHIFek1U1P/kFXn/XB/wD0E1xRnJPc9pNmP4J15vE3g/TtVcATTR4lA6b1JU/qM10VcB8Gv+SZ6d/10l/9GGu/omrSaQPcWiiipEFFFFABRUTXEKHDTRqfQsBTftdv/wA/EX/fYosBPSEVD9rt/wDn4i/77FL9qt/+fiL/AL7FFgHjg49aGOOBxURurb/n4i/77FBu7c/8t4v++xRYCXkjFOAqEXVt/wA/EX/fYo+12/8Az8Rf99iiwHLeN/Hll4Njtkktpbu9uifJtojgkDqSewrjv+F23Hbwhd/+BA/+JrN+LkqS+P8AQzG6uBZv905/iNYs+mXltY217LCVt58+XJkYbH8q5cVinQkoqN9L9e59DleU0MVR56s7O9lt2udb/wALuuP+hRu//Agf/E10Xg74mWfivUpNMksJ9Pv1TzFilYMJFHXB45rhNG0GK60e91XUJGhtYUKxlcZd+wGfwqj4GdU+LGlszBR9mlyScfwtRh8S60lGUUrpvr0DH5Xh6NKc6Um3FpPtqfQwpagF3b4/4+Iv++xR9rt/+fiL/vsV1WPnieioPtdv/wA/EX/fYo+12/8Az8Rf99iiwE9FQfa7f/n4i/77FH2u3/5+Iv8AvsUWAnoqD7Xb/wDPxF/32KlDBhkEEeooAdRRSZoAWmk80E0mC1AClcng0mUJxRgp7igoCwYUAGdp2kcUZ4wBgUHk0oFACgUUtFABRRRQAUUUUAFFFFAHmvhj/ktPjD/r3t/5CvQbq0t760ltbqFJreVSkkbjKsD1BFefeGP+S0+MP+ve3/kK73U7uax0y5ure1ku5ooyyW8Zw0hHYVdT4l6IbMMfDrwd/wBC7Yf9+qP+Fc+D/wDoXbD/AL91z/8AwsXxP/0TrV/++/8A7Gj/AIWL4n/6J1q//ff/ANjVWqd/xHZnTy+B/C81nBayaFYtBAWMSeUMKW64+tQf8K58Hf8AQuWH/fquf/4WL4n/AOidav8A99//AGNH/CxfE/8A0TnV/wDvv/7Glaff8QszoP8AhXPg7/oXLD/v1R/wrnwd/wBC5Yf9+qxrHx34hu7+3t5vAOq28csio0zOMRgnlj8o6dan1jxrr+m6tcWdr4I1K+gibCXMbjbIMdRwaLTva/4i1NL/AIV14OByPDth/wB+qfH4E8K28sc0Og2KvGwZSI+hHQ1zh+Inif8A6J1q3/ff/wBjSx/EPxKWwfh5qw/4H/8AY07T7/iOzPRdoI54NGSPQ1x2qeLdbstJ068g8I6hdTXSky20bjdbkdA3HejRfF2tanbX8t14P1Cye1gMkSSOM3Df3FyBzUcrtcVjsRk0orzgfETxN/0TnV/++/8A7Gj/AIWL4n/6Jzq//ff/ANjT9lL+mg5WekUVxmgeMNb1e6nivfB+o6ckcLSLJK4Idh0QZA5NZX/CxfEwJH/CutX/AO/n/wBjS5HewWZ6RRXm/wDwsXxP/wBE51f/AL7/APsaX/hYvif/AKJzq/8A33/9jT9lL+mgsz0ijNcZrfi7WtLSxNp4Q1C/NxAJZRE4/cMeqHAPIq54W8R6prxuf7R8OXmj+Vt2faGB8zOc44HTFTyu1wsZ/wAW/wDkmOsf7qf+jFrpfD//ACLml/8AXpF/6AK5n4t/8kx1j/dT/wBGLXQ+H7iD/hHdLXzo932SLjcP7gqn/DXqHQ16KMiioEFFFFABRRRQB5ov/Jwjf9gb/wBmr0qvNV/5OEb/ALA3/s1elVdTp6DYtI3SlpGqBHkGt5GuXu4H/Wt1+tYWtf8AIDv/APrg/wDKvSfiZHGnw91q4VFWZYBiQDDD5h361z2jwxTfAVriWJXnOmTkyMoLE/NznrXrwxy9mvd8j5j/AFen7b2qn1vt537mj8FP+Sa2f/Xeb/0I1N8Zf+SZal/vxf8Aoxah+Cf/ACTW0/67y/8AoVTfGX/kmeo/78X/AKMWvP8A+X3zPp3ucNpP/IGsv+uCf+girh71S0n/AJA9l/1wT/0EVdNfSx2R+UYj+LL1f5mH4quJxpaWNrk3N/KttGB33Hn/AD717loGkRaFoNjpcONlrCseR3OOT+Jya8Y1jShqkEQjuHt7iCQSwzJ1Rh0NJ9q8c/8AQ4zf9+Vrzsbh6taS5dj6vJMxweHw3JUlaV23o/lse9dK8F1K/wD+En+JWqaoG3Wmnj7HbHtkfeI/HP501p/HEilW8YzbWGDiIA4qTSdLi0ewW1jZn5LO7dWY9SajCYOdOfNM1zXOaE8NKnQleUtNnt13LtFBpK9Q+LCkoooAKKKSgYjKHUqwyrDBHtWt8HNRazk1fwtM3NpL9ots9426/kcH8TWUTzWZeaZeJqseq6TqMmn36IYzKgyGU9iK5cXQdaFlue7kePhharVV2jJfitj6Bz7V5p8ZNIefw7ba3bLm50mcS5HUxkgMPzwfzrkIr7xvkg+L5c/9cVqC+i8TazavYan4nnmtJOJYhGBuGc44rzaeCrQkpH1Es3wLi053Xox2oTrceFrq4i5Etszr9CK9U+Grb/h1oYP/AD6j+ZrzZbOKOx+xbd1v5fl7c87cYqjaDxPpNotlpfiWeC0jyIozGDsHXFdeLoTrJcp4+T5hhsOpxnK13df0j6A5DAZ4rwGT/koni3/r7H8jS/b/ABz38YTf9+V/wpumaa1kbie4uZLq8upPMnnfq7VGEwlSlU5pHRmuaYWthZUqUrt26PvfqX6KKSvTPjQrGvv+R08Kf9f6f+hLWzWLe/8AI5+FP+v9P/QlrHEfwmevkf8Av0Pn+R9HY714F48/5LfH/wBeif8AoDV77nnFeNanGkv7R9ikiB1NqMhhkf6tq8LDT5J83Y+7r0va0pU07XTX3kHGK7jwBnyL04OC6gH8DXJ+MFWL42eFbaIBIJI13xKMK3zP1HQ165HFHCmyNAi+ijArqxWMVSnyW3PCwGRywleNVzva/TvoSjpVXU/+QVef9cH/APQTVoVV1P8A5BV5/wBcH/8AQTXmrc+iOL+DP/JM9P8A9+X/ANDNd9XA/Bn/AJJnp/8Avy/+hmu+7VVT42N7i0UVwvxE8R6hpcWnaNoeP7Y1abyYHP8AyyUfef8AX+dTGLk7IR2klxBEcSTRofRmArzvxlrmq614mtPBvhy8FrJNF599fIcmGL0UjoT/AFFJa/BrQ5IhJrV3f6nfvzLPJcMuW74A7fXNZ3grQbDw38Y9c0zTo3S2j02NlDuWOSUJ5NaxUVdp3sUrGpH8FfCxjBupNSuZv4pZLo5Y+vFP/wCFJ+Dv+eN9/wCBTV38s0cETyzOqRICzOxwFA6kmsf/AITTwx/0MGmf+BKf41KnN7NiuzmP+FKeD/8Anlff+BTUf8KU8H/88r7/AMCmrp/+E08L/wDQwaZ/4FJ/jUreKNBS0jum1mwFvIxVJTcLtYjqAc9qfPU7sd2cn/wpTwd/zxvf/ApqP+FKeDv+eN7/AOBTV0//AAmnhf8A6GDTP/ApP8aP+E08L/8AQwaZ/wCBSf40c1TuwuzmP+FKeDv+eN7/AOBTUn/Ck/B3/PG+/wDApq6j/hNPC/8A0MGmf+BSf40+38WeHrqeOC31vT5ZpGCoiXCksfQDNHPU7sV2eGeOfCWleEvGek2ulpKsc1s8j+bIXOckdTXR+FtTtru2k8O6s+y0n5hlY/6p/Ynpn/PWtv4peDdX12+07WNFjS4ubRGikt2YKWUnOQTx61wP/CK+Ov8AoWGz/wBd0/xrhxVGtUqxqU7PSzu138z6PLcXhVg5Ua0uWV7p22elmjd8W6rBI8Oj6aR/Z9kNoK9Hbuff/wDXXMaHoNj4k+Ien6XqKyG2kt5GYRuVOQCRzVr/AIRbx3/0K7f9/wBP8a3fCfhbXtA1O78X67ZraJp1lKYbYSBmkO09cHgdanC4etCt7Sdlo+q+Rtj8dhPqXsKMrvTpv1bZ1n/ClPB3/PG9/wDApqT/AIUn4O/55X3/AIFNWTodl8QvFmkQa4vi2DT4rwGSO2jtQwRc8DNaf/CH/ET/AKH9f/AJa9O8lo5fmfL69yT/AIUp4O/55X3/AIFNR/wpTwd/zyvv/Apqj/4Q/wCIn/Q/r/4BLR/wh/xE/wCh/X/wCWleX8wa9yT/AIUp4O/55X3/AIFNR/wpTwd/zyvv/Apqj/4Q/wCIn/Q/r/4BLR/wh/xE/wCh/X/wCWi8v5g17kn/AApPwd/zxvf/AAKasPV9G1D4VNFrmiX11daEJFW90+5ffsUnG5T/AJ7da2P+EP8AiJ/0P6/+AS1T1P4feN9X0+axv/G8c9tMNskbWYAYde1NPX3pXQ792enW9xHdWsVxC26KVA6H1BGQakyM15ja+CPHllaRWtv46RIYUEcaCzU7VAwBzTLLU/FfhTxrpGja9q8WrWWrb0jkEQR4nUe3bpWfIujJseouMDIoOTGNtIXCttxxS8ryvT0qBCRk4INAyOB0pdxNKBQAAU6iigAooooAKKKKACiiigAooooA818Mf8lq8Yf9e9v/ACFekEhRknAHUmvN/DH/ACWrxh/172/8hXolzbx3VvJBMu6ORdrDOMirqbr0Q2H2q3/57xf99ik+1W//AD8Rf99isf8A4Q3RP+fVv+/jf40f8Ibon/Pq3/fxv8anQk2PtVv/AM/EX/fYoF1ASAJ4yT0AcVj/APCG6J/z6t/38b/GlTwjosciutq2VOR+8bt+NGgGw08KHa8sasOxYClWeJwSkqMB1wwOKy7zwzpV/cvcz25aV/vEORmnW3hvTLSOdIbchZ08uQFycj86WgzQ+1W//PeL/vsUn2m3z/x8Rf8AfYrI/wCEN0T/AJ9W/wC/jf40f8Idon/Pq3/fxv8AGnoBr/abfvcRf99inedEEDmRAh6MWGKxv+EO0T/n1b/v43+NWH8O6XLYxWbW5METFkG88E9ec0tBGh9qt/8An4i/77FH2q3/AOfiL/vsVj/8Ibon/Pq3/fxv8aP+EN0T/n1b/v43+NPQDY+025OBPFk/7YpzzxRnDyop9GYCsYeDtEBB+yt/38b/ABqa98N6ZqFybi5gLSEAEhyOnSloM0ftVv8A8/EX/fYoFzbsQBPET2+cVj/8Ibon/Pq3/fxv8aVPCOixyK62rZUgj943+NPQRsNPChKvLGrehYCnJJHJko6tj+6c1lXnhnSr+5e5uLctK/3iHIzxVjTdGsdKMhs4ihkxuyxOcfWloM5n4ucfDHWP92P/ANGLWHpXwd8KXejWVy6XwmmgjkZlumHzFQTj862/i3/yTHWP91P/AEYtdL4f/wCRc0v/AK9Iv/QBWik4w0fUq9kedWL6p8N/F2naPdahNqHh3VX8q2e4OXtpey59OR+fbFerDpXm/wAXf+Pfwye41mH+tekDpSnqk+on3HUUUhNQIWim5pM5oA82X/k4Rv8AsDf+zV6XXmVowvPj/evCd62ulCOYjorEjj9a9Nq6nT0GxaaadSEVAjy7xVq11qf9oaPcMpsXYxNGBjKg+vXtXP3mp3em+CLvSLWUJYx2skax7QcKQc8nnvXU+NdE/sjTNU8QCbzI4h5xhxgnJHGfxrnzor6x8M7jxAkwiSWyllEJXJGMjGfwr2qdTDezW33dT5B4bNfrF7vl5u+lr+p0vwT/AOSa2n/XeX/0KpvjL/yTLUv9+L/0YtQ/BP8A5Jtaf9d5f/Qqm+Mn/JMtS/3ov/Ri15n/AC++Z9e9zhtJ/wCQPZf9cE/9BFWz2qnpX/IGs/8Argn/AKCKuHtX0sdkflOI/iy9WJSUUUzEKKKSgApKKKQwoopKBhSUUUAFJRRQMM4INSMwC7gMk1EaUNhCtS0WmIJG55602lopiuFFFJQAUlFFAxaxb3/kc/Cn/X+n/oS1s1jXv/I6eFP+v9P/AEJaxxH8Jnr5H/v0Pn+R9HGvCfGN3PYfHiC4t32ypartOAcZRh3r3b2rw7xRYNqn7QFtaLIIzJar8xGcYjY14WGcVU9/Y+5xKm6M1T+Kzt69Cxeyyalr1prl0d9/ZgCCXGNuCT0HB6mvQ/CWr3WqQXH2tgzxsAGCgZBz6fSvP9XgOkeNdL8NM299QUMJxwEySOnfpXpXh7QTosEyNN5ryMCSFwBjpXbi50HStC1+mh87llDMoYiMq7fJru7m6OlV75GksLmJBlniZQPUkGrNIa8o+oPO/gvPG/w9gtww862nljlTurbicH8CK9ErzjVfBGuaRr1zrvgq/ht5bs7rqxuV/cyt6j0P+c1H9u+LY/5hGgn380//ABVaSSk+ZPcpq56XXm3ivn4y+Cx/0yuP/QTSfb/i5/0B9B/7/H/4qufE/im4+LvhU+J7Sxt5gk3ki0fcCu05zye9VCFm3dbMEj2mvONI/wCS9eIP+wZF/wCyV6PXnGkf8l68Qf8AYMi/9kqIbP0Eup6DdW0N5ay21zEssEqFJEYZDKeCDXMf8Kw8Ff8AQvWn/j3+NdJf3D2lhcXEVvJcSRRs6wx/ekIGdo9zXA/8LL13/onmuf5/4DSipPYFfobf/CsPBX/Qv2n/AI9/jUz+APCkllFYtodqbaF2kRMH5WbGTnOecD8q57/hZWvf9E81v8v/ALGj/hZWvf8ARPNb/L/7GrtU7/iO0jb/AOFYeCv+hetP/Hv8aP8AhWHgr/oXrT/x7/GsT/hZWu/9E71z/P8AwGpLb4ia5cXUML+AdbiSRwrSN0UE4z07UWqd/wAQ941/+FY+C/8AoXrT/wAe/wAaltfh54SsbqK6ttBtI54XDxuASVYdDyaz9d8b6vpOrzWVt4M1bUIo8bbmD7j5GeOD9Kz/APhZevf9E81z/P8AwGklUa3/ABFqekdKK83/AOFl692+Hmuf5/4DWtfeMtUtdA0/UY/COqTz3RYSWaY32+Ohbjv24qXCSCzOxrD8af8AIka5/wBeM3/oBqh4X8Walr97NBe+F9R0lI494lufuuc4wOBzV/xp/wAiRrn/AF4zf+gGkk1JJh1OT0XW5PDfwLs9XijWSW2sAUVum4tgZ9smqWmeFfHGtaXa6nP48nt5LuJZvJitxtQMMgDkdj6VXvP+Tak/68U/9GCtvxF4iuvDHwjsL+xCi7a1toYmYZCFlA3Y9hmttem7YyD/AIQLxp/0UW9/8B//ALKj/hAvGn/RRb3/AMB//sqbB8PfE89vHLcfEPVlmdQziNflBPp83Spf+FceIv8Aoomtfl/9lT5vNfd/wAuM/wCEB8af9FFvf/Af/wCyo/4QHxp/0UW9/wDAf/7Kn/8ACuPEX/RRNa/L/wCyo/4Vx4i/6KJrX5f/AGVHN/eX3f8AAC4z/hAfGn/RRbz/AMB//sqQ+AvGY6/EW9/8B/8A7KpP+Fb+Iv8Aooms/l/9lSH4b+Iv+iiaz+X/ANlRf+8vu/4AXFPgPxhtAPxCvPr5H/2VZ138K/El5f2l9c+OLie5s2LW8j2/MZPXHzVpL8OvEBQqfiFrB98f/ZUH4eeIFAUfEDWD9R/9lRzf3l93/AD5kWhX+vaD49g8M6zqo1aC8tWngndNjxlc5B9uD+lek5GMCvL5/hTqU+pQ6hJ411I3sKlI5zHl1U9QDu4HNWfBuoa3pXjnUvCOr6m2qRw2q3UF1IuHAJGVPr1/Somk9UwauekAU6kFLWRIUUUUAFFFFABRRRQAUUUUAFFFFAHmvhj/AJLV4w/697f+Qr0O6M620jWyK84U7Fc4BPvXnnhj/ktXjD/r3t/5CvRpZo4IWllcJGgyzN0Aq6m69ENnP/afFn/QPsf+/n/16PtPiz/oH2P/AH8/+vV//hJNG/6CMH/fVH/CSaN/0EYP++qn5ElD7T4s/wCfCx/7+f8A16tJNr39myO9pai8DjYgc7Svck+tTDxJoxOBqMH/AH1Us+sadaTCG4vIo5CAQrN2PSgCpbTa61lctcWtqtyuPIVXOG9c1V+0+LP+gfY/9/P/AK9alzrOm2c3k3F7FHJgHax5xUX/AAkmjf8AQRg/76oAofafFn/QPsf+/n/16PtPiz/oH2P/AH8/+vV//hJNG/6CMH/fVS22sadeM6295FIUUswVugHej5AVTNr39lBxaWv27zMGPeduz1z61V+0+LP+gfY/9/P/AK9advrmmXUywwX0MkjfdUNyaY/iHSI5GR9QgDKcEbuhoAz/ALT4s/6B9j/38/8Ar0fafFn/AED7H/v5/wDXq/8A8JJo3/QRg/76o/4STRv+gjB/31R8gKH2nxZ/0D7H/v5/9epba48SNcxC5srNYCw3ssnIHtzWhJrGnRW0VzJeQrDLnY5bhvpUP/CSaN/0EYP++qAKtzceJFuZVtrKzeAMdjNJyR781Lp82vPM4vrW1jj2EqUckluw69Kl/wCEk0b/AKCMH51MdY05bRbs3kIgZtok3cE+lAGV9p8Wf8+Fj/38/wDr1o6VJq0nm/2nbwRYxs8ps59c03/hJNG/6CMH/fVWrPUrLUN/2S5jm2fe2HpQByfxc/5JjrH+7H/6MWul8P8A/IuaX/16Rf8AoArmvi5/yTHWP92P/wBGLXS+H/8AkXNL/wCvSL/0AVT/AIa9SuhwPxnM66ZoLWqK9wNVjMSucAtg4B9s4qcan8WP+gBof/gQf/iqT4vf8e3hn/sMw/1r0lelVzWitB30POP7T+LP/QA0P/wIP/xVIdT+LP8A0AdD/wDAg/8AxVekE00nJqeddkK552mqfFUjDaDog/7bn/4qo3l+K14rW4s9FsA/H2gSFinuBk/yr0Zzj5QKcjZGD1o5/JBc5XwX4Ni8J2k7PcNealeP5l3dydZG9B6AZNdWKTkHGeKcKltt3YgFGap6nqNtpOm3GoXb+Xb28Zkkb0ArzWxu/Hvj1DqVhfw+HdHcn7MDEJJZV/vHP/1qIwvrsh2Nv4ialaX/AIS1fRraUPfSRBFjAON24HGenauesdUtNN+C8uj3UhS+j06aNowpPzHdjnp3qrd2V5ZXUlveyvcXKHEk5Tb5p/vY96y9aQ/2Df5U/wCoft7V7EcFS9mtX3PkXnuLWI9lyq3NbZ97Hb/BT/kmtn/13m/9CNTfGT/kmWpf70X/AKMWofgn/wAk2tP+u8v/AKFU3xjBPwy1LAzhoif+/i15v/L75n1r3OE0n/kD2X/XBP5CrhqlpJB0ayIOR5CfyFXTX0kdkflWI/iy9X+YlFFJVGIUlFFIYUUUlABSUppKACkoooGFFFJQOwUlFFIAoopKBhSUUUDsFJRRQAGse8/5HTwp/wBf6f8AoS1sVj3fPjbwoo5b7ehx/wACWsMR/CZ7GR/79D5/kfR2MV4rrV5FYftEWdzO22NLUbjgnrGwr2vtXgXjwE/G+MAZ/wBFT/0Bq8PDRU6nK+p9xiakqVGc47pNmz4mmTUvit4d1u2O/T7NAs8hGCpyx6dT1Feq6fqlpqcRktJfMVThuCCPzryHY39xvyrufAcbpb3jshCM64JHXANduLwtOnT5k9j57Lc5xOJxEaVSKs77J9jtaKQdKWvKPpwpCaU0zIB5oAXNeb+Kz/xeTwWf+mVx/wCgmvR2HcVwfxJ0PUrg6V4i0SLztS0eUyiHvLGcblHvx/Oqh8Q1ud7mvONH/wCS8+IP+wZF/wCyVY074veE7m3DX14+nXI4kt7mJgyN3GQOayfCGs6frvxn12/025W4tX02MLIoIBIKA9ferjGUVK66DSauerHgVH58P/PWP/voUk8KXEDwyDKOpVhnHBrE/wCEK0X/AJ4y/wDf01krEm558P8Az2j/AO+hR58P/PaP/voVh/8ACFaL/wA8Zf8Av6aP+EK0X/njL/39NPQRuefCTjzU/wC+hQ0sanDSIp9CcViL4M0ZWDCGXIOf9aamvvDOmajdNc3EchlYAEiQjpxRoBrrIjZ2urY9Dmm+fD/z2j/76FZln4b02w87yInHnRmN8yE/KetVv+EK0X/njL/39NGgG558P/PWP/voUefD/wA9U/76FYf/AAhWi/8APGX/AL+mk/4QrRf+eMv/AH9NGgG8kiOflZWx6HNYvjT/AJEjXP8Arxm/9ANWdN0Cw0mV5bSN1d12ks5PFVvGn/Ika5/14zf+gGiPxIaPPbz/AJNrX/rxT/0YKl+Iv/JFtI+ln/6CKivP+Ta1/wCvFP8A0YKl+Iv/ACRbSPpZ/wDoIrdfEvUrqbnxI1zUtJ8N6XbaVP8AZrvUrqK0FxjmIMOSPeqY+F2pcb/Hmvlu+JMDP50z4qf8enhD/sLwfyqz8SdQ1JtQ8PeHtNvpLD+17lo5rmL76ouOAe3WpV7Ll63BDP8AhVuo/wDQ++IP+/v/ANek/wCFW6j/AND74g/7+/8A16T/AIVIv/Q3eIv/AAKpf+FSL/0N3iL/AMCqfP8A3vwC/mH/AAq3Uf8AoffEH/f3/wCvR/wq3Uf+h88Qf9/f/r0n/CpF/wChu8Rf+BVH/CpF/wChu8Rf+BVHP/e/AL+Yo+F2oqwP/Cd6/wD9/f8A69K/wu1BmyPHWvj/ALa//XpP+FRr/wBDd4i/8CqT/hUa/wDQ3eIv/Aqjn/vfgF/MX/hVmo/9D54g/wC/v/16q/8ACnpVv2vx4y1oXjJ5bThhvK+hbOcVa/4VGv8A0N3iL/wKo/4VGv8A0N3iL/wKo5/734BfzJPh7qWqw694g8L6tqD6gdMdDDdSffZGGcN+n616JXlyfBm1hnluIfE+uR3Eo+eVZgGbHTJxk1pfDDVNSurfWdJ1S7a8l0m+a2S5f70ids/lUTSd5RYPXVHoFFFFZkhRRRQAUUUUAFFFFABRRQaAPNfDH/JavGH/AF72/wDIV6NLGk0bRyKrowwVYZBFec+GD/xerxh/172/8hXoNys0ltIlvII5ipCOwyAfXFXU3Xohsr/2FpX/AEDrb/v2KP7C0r/oHW3/AH7FZf8AZ/igf8xm3/78j/Cl/s/xR/0Gbf8A78j/AAqfmSaY0PSgQRp1tn/rmKkm0yxuZRLPZwySAABmQE4HSsj+z/FH/QZt/wDvyP8ACj+z/FH/AEGbf/vyP8KPmBrz6XYXUnm3FnBK+MbnQE4qP+wtJ/6B1t/37FVriz1t7G2SHUoUuFz50hiGH9MccVV/s7xR/wBBm3/78j/CgDT/ALC0r/oHW3/fsVJBpljasxgs4Iyw2sVQDI9KyP7P8Uf9Bm3/AO/I/wAKWOw8SiRC+sW5UEbh5I5H5UfMDVh0nT7eUSwWUEci9HVACKa2i6Y7s76fbFmOSfLHJqnfWevS3bvZ6lDDAcbUaLJHHriq/wDZ3ij/AKDNv/35H+FAGn/YWk/9A62/79ij+wtK/wCgdbf9+xWfBYeI1njabVoHiDAuoh6juOlPurHxBJdytbapBFAWyiGIEqPTpQBovpljJAkD2kLRR/cQoML9Kj/sLSv+gdbf9+xRpVvqUEcg1G8juWJGwom3ArRpDM7+wtK/6B1t/wB+xUh0yxNsLY2kPkA7hHsGAfXFXaKAM7+wtK/6B1t/37FT21haWW77LbRQ7vvbFAzVqigDiPi5/wAkx1gf7Mf/AKMWqukfE3wba6FYQza7AssVvGjrsckMFAI6Va+Ln/JMdZ/3I/8A0YtXNC8L6A2g6dI2i6c0jW0TFjbISTtHJ4rRcvJr3K0tqcct9N8UvGOly2VtNH4b0ib7Q1zKpX7TKOgUen9M16yOKjjijgjWOJFRFGFVRgD6CpNuQMGok76LYTYdaNvcHkUL/EueaaisH9qQhxCt160HGMCkIy1OAoAAKdRRQBwPxjdk+Gmo7WIDPEpx3G8V1+kQpDo1jFGoVEt41UDsAorjfjM6r8Nr1SwBaWLAJ6/OK7TS3R9KtGRgymFMEHI+6K0f8Ner/QfQtbFPVRWJ4wh3+DNbVEBY2M2AB/sGt2o5oknheKRQyOpVlPcHgioTs7k8sex558EpEf4b26qwJS4lVvY7s/1Fdxq2mWus6Xc6deR+Zb3CGORfY+nuOteM6Fqc3wi8YXeiauJDoN7J5ttcgEhPRvywGHsDXtNjqthqVstxZXsFxCwyHikDD9Kuompcy2Zclrc8hPwc8RWTtDpHilEswTsSaM7lHpxkUf8ACp/Gn/Q12v8A36P+Fez+an95fzoLof4x+daLFVl1OaWFoSfNKCb9EeM/8Km8af8AQ12v/fo/4Uf8Km8af9DXa/8Afo/4V7N5if3x+dHmJ/z0H50/rdbuL6nh/wDn2vuR4z/wqbxp/wBDXa/9+j/hR/wqbxp/0Ndr/wB+j/hXs3mJ/wA9B+dHmJ/z0H50fWq3cPqeH/59r7keM/8ACpfGn/Q12v8A37b/AAo/4VL40/6Gu1/79t/hXs3mJ/fH50ean98fnR9arfzB9Uw//Ptfcjxj/hU3jT/oa7X/AL9N/hR/wqbxn/0Ndr/36b/CvZ/NT++v50eYn99fzo+tVu4fVMP/AM+19yPGP+FTeM/+hrtf+/Tf4Uf8Km8Z/wDQ12v/AH6b/CvZ/MT++v50b0/vL+dH1ut3F9Uw/wDIvuR4v/wqXxn/ANDXa/8Afpv8KX/hUvjP/oa7X/v03+Fez70/vr+dHmR/31/Oj63W7j+qYf8A59r7keL/APCpfGf/AENVr/36b/Cj/hUvjP8A6Gq1/wC/Tf4V7R5qf3l/OjzU/vL+dH1qt3D6ph/+fa+5Hi//AAqXxn/0NVr/AN+m/wAKP+FS+Mv+hqtf+/Tf4V7R5qf3l/OjzU/vL+dH1qt3D6ph/wDn2vuR4v8A8Kk8Zf8AQ1W3/fpv8KP+FSeMv+hqtv8Av03+Fe0eZH/eX86N6f3l/Oj61W7h9Uw//Ptfcjxf/hUnjL/oarX/AL9N/hR/wqTxl/0NVr/36b/CvaPMj/vr+dHmR/31/Oj61W7h9Uof8+19yPFv+FR+MT/zNVr/AN+2/wAK3vCPwqfRtbTW9c1T+0r6H/UKq4SM+vPU+nSvS/Mj/vr+dIZE/wCeg/OpliKslZsuFClTd4QSfkkiToK8dusT/tJ2wTDeXafP7fum/wARXbeK/H2h+E7GSW5uo5roA+XaROC7n+g9zXJfCnQ9SvtV1DxvrUZS61HIt0YYwhPJx2HAA9h71ME4pyZulpc9W8tcfdX8qUKB0GB7U6isrmfKkKKKKaTQUKTTQM8npRgmhRgFT3oAaHAbH8NPbPUYxTRHzyeKX2HSgChc6Npd7J5l1ptnO56tLArE/iRXBeHbS2svjjr8FpbxQQjTIiI4kCqM7Owr00CvOdH/AOS8+IP+wZF/7JVwbs/Qa6noU5lS3kaBFeUKdiscAnsKwftviv8A6Bdn/wB/f/r10MkiRRtJIwVFGSxOABWf/b+kf9BG3/77FQhGd9s8V/8AQLs/+/v/ANej7Z4r/wCgXZ/9/f8A69aP9v6R/wBBG3/77FH9v6R/0Ebf/vsU/kIhhuNdbT53lsbZbsMBFGJPlYd8mi0uNde2uWubG2SZV/cqsnDn39KuXGq2Fq6pPeQxsw3AM4GR60XGq6faSCO4vIY3I3AM4Bx60AZH2zxX/wBAuz/7+/8A16Ptniv/AKBdn/39/wDr1o/2/pH/AEEbf/vsUf2/pH/QRt/++xR8gM77Z4r/AOgXZ/8Af3/69H2zxX/0C7P/AL+//XrWt9VsLuQx295DI4G4hXB49ai/t7SP+gjb/wDfYo+QEelz6xLM41GzggjC/K0b5JPpUHjT/kSNc/68Zv8A0A1o2up2N67Ja3UUzKMkI2SBUOv2D6r4f1HT42CSXNtJErHoCykDNC0aGjzO8/5NrX/rxT/0YKk+Iv8AyRbSP+3P/wBBFcxq2vavpXwruPCWqeGNRhmghEJvQuYMBwQxb9K6b4if8kV0j/tz/wDQRW9mmvUrqXvip/x6eEP+wvB/KpfHv/JRvAf/AF9S/wAlqL4qf8enhD/sLwfyqXx7/wAlG8B/9fUv8lpLZfMF0PSaKKKwJIJZUgieWVgsaKWZieAB1Jrgj8T3lVruz8OX9zpSk/6WrqrOo6ssZ5Irs9ZsDquiX1gH8s3Nu8If+7uUjP615VaajqmlafFpE/hzU31OCMQokMBaKUgYDB+gU8HnpXJi6tenFOhDmd9fQ3oQpyvzux61pmo2uradb39lIJba4QSRuO4NW653wRo0/h7wjYaddspuUVmlCnIVmYsQPYZx+FSa14u0Xw/d2lpqd6kE102EU84H95v7q54ya60r7GPXQ36KapBUEHIPII706gQlebfDD/kP+N/+wu3/ALNXpNebfDD/AJD/AI2/7C7f+zVcfhY1selCigUVAgooooAKKKKACiiigApDS0wmgDzfww2PjT4wz/z72/8AIV6QRyCOledeGQF+Mfi5j1MEH8hXoaPg4PSrqbr0Q2OIJalGR1obI5BoGc1Ah1FFFABRRRQAUUUUAFFFFABRRRQAUUUUAJRWXr/9rjR5zoQtjqPHlC5zs685x7ZriN3xe/55+Hvzamo36jSPS6K813/F7/nn4e/Nq6TwqfGB+0/8JSumgfL5H2MnPfOc/hTcLK90FjP+Ln/JMdY/3Y//AEYtdJoH/IuaX/16Rf8AoArm/i5/yTHWP92P/wBGLXR6Af8AinNLP/TpF/6AKb+BeodDRYhRimq5UDKnHrTty9SOaVW3EjHFQIQplgynFGW6ZpBkEgdKcBQAAU6iigApDS0hoA+aNdml8WeL9Yn1aSR47S5e3gttxCxqpI6fhXT/AAmvrrTPGd34djmkl06W2NwsbtkQsCOnpnP8q6jxT8KLfWtZl1fS9Tl0u7n5n2pvSQ+uMjBrX8E+ALHwes863El5f3IAmupRgkf3QOwr06uJoSwypxj7xhGnUVZzcvda2OyFIaWivMNzL1nQ9M8QWDWWqWcdzA3O1xyp9QeoPuK84uvgNoplZ7LVdRtEP8AZWA/HANetUN90/SqjOUdmF2j5oufAEcFzLCNXvCI3Zcnvg4roNA+DtrrNg1w+v30REhXaqg9APf3rSv8AI1K6/wCuz/zNEHgLVfEyfbbLxPdaZGD5ZhiDYJH8XDD1/SvZxMIxpcy02PlsqzDE1sY6dSV46mT4i+EVvocMEkWvX0pkYghlAxgfWsnTPh1Ff6lBatq94iyOFLAA4rqrjwVqXhULNfeILjVVn+RVlDfuyOcjLHrUcenTavINPgu3tJrj5FnTO6M+owRTpQjKhzN3euoY7McTTzFUoStG60062uWj8BrQKT/wkmocD+4P8a4ZvAcasR/a13wcV3R+EPiBRu/4Ty/OO2H5/wDH6oFShKEkleCfWssElPm5nc6c+xtfDcnsZWve/wCBHonwZtdW0xLx/EF/GWJG1VBHBx61S8RfCe30SSBY9dvpfNBJ3KBjGPf3rdi+Hmq+IoV1Gz8U3enRP8ogjDYGOM8MOv0pk3hPUPC0ey91ufVGnyVaUN8mOwyx65/Sop2ddxvprob4nFV4ZYq0Ze/Za+tjmNG+GsOqapDZtrF7GsmfmUA4wM+tdRN8CbSK3kkHiPUCUUtjYOw+tQQ6Pc6/KNOtb6SwmlyVuY85THJ6EHtjr3q0fhNr9upmbxxfSLH85Qh/mA5x9/vTxSUaiSlYWT4qvXwkqlSV2m/yRwv/AAgkf/QWu667Svgna6jpcF23iC/jaRclQgIHP1pe2atR/DPWtZiXULbxheWUM43LboHwg6YGHHp6VrjIxhBOLtqcWRY/E4ivKNWV0l5dznfEHwsg0a8jgj1y9lDR78sAO5Hr7VHoXwxh1fUhaPrV7GChbcoB6fjXQXHhq+8Lt9lvdXm1N5PnWWXOVHTbyx9M/jRDoN34kf7BZ6pLpspG/wC0RZzgduCOufWqUI/V+e+ttyJ5jiVmfsVL3bpW02Ev/gfaWdhPcDxHqDGNCwBQc4H1rjf+EFj/AOgtd13T/C7XNNRr2bxne3MUA8xoGD4kA5Kn5+9U+1TgoxnFuTua57j8Rh6sI0pWTRLYfA+1vLC3uW8RagpkjDlQg4yPrWBrvwxh0jU/sses3sg2BtxAHX8a6ZPhbrmoot5D4zvrWKceYsCh8Rg8hR846VXn0C78NS/YbzVJtRlx5n2iXOcHtyT0x61lhrSquLlda6HXmeLrUcDGrCVpO34oxfD3wrg1u8lgk1y9iCJvyoBzzj1rX1b4KWunaZPdr4hv3MS5ClQAecetSW/hq+8TsbWx1ibTHjG9pYg2WHTacEeufwqaT4aazo0bahc+L729hgG5rdw+1x0wcufr0orJRrqKdlpoGBxdepl8qs3eST19Njh/+EEj/wCgpd121v8AAu0nt45T4j1AFkDYCDjI+tV+1XF+E+v3CidPHF9Gsg3hAHwoPOPv9q0xsYwS5XY58gx2IxMpqrK9rfqcnrPw1i0zVZrNdZvZBHj5iACcgH1q74b+FFvrklwsmuX0XlBSNoBznPr9K1ZtHudBc6fd38l/NF965kzufPPcn1x1rsPAH+uvT/sp/M1VWKjhudb2Wpz4bMcTPMnRlL3btW9LlXQPg34Y0a5S6mSbUbhDkG6YFAfXaBg/jmvRFUKoAGAOwpaK8WUpS3Z9W3cWkJoNN6n2pCF6mmnI6igsqsOaU4kU4NACSEjGOlLndHz1oBYD5hRnPtQAgye9PAoApaAErzfR/wDkvPiD/sGRf+yV6RXm+kf8l68Qf9gyL/2Srhs/Qa6noskaSo0cihkYYZSMgiqH/CPaR/0Drf8A74q5OsrwSCFlSUqQjMMgHsawfsXiv/oKWn/fv/61QiTS/wCEe0j/AKB1v/3xR/YGkf8AQOt/++BWb9i8Vf8AQUtP+/f/ANaj7F4q/wCgpaf9+/8A61P5ga9xpVhdOr3FnDIyqFBZAcD0ouNJ0+7kElxZwyOBtBZATj0rI+w+K/8AoKWn/fv/AOtW1p8d3FZot7MktwM7nRcA+lAFf/hH9I/6B1v/AN8Cj/hHtI/6B1v/AN8Vp0UrjKNvpOn2khkt7OGNyNpKrzj0qL/hH9IP/MOt/wDvgVp0UAU7XTLKycva2sULMMEouCRVulpM0Ac9410WbxD4O1PSrdlWe4hxGWOAWBBAP1xivHfGXiDXZPANpoOreF72wa1kgja8Y5iYpwMcd/rX0Ga5H4i+HLnxP4PudPsmUXYdJogxwGZTnbn35rSnJJpMqLOf+Kn/AB6eEP8AsLwfyqbx7/yUbwH/ANfUv8lrj/FXiHxDqkvhiy1nwzPpnkapAftDSbkkcHGAMfU9a6/x7/yUbwH/ANfUv8lrS1rX8x9j0qiiq15d29haS3V3KkNvEpeSRzgKB61zkBeXdtY2kt3dypDbwqXkkc4CgdzWL4b8YaT4qWf7A8qSwn5oZ02PtP3XAPVSOQawLa2uviHeR6hqEclv4ZgffaWjjDXrDpJIP7novetjxL4WbUmg1PSJlstbsx/o9wB8rr/zzcd0P6VVorR7jsiTxP4n/sfybCwg+261efLa2in83f8AuoO5qvovgu2gs7yXWymqanqK4vp5UyGH/PNB/Cg7fnWX8Ofs8kuoTaiZW8V78akJxh0GflCD/nljGMV6CKH7uiB6aHn9peXXw/vYtM1SaSfw7O+yyvpDlrUnpFKf7vo34V3ykMoIIIPII71BfWVtqVnLaXkKTW8ylZI3GQwqj4f0QeH9LXT1vLi6hjdvJM5y0aHome4HbNJtPXqBr15t8MP+Q/42/wCwu3/s1ek15t8MP+Q/43/7C7f+zVUfhYLY9KFFAoqBBRRRQAUUUUAFJmkJpAN3egAJo2570mNrDJpHVt2RQB534edYvjP4ohlO15LWF0B/iAC5Ir0YBVHrXEeNPCOoX+o2niLw7cpba5ZjaBJ9ydP7jfrWYvjLx7AoiuPALyzLwzw3Q2H6df51o481mirXPSgKUV5v/wAJz44/6J5c/wDgUP8ACj/hOvHH/RPLn/wKH+FL2Uv6aFY9JyKMivNv+E58cf8ARO7n/wACh/hR/wAJz44/6J3c/wDgUP8ACj2cv6aCx6TkUZFebf8ACc+OP+id3P8A4FD/AAo/4Tnxx/0Tu5/8Ch/hR7OX9NBY9JyKMivNv+E58cf9E7uf/Aof4Uf8Jz44/wCid3P/AIFD/Cj2cv6aCx6TkUZFebf8Jz44/wCid3P/AIFD/Cj/AITnxx/0Tu5/8Ch/hR7OX9NBY9JyKMivNv8AhOfHH/RO7n/wKH+FH/Cc+OP+id3P/gUP8KPZy/poLHpORRkV5t/wnPjj/ondz/4FD/Cj/hOfHH/RO7n/AMCh/hR7OX9NBY9JyKMivNv+E58cf9E7uf8AwKH+FH/Cc+OP+id3P/gUP8KPZy/poLHpOaQmvN/+E58cY/5J5c/+BQ/wpP8AhOPHDdPh5c/+BQ/wo9lL+mgsaHxcdB8NtVQsF8zy0XPc7xx+ldRokbR6BpyHIZbWJSD6hRXAQeH/ABR441S2uvFkEWm6TauJY9Nifc0rdi5/z9Oc16dtwAqjCiiVlFRB7WCnZ4wBSYGeKcBUCEAp1FFABRRRQAUUUUAFFFFABRRRQAUhGaWigDMl0PTbiVpZbKFpGOWYryatQW0NpEIoI1jQdAowBVijHvVOcmrNmUaNOMuaMUn6FW5sre9j8u5hSVM5wwzzUNvo2n2kolgtIY3HRlXkVf7UZyODQpySsnoDo05S53FX72EYZFeZeMbaOH4ieErWGNY4LyWX7RGowJcAfeHevTeSOK858ahl+J3gdscebMP0FVRk4vR9ypUoVNJxT9T0CGKK2hWKFFRF4CqMAUy7sra+QLcQpIqnIDjODU5TJyDTsbQMVF2ncHTi48rWnYo2ul2dnIZILaON8Y3KvNXsZ4I4oxTu1Dbbu2EKcYK0VZHmGs2sMfxh0DTkjRbO4s5pJYAPldhuwSPwFelRxJDGEjUKijACjAArzzXf+S6eGf8AsHzf+zV6P9K0qSk1G76CjRp09YRS9EVLzTrS+2/abeOXb03rnFJaaZZWTM9taxRMwwSi4Jq4BxRjio55WtfQXsafNz8qv3tqMZA6kMAQRgg9DXmZtYf+F1jS/KT7D/ZXnfZ8fJv3fex616fXm5/5OBX/ALA3/s1XSlJXs+g5UadT44p+qPR1UKoUAADgAdqp3ml2V6ytc28crKMAuuTV4UVmpNO6Y5QjNcsldFOz020sd32a3ji3fe2LjNTyRLLG0cihkYYZWGQRUtIaHJt3bCMIxjyxVkeZaLawyfGDX9OeJGs7ezhkhgI+VGO3JA/GvSwoUYArznRWEPx28RxudrS6dCyA/wAQG3OK9INaVpOTV30QRpU6fwRS9EUrvSbC8fzLm1ikkxjcy5NPtLC1skZLaCOIMckIMZq0BxRjio55NWvoSqNNS51FX721HCiimk1JqKaQdCKTBNIeuDQAuEXrQQBhl4rNv9c0fS5Ej1HU7S1kf7qTTKpP4E1fimjuIVkhkV42GVdDkEexosA/JanAUAUtABRRWP4o1f8AsDwzqOqrGJGtYGkVT0J7Z9s4pLV2A1s15xpH/JevEH/YMi/9krmbA+PdbsINTfxebX7UglEMUC7UB5AH4VDF4T8Vw6xNq0fi91v54xFJOIBuZRjAPbsK5P7UwVNyhKor7bP/ACOpYWo1ex7pmjNeM/2Z47/6Hmb/AMBxR/Znjv8A6Hmb/wABxWf9q4L/AJ+L7n/kH1Or2PZs0Zrxn+zPHn/Q8zf+A4o/s3x3/wBD1N/4Dij+1MF/z8X3P/IPqdXsezZozXjP9meO/wDoepv/AAHFH9mePP8AoeZv/AcUf2pgv+fi+5/5B9Tq9j2bNGa8Z/szx5/0PM3/AIDij+zfHf8A0PU3/gOKP7UwX/Pxfc/8g+p1ex7NmjNeM/2Z48/6Hmb/AMBxR/Znjz/oeZv/AAHFH9qYL/n4vuf+QfU6vY9mz7UnU9a8a/s3x3/0PM3/AIDihdK8dsc/8JzNj/r3FP8AtXBf8/F9z/yD6pV7HsZ4IBpSea8XfXfFvhG9sLrUddGq2U1ysE0MkQU4PcH1r2ckY5H6V1UqtOrBTpSun1MKlOVN2kcd8RvDmoeINFtX0kob/T7pLuGOQ4WQr/DmuG1HWPEOq/ETwYNe8P8A9lGK6fyz5ocSEgZ6dMYH517Zx2rh/iB4c1bU5tH1nQhC+paTOZY4ZjhZVOMjPrxXTTn0fmJM7kdKytZ0Gw1+3gg1CN5YIZVm8reQrkdAw/iHsa4v/hJ/iZ/0JNp/4GD/ABo/4Sf4l/8AQkWn/gYP8aSpyWzX3isz0dQEUKAAAMADoKca82/4Sb4l/wDQj2v/AIGL/jVPVPHPj/RtMn1G/wDB1nDawLukkN2DgZx0B96PZSfb7wsehTaHp0+tW2rvbgX9ujRpMpKnaeoOOo+taVeY2njH4i31nDdW/gu0eGZBJG32sDKkZB5NTf8ACT/Ev/oR7T/wMX/Gh031f4hZnpNLXmv/AAk3xL/6Ee1/8DF/xo/4Sb4l/wDQj2v/AIGL/jT9k+6+8LHpJ6V5t8MP+Q/43/7C7f8As1B8S/EsjjwTZg9j9sH+Nanw88NajoVlqN3rLR/2lqd011PHEcrHnooP50W5Yu7HsjthRRRWZIUUUUAFITS000AHAGTTA+GJA60/Ixg0m8A4AoACBIPej5lHJBoYYbI/GgcnmgA69acBQBS0AFFFFABRRRQAUUUUAFFFFABRRRQAUUUUAFFFIaAFppNBNIOTigADdjQ5KD5RRhCcd6B8p2nkdjQAA7kz0IoBY0HAGBSgUAAFOoooAKKKKACiiigBKKwvFHirTPCWl/bdQdvmOyKGMZeVv7qiuRj8ceOr1RPY+ApBbPyn2i5COR6kHGKpQbVxpHpdFeb/APCXfEb/AKEKP/wNWj/hLfiL/wBCFH/4GrT9k/L7wsekUV5v/wAJb8Rf+hCj/wDA1aP+Et+Iv/QhR/8AgatHsn5fegsekUV5v/wlvxF/6EKP/wADVo/4S34i/wDQhR/+Bq0eyfl96Cx6RRmvN/8AhLviN/0IUf8A4GrR/wAJd8RScf8ACBx/+Bq0eyfl94WPRyaQg150/iv4gqv/ACI0e7/r8WlXxb8QGwP+EGjz/wBfi0ezfl94WPRATs4615v4uk874qeC7ZPmkRppGUdQuOp/I0N4n+I7EpD4JgVm6PJdgqPc8itDwl4S1C21ifxJ4juUutbuE8sLH/q7dP7q/wCfzzmmly6tjWh2/IJweKcBQBTqzJCiiigDzbXf+S6eGf8AsHzf+zV6RXm+u/8AJdPDP/YPm/8AZq9J71pPaPoNhRRRWYhK82P/ACcCv/YG/wDZq9JrzY/8nAr/ANgb/wBmq6fX0Gj0qiiioEFFFFAHC+NvCF/qOo2fiLw9cpa67Yjam/7k6f3G/M/nWanjbx3bqIrn4fzSzLwzwXI2MfUcH+demUlUp6WauO55t/wnvjX/AKJ3ef8AgSP8KX/hPfGn/ROrz/wJH/xNej0hODT54/y/mF/I84/4T3xp/wBE7vP/AAJH/wATSf8ACe+M+/w8vP8AwJH+FekYBOaQOpOMUc8f5fzC67Hnp8c+Msg/8K/uwo/6eR/8TUbeO/GbIzf8K9u1ABwTcD/CvRslTjqKUkntRzx/l/ML+R82aBp1r4lhutY1hftl/cTP5pkJ/d89AO1dz8HLia31HxDoccrzabZyI0G458stnKg/h+lams/CHTNR1Sa+sNRvdLa4YtPHbMNjk9SB2rq/C/hTTfCWl/YdNjYBm3ySOcvK3qxrerWhKFkctKhUhVlUlK6ey7G8OlFFFcp0gK5P4l/8k413/r1P8xXWCuT+Jf8AyTnXf+vVv5imtxrc5jwz/wAippX/AF6x/wDoIrVPQ1leFznwrpWP+fWP/wBBFaxr80xS/wBol6v8z6KHwo8007W762uGllupZI5NLIUO5P74Fip+px+lTRahqEem+H3a8nY2i+ddsXJ8xTMI/m9eCx/CttfBUXlW6Pds3kyQuCExnYWJHXod2PwoPgi2ktpop7h5HaDyYnGV8v5mbOAeeW7+le7LFYNu/munS1v1MFCZnXlzKr3l1/aNxHctcXcSJucxsiI2FAHyqQQDng8GtLT5lg8IXl7ayXwnFoXLXRcneEzld/bPpxT5PCkkryI+oE2zPJKsflDIkdCpOc8jknHv1rQtdKuhpM2nX96lxE8PkKY4fLKrt2+pya5a9ei4R5XfVXWu19ttbFRUr7HJ3Ey2pt7YajqEkTy2xniVpTKCyOWKnqQ3HA9DTdXv7nTL+7Fvc3S2T2CxxiV23RyMGZSc8g/KR+Vbh8K3ZMc7aopvIni8uT7P8oWMMACu7kncSTmpL/ws2qWl5He3gaa5SEGRItoVoySCBn3xW6xWGUk27rrv3WtrdCeWdtEYTXO7R9dufP1EXkLXAWTfJ5aqHwAv8OQPTmpRdT3Glalaade3YSe7htrZ5XbzYywBf73zAdTzWwfDd4bO/sTqUf2O6aR9n2f5lLnP3t39KlufDEN5qbXU87NC0iStCAVyVjKD5gc981P1nD3d31uuu1rKzXqPlmZdsv8AaVz4euJLm7U3Vu5mRLh1VmRV7A465z61k295eT6bPePfXPm2UEDxYlIBLSsDuH8WQAOa62w8PLYSWXl3BMdm05jUr/DIcgZz2/WqEfg9kiW3TUCIJESO4UxAmQI5YbTn5euO9EMVQTab00to9rtvp20Bxl/Xp/mZuh6lfNq0NncXEr77+aRCzE7oyJBt9wGT+Vd6MmIgdawo/D0dvqGn3QmJks3mb7v3xIScfhmt0nA3LXDj6lOrUUqXb9X+hdNSSszifiP+60WwlfIWO/jY4HOBmur/AOF0eF8YMWqH/t0P+Ncv8R5GOk6aPXUYv617WsUePuL+VfWZFb6jG66v9DzMb/E1PPR8aPC4/wCWOq/+AZ/xo/4XT4X/AOeOq/8AgGf8a9D8qP8AuL+VL5af3F/KvX5odjj0PPP+F1eF/wDnjqn/AIBn/Gj/AIXV4X/546p/4Bn/ABr0Py0/uL+VHlp/dX8qOaHYNDzs/Gnwv/zx1X/wEP8AjWNqmqar8VXh0fStNu7Hw/5qveX10mwyqDnao/z26V655af3R+VOAAHAoUorVLULroR28EdrbRW8S7Y4kCIvoAMCpqKKgQUUUUAFFFFABRRRQAUUUUAMJpdvvTeQwyOKceMkDJNADelKMDtzRjAyetKBQAnU80/FGKKACiiigAooooAKKKKACiiigAooooAKKKKACiiigAppoz6U0mgBynIwRTQNj+xpefL460iEsCpFAAY8tkGlbkikxg4BOKcBQAAU6iigAooooAKKKQ0ALSV57rPxDu21ubQ/CejtrGoQHFxJu2wwn0Ldz+IqH+2Pisf+ZZ0b/wACf/sqrkfUdiC+iTWvjva2t4vmW+mab9ohjblfMJ+9j15H5CvTxXjMemfEuPxrL4nGgaZ9qktRbGI3I2bQRz97OeK3v7Y+Kw/5lnRvp9p/+yq5QvazX3jaPSKWvPtB+IVxNriaB4m0p9H1WXmDLbop/ZW9fz/OvQBWcouL1E1YWiiikIKKKQmgANJnDUZJ6UhBHWgAKqTkmjarDjtSYzTuFGBQAgY4pQKAKdQAUUUUAFFFFAHm2u/8l08M/wDYPm/9mr0nvXm2u/8AJdPDP/YPm/8AZq9J71pPaPoNhRRRWYhK82PH7QC576Nx/wB9V6VXn3j3w/qw1fTvFvh2MTappwKSWx/5eIT1Ue/J/P2qqb1a7jR6DmivNIfjPokUYTUdN1ezul4kha2LbT9c1J/wurwt/wA8tU/8BD/jT9nLsHKz0eivOP8AhdXhb/nlqn/gIf8AGj/hdXhb/nlqn/gIf8aPZy7Bys9HpCa85/4XV4W/55ap/wCAh/xpP+F0+Fs/6rU//AQ/40ezl2DlZ6MWpMZGc8V543xj8M7dyxan/wCAh/xo/wCFyeGHjG2PU/8AwEP+NHs59g5WehYKcg5HpS7QxDCuAs/i/wCFZplimmu7UMcB7i3ZV/Pmu5t5orqBJreRJIZBuR0OQwPcGpcZR3QNWJjy1OApAKdSEFFFFABRRRQAVVvrKDULGeyuoxJbzxmORD3UjBq1RQB5YvwektgYrDxfq1raqT5cIwQg9M5FO/4VJqH/AEPOr/l/9lXqGKKlwg3dxX3I09rPueX/APCo9Q/6HnV/y/8AsqP+FR6h/wBDzq/5f/ZV6jRS9nD+Vfcg9rPueXf8Kj1D/oedX/L/AOyo/wCFR6h/0POr/l/9lXqNFHs4fyr7kHtZ9zy7/hUeof8AQ86v+X/2VH/Co9Q/6HnV/wAv/sq9Roo9nD+Vfcg9rPueXH4Sah/0POr/AJf/AGVIPhJqB/5nnV/y/wDsq9QNHO3jrR7OH8q+5B7Wfc8xT4UagjEHxvqx/D/7Klk+FGoYBXxtqvBz93/7KvSxH6mlGV4PIo9nD+Vfcg9rPueZ/wDCqb6Qc+NtWz9P/sqG+FF+yhV8b6sB9P8A7KvTDg9BSgUezh/KvuQe1n3PN9M+EsMOq2t9q+vahqy2riSKCfhAw6E8nNekDpS0VVklZbEOTk7sWiiimIKKKKACiiigAooooAKKKKACiiigAoopM0ABoppNFACK+4kEUZIOO1O+UfN3pAKAAcnmn0UUAFFFFABRRRQAUUUUAFFFFABRRUFxcRWtvJcTyLHFEhd3Y4CqBkk0ATUV5bB4q8a+NZpZvCVraafo6OUS9vlJaYjuBzx+H41Y/sn4tf8AQxaJ/wCA/wD9hV+ztu0h2PS6K80/sn4tf9DFon/gP/8AYUf2T8Wv+hi0T/wH/wDsKPZ/3kFj0qkNebf2R8Wv+hi0T/wH/wDsKP7J+LP/AEMWi/8AgP8A/YUezXdBbzPSAecUmQxKkc15v/ZPxZB/5GLRf/Af/wCwqRtL+K23K+INFz/1w/8AsKOTzQW8z0QAr05HpS7ie1ebDSfiz/0MWi/9+P8A7Cl/sj4s/wDQxaL/AOA//wBhR7Nd0FvM9JAp1eaf2T8Wv+hi0T/wH/8AsKP7J+LX/QxaJ/4D/wD2FHs/7yCx6XRXmn9k/Fr/AKGLRP8AwH/+wo/sn4tf9DFon/gP/wDYUez/ALyCx6XRXmn9k/Fr/oYtE/8AAf8A+wo/sn4tf9DFon/gP/8AYUez/vILHpVUdYne10a/uIjiSK3kdT7hSR/KuD/sn4tf9DFon/gP/wDYVFc6D8Vbu1mtpvEOimKZGjcCAjKkYP8ABQqa7oLF74O2MVv8PbS7UZuL2SSeeQ9XbeRyfoK9BFeTaL4R+Jnh/SYNM0/X9GjtYARGrRFiMknqU9TV/wDsn4tf9DFon/gP/wDYVUo80m+ZDa1PSqK81/sn4tf9DFon/gP/APYUf2T8Wv8AoYtE/wDAf/7Cp9n/AHkKw/4zWqHwT/aSjbd2FzFLBKOqksAef89BXf2UpmsoJW+88asfqRXleu+DPiV4i0qTTdS17RpLWQqWVYipyDkchPWr8Wi/FaGJIk8RaKERQqjyOw4/uVTiuVLmQ7aHp1ITXmv9k/Fr/oYtE/8AAf8A+woOlfFkc/8ACQ6IfbyOv/jlT7P+8hWPSS1NLVwOgeNNWttfi8OeL7KK1v5xm1uoDmK49h6H/OBXfblTA5qZRcdwasKMlOOtBOflHJ7mg8DcvQ0bvQUhBjnFLigCnUAFFFFABRRRQAUUUUAeba7/AMl08M/9g+b/ANmr0nvXm2u/8l08M/8AYPm/9mr0itJ7R9BsWiiisxBSYpaKAGlFJyVB+oo8tP7i/lTqKAG+Wn9xfypNif3F/Kn000ANKJ/cX8qb5aFsbF/KpDjHPSmlCOVNADWCK+Ni4+lKYlHzKq+4xTiVP3hg+9BOenSgClqGl2Oq2clpf2kM8DjDI6Aj/wCtXAfDjzNC8U+I/B3mvLZ2LrcWm45KI/JX9R+temAV5v4b/wCS4+LP+vOD+S1cXeLQ1sz0sUUUVAgooooAKKKKACiiigAooooAKKKKACiikzQAtITSZpM5IFAATmkyexp2TnpwO9N68jpQAbSxyTxStycUAUoFAABTqKKACiiigAooooAKKKM0AFFFFABRRRQAUUUUAFFFJmgANJjI96QmgcAtQAi/fwaKXhwCOoooAAKcBQKWgAooozQAUUZooAKKKKACiijNABRRRQAlcV8V5Xg+GmtNG20mNVJHoXUH9K7WuI+Lv/JMdY/3Y/8A0YtVD4kNbm/4VtYrTwrpEEKBI0s4sAe6gn9a2O1Z2gf8i5pf/XpF/wCgCtKpe4gqKWVIY2kkYKiqWZicAAd6lrG8VnHhHWSDj/QZv/QDQld2A4mT4y2DzSDTtB1e/t0YqLiGL5Xx6Un/AAuEf9Cjrn/foVneAgB4H0vAAzEc4/3jWzqV6NO0y5vCm/yYy4XONxHQZ96+drZ9KFeVGNNOzaWr11senHBQcVJsrn4xA/8AMoa5/wB+hSf8Li4x/wAIjrn/AH6FVbTxH9qisG+zbTdWss7KX+4UwCvTnkn8qp2/iyeYrMdPUWe+CJ5BN8ytKqkfLjkAsB1rRZtiXdexWnn52/MPqlL+Y1x8YR/0KGuf9+hR/wALiHX/AIRDXP8Av0Kx4/GEssK3CaeDbxpE9yxmwyeYxUbRj5sYyeldXWVbPa1D+JSS+f8AXkOOBpy2Za8KfETTfFGoS6cLW7sNQjTzPs92m0svqPWuyrx6Dj426ERwTYyg+/DV7DXuYet7ejCra3Mr2OCtTVObihaKKK3MgooooAKKKKACiiigAooooAKKKaTQAE0nLGl4ZeOtNTqQetAHnPxhgCaDpV7GcXNvqcJicdVznP8AIflXouBIvIwa85+MzGHwjZyNnYuowsx9huq83xe8Eq//ACGOcf8APCT/AOJrTllKCsu5VtDuiMKFpQK4m1+K/gu6nWJdbjRmOAZY3RfzIwK7OKWOeJZIpFeNhlWU5BHqDUOLW6JsS0UUUgCiiigAooooAKKKparqVto+l3Oo3j7Le2jMkh9hQBweu5/4Xp4Zz/0D5v8A2avR6+eL3xvreqeLbLxhaaLGsFlE8cMDyfNJGc5J9+e3617b4V8SWnivQbfVbMMiyZV426xuOqmuivRnCMXJW0NKlOcEnJWublFFFc5mFFFFABRRRQAU0inUhoAaMEFTQWxwtHQ0p5NACHmuB1j4leXrE2j+HNGudcvoDibyDtiiPoWxXS+LL2XTfCWr3sB2zQ2kjow7EKcGsP4V6Vb6d4A0yWFR5t5H9onf+J3Y55PsOKuKSXMxruZf/CZ/EH/on7f+BYrndOuPHlh401XxGPBUjvqESRGA3CgJtxznv0r22imqiX2UO55p/wAJr8QB1+H7YHpditjwt8QbTX9Qk0i9srjStYjGWs7kcsO5U967IivMvi7bJZQ6H4it/wB3f2WoxIki9WRs5U+3H6miPLN2tYFZ6HpwpaRelLWZIUUUUAFFFFABRRRQAUUUZoAKb1NBNNwT0oAXbz7UYU9DzQCfut+dIqFXyOlADshuDSZGMDpSHBY04CgBRS0UUAMd1jRndgqqMknoBXl48V+LfGt7cJ4NjtbPSbdzGdSvF3eaw67VwePw/Kuu8ezPb+AtcljYq4spACO2RiofhzbxW3w90NIlCqbVXOO5bkn8zVqyjca2uYP9g/FT/obdK/8AAT/7Gj+wvip/0Nmlf+An/wBjXpFLR7R9l9wXPNv7C+Kn/Q2aV/4Cf/Y0f2F8VP8AobNK/wDAT/7GvSPxoo9o+y+4Lnm/9hfFT/obNK/8BP8A7Gg6H8VAMjxVpLEdAbXr/wCO16TSGj2j7L7guee+HPGWr23iNPC/i+zittSlUta3UB/dXIHp6H/9WBXoVeafFxFiHhi8jG24h1eJUcdQD1H6CvSx0oklZSXUH3FoooqBBRRRQAhpAMmlNN6HNAAV9DSKeNrcU7bht2eKTcD1HFAAqBDnNFAFFAD6KKKACuG8Za/qraxY+FfDrpHql6plluXGRawjgtj1POK7ivP7QZ+OmoE87dFjx7fvBVQ3b7DQR/Cq0kXff+IfEF1cty8v20oCfYAcU7/hVGj/APQX1/8A8GDf4V3uao32pRWK/N80hHCDrWdXEqjFzm7JFRUpO0dzkP8AhVGj/wDQX1//AMGDf4Uf8Ko0f/oL6/8A+DBv8KbdeL5rq7e0sIrq+uEOGhsk3BP95+APxNN3eLceZ/wj0+OuP7Qj3flnH61wLMsRU1pU213bSv6XN/YJaTkkyT/hVGkf9BfX/wDwYN/hR/wqjR/+gv4g/wDBg3+FMtvF09ldx2upRXVhO5wsV6mFc+iuCVP4GuysdSivUIX5ZB1U1rRzLnn7OonGXZ9fTuRUoziuZO68jkf+FT6P/wBBfX//AAYN/hR/wqfR/wDoL6//AODBv8K72iu7nl3Mbs4L/hU+j/8AQX1//wAGDf4VHP8ACDQrmFop9S1yWJuqSXxYH8CK9Boo55dwuzgF+EuiooVdV15VAwANQYAD8qd/wqfR/wDoL6//AODBv8K72ijnl3C7OC/4VPo//QX1/wD8GDf4VmeIPhjpVl4e1K6TVdbZ4bWSRVkvyVJCk4IxyK9QzVLVrL+09IvbEPs+0wPFu9NykZ/Wmqkr7hdnlvgL/kR9K/65H/0I1b8SRXVzpkdtaRCSSW4iU5ztChgxLY7cVz+k/wDCY+F9Oj0aXwhdXv2UlFuLd8o65JBHB9au/wBv+LP+hB1P/vr/AOtXx1fKcb9blWhFNXbWq73XU9iOIpcii5dDPih1DTrgSXVjM6xNeRD7NGzj97tdcd8Z3DNRWtjfRQtpzWNz5z3NnJvEZ8sKiR7iW6cbSK1v7e8Wf9CFqf8A31/9aj+3/Fv/AEIWp/8AfX/2NdH1bMP+fSv6rvf8xe1o/wAxh21hfwabJZPYXXm3kVssZEZ2qUc7tx/hwOea9GrlP+Eg8W/9CDqf/ff/ANaj+3/Fv/Qhan/33/8AY1zYvLcfiXd00uu68l38i4V6UftFPVdIg134r6NYTzXEMcllIS9tJ5bjG48N2rtf+FT6P/0F9f8A/Bg3+FYfhHRtf1fx9B4k1bSn0m2srdoYopWy8jNkflya9ZFfT4KE6GGhTlo0tTzMRNSqNx2OD/4VPo//AEF9f/8ABg3+FH/Cp9H/AOgvr/8A4MG/wrvc0Zrq55dzC7OC/wCFT6P/ANBfX/8AwYN/hR/wqfR/+gvr/wD4MG/wrvaKOeXcLs4L/hU+j/8AQX1//wAGDf4Uf8Kn0f8A6C+v/wDgwb/Cu9oo55dwuzgv+FT6P/0F9f8A/Bg3+FH/AAqfR/8AoL6//wCDBv8ACu9yKKPaT7hdnBf8Kn0f/oL6/wD+DBv8KP8AhU+j/wDQX1//AMGDf4V3tBo55dwuzgT8KNH/AOgvr/8A4MG/wqpefD7UtFha98K+ItTS9iG5be9n86KbH8JB6Z9a9IGMU0qG5U0+eXcLswPB/iNfEvhuHUDF5NyGMVzCf+Wcq8MP6/jXQcOMjg1wXwz+V/FMbDCjWp8Dt2rvRhR8tKaSk0ge55x8Z3I8H2YIHOpQg/8Aj1bw0nTuM6faf9+F/wAKwfjSP+KOsv8AsJwf+zV1Y6Cr+wvmJ7IzLzw3ouoWzW9zpdo8bDBHlKCPoQMiue+HMk/h/wAXaz4Med5rKCMXdkXOSiEjK/qPy967WuM0b/ku2o/9ghf/AEJacXeLTCJ6iKKKKxAKKKKACiiigArB8YaK/iLwnqWkxOEluYSsZPTcDkZ9sgVvUhGaadncD5ljutX0uNNJufD+of2lEBEsaQkq5HAII7fSvZfhh4cu/DPg+O2vwEu7iZriWMH/AFZbGF+uAK7TFLXTXxlSvFRl0OitiZ1Uoy6C0UUVynOFFFFABRRRQAlQ3FxFa28lxPIscUSl3djgKAMkmpxXGfFWaSD4aa28bFWMSoSPQuoP6E0RV2kCOfg8UeNfG0sk3hKC003R0col9eruabHdV54/D8atf2L8Vf8AoaNH/wDAX/7GteHVLXwh8LrTURBmG00+J1iXjcxUYH4sayra5+KF9bRXccXh23SZRIsUnmFkBGQCR3xW1+ySRRT1Dwv8TdV064sbvxNpD29xGY5FFtjKng8habpvhT4maPpltp9l4l0hLa3QRxqbbJCj3K1qbfip/f8ADX5S0bfip/f8NflLT12ugK/9jfFX/oadH/8AAX/7Gj+xvir/ANDTo/8A4C//AGNWdvxU/v8Ahr8paTHxU/v+Gvylpa+QFf8Asb4q/wDQ06P/AOAv/wBjWXrvgb4ieJLJLPU/EekywpKsyqsBX5l6HIX3rc2/FT+/4a/KWjHxU/v+Gvylpq61TQFcaL8VgMf8JRo//gL/APYUf2N8Vf8AoadH/wDAX/7GrO34qf3/AA1+UtG34qf3/DX5S0tfICt/Y3xV/wCho0f/AMBf/saP7G+Kv/Q0aP8A+Av/ANjU0jfFSFGfb4cl2jd5a+YC2OwrofCPiRPFHhmDVjCYHJZJos5COpwwHqOKTbSvoFzmP7G+Kv8A0NOj/wDgL/8AY0f2N8Vf+ho0f/wF/wDsai07xJ478VxS6n4ftdGttLMrRwfbS5kkCnG47elXtvxU/v8Ahr8paeq3sBW/sb4q/wDQ06P/AOAv/wBjR/Y3xV/6GnR//AX/AOxqzt+Kn9/w1+UtGPip/f8ADX5S0a+QFb+xvir/ANDTo/8A4C//AGNKujfFQn5vFGkY9rX/AOxqcj4qf3/DX5S0KvxSLcv4bx7CWjXyArNo3xVB/wCRo0jH/Xr/APY06TSPimqjb4n0gDv/AKL/APY1a/4ucxK7/Dn5SU0D4orwzeHCOxAkou/ICuNI+KTxnPibSM/9e3/2NJ/ZHxVK4/4SfR/r9l/+xqy3/C0jwreGx+ElJt+Kn9/w1+UtF35AZ9wvxU0SM3rXOla1FH8z20cWxyB128Dmux8JeKbPxdoiahaK0bBjHNC/3onHVTWd4O8S6jq13qmj63aQ2+q6a6iX7OxMcisMqy56fSsTwEi2vxI8c2kI2QC4ikCDoGYEk/rSaundaoD0yiiisiTl/iJ/yT3Xv+vN6f8AD/8A5J/oP/XlH/KmfET/AJJ7r3/Xm9P+H/8AyT/Qv+vKP+VX/wAu/mPodJXI+J/iJoHhS8js7+aV7p13eRbx72C9ifSutJrwnU1D/F3xGzAFljhCk84G1aKcU736GGIrewpOpa9jrP8Ahdvhbr9n1XP/AF6//Xo/4Xd4Wx/qNV/8Bf8A7KsaSGSF9ksbI2M4YYOKvDSWGitqMrrGpcLFGRzJ6/59qu0e34nkRziUrpU9tXqd14Z8VaT4ssGvNKuDIqNskR12vGfRhW7Xj3woATxp4sRBtXEJ2jgZ5r18daicVGVke1TnzwUu6T+883+MH/IP8O/9hmH+tek9q82+MP8AyD/Dv/YZh/rXpPanL4I/M0ewtFFFZiCiiigAppFOooAb1XBpAKdiloAQCilooAKKKKAErgLP/kuepf8AYGj/APRgrv64Gz/5LnqX/YGj/wDRgqodfQaO2up1tbd5m6KOnqa8/lju/FWvS6ZFO8NtEA+oXEZwwB+7Eh7Ejqew+tdZ4im228admJJ/AVn/AA+twvhSG8YDztQke7kb1LMdv5KFH4V5EorEYxxlrGCWnm/+AdMX7OlzLeX5GuqaV4Y0RikcVlYWqFm2jAUDv6kn8zWUPFGrtD9tXwrfGwxu3ecgmK/3vK6/hnPtUnjUB9KsY2GUk1O0V1/vDzV4NdJXraWOYzF/svxPoqMUivbC6TIDrkEfQ9CPzBrixBc+E9ch0553lsp8tp87nLKRyYWPfA5B7j6V0PgvC2usRAYSPV7pUUdAN+ePxJpvj62EvhC7uF/11jtvIj3DRnJ/MZH41y4zDRr03Hr0fZ9Ga0ajhPy6nQ2dwt1bJKvGRyPQ96scVheGpvMt5APu5Dj8RVXx74kuPCfhSfVrWGKaaORECy52/MwB6VOAquvQjJ7v89iasOSbijqKXNcwnjTShqd9p9w7wy2Nml7cOy/u1RgDwepxkdq5vUNfmufih4dewvnfTLnSppwisfLk4Ygkd+grtUGyLHpWa4/xF4/03RtGuNRtNl+ba8SzmjjfaUcnkEkdq5zQPiRqU+ieGZr63hnn1fUZLSR1+QIobAIHryK4XUv+RS8X/wDYzp/6Ea0hT194aj3PQIvFc2k+OfGk9/cXMum6daQSpbqchcqM7R0BOa7+y1KC+0i31NGKW00CzgvwVUjdz+FeM+I/+Q18TP8AsG2/8lq1ZXEw8S6BAJpBCfCBJj3HaTsPOPwpyppq/wDWw2j13TNTstYsIr6wuEuLaXOyVOjYOD+oq7mvB/C+o3tppPw0t7a6lihuLm4WaNGIWQb+jDv1NdRpnxKubfRL7UNWtxcbNcOmxLCAm1D0J9cc/WolSaegnE9QzRXkuu+N9bhi8ewwTxxf2QIPsbpGNybiAc56/jXYReLbSHSFSSeOXV49KGoPb8gsNmSemBk1LhJK4rHVZqCe5ht9nnSxx72CKXYLuY9AM9T7Vzfhnxna6zomiXN9JDa3+qI7RWwYncVJB2/lnmvPPFPiiTxX4b0i9kt1tjB4lW2Cq+7IXof1pxg27MEj1nT9f07VdS1HT7SUvcadII7hSpG1iMjB79Ks6jex6bpt1fTBmjtoWlcKOSFGTj34ryOHX7jwxqHxK1e1ijlnt7uDasmdpySOcfWrGqave33i3xDFJPILZ/CpmFuHJRWZc5A9eetV7LXyHynoWkeLNL1ex0u4SdYJdTiMtvbysBIwH3uPauB1Hx/qOraLoGoWIfTzNr4s5kR929AehOOhz0rE8O/8hn4Yf9eNx/7NWXYf8iZ4d/7Gpv5itI04p/15jsfRYPFFeVWvjy80abxxfagZby20zUI4reAELsViVwDjpwKsv4wv7Xx7r++RpdNs9FS9jtSQBuwG646nNY+zkTys9MrO1LW9O0iWzjvrpIXvJhBAGz87noKyNJ8aafqVpo/mMIL7VbU3MFsctwoyecY/lXmN14hv/E+meCNR1Exm4PiBoyY12jCsAOPpRGm29QSO++KWsXuj+CprvTLpre5W4iTzEPIBbkVr6b4otb/xNe6AI5Rd2VvHNJIQNjBwDx+YrxnXXZvDvjwMxIHiGPGT0+Y1savPLbeLfiBNBI8cqaHEVdDgqdqdDWvsla39dCraHr0mtafFrUOkSXKi/niaaODByyDqfStE14xpN5J/wnPg28md5ZB4baR2Y5LEKx5Nb1h8S7i/s/ClxHp8aDWbyS2lVpCfLCnGVPft1rOVNrYXKejg4ag4TJA5NYsvizQYbSa5fVLcQwXP2SR8nCzdNh961FuYJJZIEmjaaMAuisCy56ZHbNRZknEfDNy0visEDjW5/wCld6BXA/DAfvvFn/Ycn/pXoFOfxDe55t8a/wDkTrL/ALCcH/s1dYOlcp8av+ROsv8AsJwf+zV1Y6Vf2F8xPZBXGaN/yXfUf+wSv/oS12dcZo3/ACXfUf8AsEr/AOhLThs/QInqNFFFYgFFFFABRRRQAUUUUAFFFFABRRRQAUUUUAFFFFACVxPxa/5JhrX+4n/oxa7auJ+LX/JMNa/3E/8ARi1UPiQ1uZnjT/khTf8AXhbfzSu/0v8A5Bdn/wBcE/8AQRXAeNf+SFP/ANeFt/NK7/S/+QXZ/wDXBP8A0EVUvh+bG9i3RRRWZI044ryvxv4g1u/8bW/hrw7qjWH2e3M95OiBsE/dU59sfnXpd/eQ6dp9xe3DbYbeNpXPoAMmvEfDl3cJo+t+Mrm2kuLzUJXmSJBligOFA9v6CuTGYh0KLlH4nZL1f+R0Yampz12RW1W/8d2esWGj2Xi6e+1K8bCwpCq7F/vMew/wNe7WMU8Gn28V1P586Rqssu3G9gOTj3NeCeCfGFj4eub/AFvW9H1e61i6Y7pkt/kij/uqSePf6CvZPCPiyz8Y6S+o2NvcwwrKYv36gFiAORgnI5rpgp+yipvma3atv8ia1ub3VZHR0UCiqMRrdD9K89+E/wDyT6f/AK+7r/0I16E3Q1578J/+SfT/APX3df8AoRql8L+Q1sWfhB/yTfT/APrpN/6Mau6rhfhB/wAk20//AK6Tf+jGruqJ/Ewe4tNJ5xTqzNb1a10PSLnU719lvbxl2Pc+gHuen41KV9BGN438YW/hLShIAJtQn+S1ts8u3qf9kd6848MfEjXNG1uOLxdOJ9PvTgXCoB9mc9jgfd//AF1z5vLvxRq0niPUuJpTi2izxDH2A/z71YuoobmBreZd6MMH/GvoMNlSlQbn8T2PLrZkqdbkirpb/wDA9D6FQpIokRwVYbgQcgj1p5PYV5H8K/FckN23hDU5S0kSl7CZj99O6fgOn4jtXrgHFeHVpSpTcJbo9KMlJKUdmKBS0tFZlHn/AIZ/5K54y/65Wn/oFVfBX/JVPHX/AF0g/kateGf+St+M/wDrla/+gVW8Ff8AJVPHX/XSD+Rrd9fRfoM9JooorARy/wARP+Se69/15vT/AIf/APJP9C/68o/5Uz4if8k917/rzen/AA//AOSf6F/15R/yq/8Al38x9Do+leF6l/yVvxN/uQ/+grXuh9K8R8Zadq+hfEHUNYi0m7v7HUI0w9qhcoygAggfSnT6o5MZTlUoShBXb/zO1tEt/E9pElw4jvLXAkcfxpWTruorfXax2+FtIBtiUdMev41xi+ItRQ5XwzranGCRbtSf8JBf/wDQr61/4DGr5JHhVMPi5U+Xk1e701tsdL8KP+R58Wf7sP8AWvXh615f8J9F1OC91vXNRspLJNQZFgglGH2rnkjt1r1AdMVFT4j6KjFxpRi90keb/GD/AJB/h3/sMw/1r0ntXm3xh/5B/h3/ALDMP9a9J7US+CPzNnsLRRRWYgooooAKKKKACiiigAooooAKKKKAErgbP/kuepf9gaP/ANGCu+rgLP8A5LnqX/YGj/8ARgqodfQaOi8SRb7eJu2Sp/Ef/Wql8PpxL4NsYCf3lnvtZB6MjFf5YP410F9bi7tXh7kZU+hrgLe/fwjrs91Mrf2TeMPtmBn7PKBgS4/ukYDemAa8lSVDGS5tppWfmuh1Je0o2W8fyYvi95bbxJNIwkdDDaXkaLk7lt5yZQo7kKwP0rul1bT200akLyA2WzzPP3jZt9c1U1XSbLxDYQ7pGBUia1u7d8PG3Zkb6fgRXCN4RuP+ErXTS2kF2tjd/bDpo8zIcL9zds3c5zt/CvYVpLXoc2jLXhSSS78VQzRCRY3N7fujZG2OaRRFuHYsELDPauj8e3At/BWpRj/WXKC2jH955CFA/X9KvaTpFnoFpO4maSSQ+ZdXVwwLyHHVj0AA6DgAVyF5qLeLtcgmtwzaRYuTbnH/AB9TdN4H91RkD1Jz2rlxmJjRpub+Xm+iNKUHOasdR4Zh8q3kHYbUH4Cs34m6Jf8AiDwTc6fpsImuWljYJuC5AYE8niumsLUWlokf8XVj71a6mscupSoUIxlvv83qKtNTqOSOObwHb3eq6pfXdy5XUtOSxlhQYKAAAkN+HpXO3elR6V8TvDGl2iuYrfR5oY9xySArgZNeosQp46immKN5BN5aGVQQHKjIHpmu5TfUzuePeG/BeuvoPg7zLM276bqstxcxzHayoWyCB36frXM6n/yKXi7/ALGdP/QjX0Vk9K838TfDhpPDeo2eiMZLm/1RL+UXEgAHPIBx0Fawq3fvf1qUpdzlvEf/ACGviZ/2Dbf+S1LZ/wDI2eH/APsTz/6A1aMmg3GveNviBpcbeS13Y28aSup2g7R/hXoGm+GrO20iytZ4opbu3sRZG6VAH2bcEA9QD1pymoq39bBc8d8Pj/QvhZx/y+XP/odbmmeBdW1Xw7qFlMn2CQeJDer9oUjfGO4x6549a9I8PeGbLw5olnpdsGmjtNxikmwXBYkk5xx17Vt4qJVtfdE5HifiPQ9Ujj+Jdw1hceVdrbm3YIT5uCCdvrjvXXJ4ME1j/bMbzf2jL4eGni2bAXJj49wc8V3+KMVLqNiueeeEfArRaN4TutVE1vqOjxy4hVgRlyeG6+vY1w2raFf+HvCel2upQiKWXxT5yKGDZQ9Dx9K98xWVrPh/TtejtY9RgMq2063EQDFcOvQ8fypxqO92NSPIL7Tb3WP+Fn2NhbvcXMl3b7Ik6thiTj8BVm8ieDxrr8Mq7ZI/CO1lPYhACK9I0Lwsuia/ruqC5aU6tMkpjKY8vAIxnPPWrusaNDqWnajHFHDHd3do9t9oKDdgggAnrgE9Kr2qvb+ugcx4/wCHf+Qz8MP+vGf/ANmrKsP+RK8Of9jWf5iuvg8L6honizwBZvE062FrPHPcRITGpwT1xx171iXnh3UfD3hrw3Z6hCEnbxN5oVGDDax4OR9K0Uk3/XmVctL4dvvEn/Cx9LslVZ5tTiZDKSqnDEnn6VcuNJurz4ieKdOgQNPL4cSBCeFLFVA5+or18KFyQACTk+9G0bt2BuxjNY+1f9f15E8xweheBHto/DF/ezMl7pFg9s0CYZWLAjr7ZrzyHTL7SdB8D2uoWsttP/wkLt5cq4OCwwcV9A4NYHiDwva+IrrSZ7maWNtNuxdRhMYcjsfbpRGq76gmeLa5/wAi749/7GGL/wBCNa2u/wDIz/EL/sBxf+gpXR/FjR7HT/AmoS2NokMl3fwzXDRjmRy2Nxrd0vwlJD411fXLmSCaz1GyigFuy5PygA7geMcfrWvtFy3/AK6Dv1OF0aJp/GPguFSA0nhdlBPTJVhWhpngDXLCw8EW7pA7aVqEtxdskgwiMcjGevTtXdyeFLNvFlj4hWR45bK1a1jgQAR7T/LGTXQ1nKr2FzHIz/DvQZ9OurFo7gQ3N+NQkxLz5uex9Pat220XT7PU7vUre2RLy8CieUZy+0YFaVFZuTfUm55/8Mf9d4t/7Dk/9K9Arz/4Y/67xb/2HJ/6V6BTn8TG9zzb41f8idZf9hOD/wBmrqx0rlPjV/yJ1l/2E4P/AGaurHSr+wvmJ7IK4zRv+S76j/2CV/8AQlrs64zRv+S76j/2CV/9CWnDZ+gRPUaKKKxAKKKKACiiigAooooAKTNKaaOTzQAuaM0w8MPSlY4agB9FNBp1ABRRRQAlcT8Wv+SYa1/uJ/6MWu2rifi1/wAkw1r/AHE/9GLVQ+JDW5meNf8AkhT/APXhbfzSu/0v/kF2f/XBP/QRXAeNf+SFP/14W380rv8AS/8AkF2f/XBP/QRVS+H5sb2LdFFFZknMeO9B1DxL4UutK025jt5pyoZpc4KA5I455ry/W9I8c+CPC5vJtX0gWdoqRpFHESx5AAGV617tXiXx01xzd6PoNsvmyFxdSRDncc7UXH13UeyhWtCcU0tdVc1pVJRdouxSubrVvFj6Z4StpAt7cwrLqk8YwIY8ZI9j04+g717VpGl2miaVbabYxCO3t0CIv9T7nrXNfDrwifDOjNPe/vNYvj515KeSCeQgPoM/nmu1rGjRp4eHs6a835tjrVHUldi0UUVsYjW6GvPfhP8A8k+n/wCvu6/9CNehN0Nee/Cf/kn0/wD193X/AKEapfC/kNbFn4Qf8k20/wD66Tf+jGruq4X4Qf8AJNtP/wCuk3/oxq7qifxMHuIRXkPxqvpJ5tD8PqxWG6kaef8A2gvQfqa9eJryn40aTObLS/EVvGX/ALNlKzhRyI3xz+BH61thHFVo8+1zOd3F8u9nb1ONhwmFAwuMAUjAbzj1qOGaO4hSaFg0bjIIqSvu42eqPjZXTszK1mWXT/sus2zbLqwmWVGHpnkV9L2c63dlb3KjAmjWQD0yAa+a7y1m1/VLHw7ZAvcXcq+Zj/lmgOSx/n+FfS0EKW9vFBGMJGgRR7AYFfKZy4OsuXfqfTZaprDrm7u3oT0UUma8c7zgPDP/ACVvxn/1ytf/AECq3gr/AJKp46/66QfyNWfDP/JW/GX/AFytf/QKq+Cv+SqeOv8ArpB/I1u+vov0GelUUUVgI5f4if8AJPNe/wCvN/5U/wCH/wDyT/Qf+vKP+VX/ABHph1rw3qWmhgrXVu8an0JHH61xnw08WWY0OHw3qcqWOsaaDbyW85CFwp4K568Va1p6dx9D0mk71B9ttf8An5h/77FH2y2/5+Yf+/gqBE+KMVB9stv+fmH/AL+Cj7Zbf8/MP/fwUAWAKKr/AG22/wCfmH/v4KRr60UEm6hAHUmQUAeffGH/AJB/h3/sMw/1r0gdK8n8VanB468Z6J4c0WQXMFhdLeX1zEcpGF6KD0z1/EivWB0q5aRSY3sOoooqBBRRRQAUUUUAFFFFABRRRQAUUUUAJXn9l/yXTUv+wNH/AOhivQa8+8ZWOpaN4msfGWkWj3hghNtfWkf35ISc7l9SD/Sqp7tdxo7+szU9JjvgWGFkxgkjhh6Gubg+LXgyWENLq32aT+KKeF1dT6EYqX/havgn/oPwf98P/wDE1jWwqrRcJxuioSlB80TLGh6r4flY6Ney2EZJJt2Tzrcn1Cn7v/ASKP7S8T/bBdeVoRuhF5IuPLl3bM5xjd689a0/+Fp+ByOdfg/79v8A/E03/hZ/gPr/AG3a5/65P/8AE1xrA4ymuWlUdvNXf3m/toS1lDXy0M1tF1bxA4/tm+kvogci1jj8m3z/ALS9W/4ET9K7LTNHisVDEKXAwMDhR6CsAfFPwR0GvW//AHw//wATUh+J/gzP/Ieg/wC+H/wqqWXS51UrNzktrqyXoiZ1m48sVZHXjJowVOe1ccPij4MKHGvQZ/3H/wDiaE+KXgwkg67Dj/rm/wD8TXockuxhZnYlAxzmggDpXGH4p+CQxH9vwf8AfD//ABNKPir4I/6D8H/ft/8A4mjkl2CzOzApa4z/AIWr4I/6D8H/AH7f/wCJpf8Aha3gj/oPwf8AfD//ABNHJLsFmdjt/OlFcb/wtbwR/wBB+D/vh/8A4mj/AIWt4I/6D8H/AHw//wATRyS7BZnZUVxv/C1vBH/Qfg/74f8A+Jo/4Wt4I/6D8H/fD/8AxNHJLsFmdlRXG/8AC1vBH/Qfg/74f/4mj/ha3gj/AKD8H/fD/wDxNHJLsFmdlRXG/wDC1vBH/Qfg/wC+H/8AiaP+FreCP+g/B/3w/wD8TRyS7BZnZUVxv/C1vBH/AEH4P++H/wDiaP8Aha3gj/oPwf8AfD//ABNHJLsFmdkaY0aPjcobByMjODXIf8LW8Ef9B+D/AL4f/wCJo/4Wt4I/6D8H/fD/APxNHJLsFmdlRXGf8LV8Ef8AQfg/79v/APE0f8LV8Ef9B+D/AL9v/wDE0ckuwWZ2dFcZ/wALV8Ef9B+D/v2//wATR/wtXwR/0H4P+/b/APxNHJLsFmdi8ayLtdQw9GGRTq43/ha3gj/oPwf98P8A/E0f8LW8Ef8AQfg/74f/AOJo5JdgszsqK43/AIWt4I/6D8H/AHw//wATR/wtbwR/0H4P++H/APiaOSXYLM7P8aSuM/4Wr4I/6D8H/ft//iaoaj8VtGkh+zeG/O1nU5Rtggt4W2huxYkDAo5Jdgsx/wAMP9d4t/7Dk/8ASvQK5XwF4en8OeHBDeyCTULqV7q7cHI8xzkj8OBXVUTacnYHuebfGr/kTrL/ALCcH/s1dWOlcp8av+ROsv8AsJwf+zV1Y6Vf2F8xPZBXGaN/yXfUf+wSv/oS12dcZo3/ACXfUf8AsEr/AOhLThs/QInqNFFFYgFGaw/FHiWy8KaLLqd8SUTCpGv3pHPRRXFW958U/EEQvbVNJ0a2kG6KC4UvJt7E8H+lUotq47HqFFea/wBn/Fv/AKDehf8Afg//ABNL/Z/xb/6Dehf9+D/8TT9n5oLHpNFea/2f8W/+g3oX/fg//E0v9nfFv/oOaF/34P8A8TR7PzQWPSCaQDPJrzf+zvi2f+Y1of8A35P/AMTThp3xXaPH9taID/1xP/xNP2fmgsejKwPynrSlsHkfjXlt7b/FTT7C5vZ9Z0UxW8TSsEh5IUEnHy+1TfDn4m/8JKkem6yq2+rFd8TbdqXS+qj14PHtSdN2utQsemZz0pwpoFOqBBRRRQAlcT8Wv+SYa1/uJ/6MWu2rifi1/wAkw1r/AHE/9GLVQ+JDW5meNf8AkhT/APXhbfzSu/0v/kF2f/XBP/QRXAeNf+SFP/14W380rv8AS/8AkF2f/XBP/QRVS+H5sb2LdFJuHqKNw9RWZIhrz6w8CXNz8TdR8Va00UsaMq6dEpztAGAzehHp6nNeg7h6ijcPUU1Jq9hjhRSbh6ijINIQtFFFADW6GvPfhP8A8k+n/wCvu6/9CNehHoa89+E//JPp/wDr7uv/AEI1S+F/Ia2LPwg/5Jtp/wD10m/9GNXdVwvwg/5Jvp//AF0m/wDRjV3JYL1IFE/iYPcdUM8EV1A8M0ayRSKVdHGQwPUEVJvT+8v50b0/vL+dSI8d1n4PXtncyXPhPUo4YXO42V1koD/stz+v51lw/DTx7dyeVPPpdlGfvSq5c49hj/CvdN6/3h+dLvX+8PzrshjsRCPLGWhlKhSlLmlFN+hyXgvwBpvg+KSWN3u9RmGJryUfM3sB2Fdf0oBB6VzPjXxda+ENH+1SIZ7qY+Xa2y9ZX/w9a5JSlOV5as1SvojW1PWNP0Wza71O9htYB/HK2M+w9T9K4W5+M+hGUx6Xp2qamQcb4LfCn8Tz+lc3ZeF7rXrwa34xmN5ev80doT+6gHZcf0/nXVqtvZW52iKCCMZOAFVR/IV4WLz6jRn7OlHnfe9l8urPQpYFtXm7HIaP8Q7bSvG2ua3qukaraW2opCqZgyU2Lg7un6Vt/DbV7HWfiF4vvrGcSQXJheIkYLAAg8HmtaGeG8t1lhljmhccMhDKRXNax4Ltbicajo8h0rVozujuLf5AT/tAf5+tLD8RU5y5K0OW+l97eq3KqYJ2vB3PZs0VwPgHxtPrLz6HrcS2+vWQ/eKOBOn99f6/nXfV7is1dHnNNOzCub8Q+BfD3iiQSappySTgYE6Eo+PTI6/jXS0U02ndCPPP+FL+Df8An1uv/Ap/8aP+FL+Df+fW6/8AAp/8a9CoqvaT7juzz3/hS/g3/n1uv/Ap/wDGj/hS/g3/AJ9br/wKf/GvQqKPaT7hdnnh+C/g0f8ALrdf+BT0v/Cl/Bo5+yXRHobp/wDGvQGoyV69KPaS7hdmVofh7SfD1kbbSbGK1iJy2wcsfUk8n8a1QaXAGfQ0YXHFJu+rEOFFIKWkAUUUUAFFFFABRRRQAUUUUAFFFFABSUtFAFKXTLCdi81jbSOerPEpJ/Eik/sfTP8AoG2f/fhf8KvUUXYFH+x9M/6Btn/34X/Ck/sfTCcf2dZ/9+F/wq8abnBp3YFF9I0sDH9nWmf+uC/4Uq6XpZwP7OtP+/K/4VdITOTR8rg8UXYFIaNpyN8un2mP+uK/4Uv9laaf+YdaD/tiv+FXATjFKBRdgUho2mf9A60/78L/AIVxnxX0ywg+G2ryQ2NtHIFjw6RKCP3i98V6DXEfF3/kmOsf7sf/AKMWqg3zIa3NjQtJ01vD2mM1haMxtIiSYVJPyD2rR/sjS/8AoG2f/fhf8Kg0R/L8Mac5GQtnEcf8AFeNab8ZPEv2uW9udNtrvTWkZRBCNkkYB7Hv+NS+rbsaU6NSq2oK9j2z+xtM/wCgdZ/9+F/wo/sfTP8AoHWf/fhf8KwPDHxE8O+KAsdpeiK7PW1uPkkB9ux/Cuto1W5m01uUv7H0z/oG2f8A34X/AAo/sfTP+gbZ/wDfhf8ACr1FK7EUf7H0z/oG2f8A34X/AAo/sfTP+gbZ/wDfhf8ACr1FF2BR/sfTP+gbZ/8Afhf8KP7H0z/oG2f/AH4X/Cr1FF2BQ/sfTP8AoG2f/fhf8KP7H0z/AKBtn/34X/CqWt+K9D8NIh1jUobQyfcDklm9wBk4q1pWtabrlkLvS72G6gJxvibOD6H0P1p62uGpJ/Y+mf8AQNs/+/C/4Uf2Ppn/AEDbP/vwv+FXs00mi7Apf2Ppf/QNs/8Avwv+FL/Y+mf9A2z/AO/C/wCFW2HGRRkbAaV2BT/sfS/+gbZ/9+F/wpf7H0z/AKBtn/34X/CrYan5ouwKP9j6Z/0DbP8A78L/AIUf2Ppn/QNs/wDvwv8AhV6ii7Ao/wBj6Z/0DbP/AL8L/hR/Y+mf9A2z/wC/C/4VeoouwKP9j6Z/0DbP/vwv+FTW9la2ufs9tDDnr5aBc/lViii4AKKM0UAebfGr/kTrL/sJwf8As1dWOlcp8av+ROsv+wnB/wCzV1Y6Vr9hfMHsgrjNG/5LvqP/AGCV/wDQlrs64zRv+S76j/2CV/8AQlpw2foET1GiiisQPM/iMi3fjXwPYzDfbyXzu8Z6MV24zXpXavOPH3/JRfAX/X3L/Ja9Iq5/Cv66jeyCg1ia/wCK9E8MrAdYv47XzyRHuUndjGegPqKxl+Kvgl+RrsWPXyn/APialRk9Ugszssk0g5IrjR8V/BG7H9vw/wDft/8A4mlb4qeCyoK67Dx/0zf/AOJp8kuwWZ2LuVbFKegYcGuM/wCFseCCBu1yIfWKT/4mun07UrPV9PgvrCdZ7SZd0ci9GHTvSaa3QWKnigk+EtYz/wA+U3/oBrznw94JtfFvwl0Flf7LqlvG72l4nDRt5jHBI5IzXo/igY8Jax/15Tf+gGuK+Gvizw9p/wAPNItLzWrG3uI42DxyTqrKd7dRmri2oXj3GttC14K8aXUuoN4X8UILXX7bgFuFul7Mp6Zx6de3evQ68z8av4M8W2KMPEmm2uqW3z2l4l0oaNuuCQemf8ad8O/iKuuStoGsTwf2zb5USxOGjugP4lI4z3olC65kvUGup6XRQKKzJErifi1/yTDWv9xP/Ri121cT8Wv+SYa1/uJ/6MWqh8SGtzM8a/8AJCn/AOvC2/mld9pn/IKs/wDrgn/oIrgfGv8AyQp/+vC2/mld9pn/ACCrP/rgn/oIqpfD82N7HIax8KtD1zVrjUbm81RJp23OsVzhQfYY4qh/wpTw5/z/AOs/+Bf/ANarus2XxJl1a5fSNV0eLTy37lJYSXVcd+DzVH+zvi3/ANBvQv8Avwf/AImmnK3xBr3Hf8KV8O/8/wDrP/gX/wDWo/4Ur4d/5/8AWf8AwL/+tTf7N+Lf/Qb0L/vwf/iaP7N+Lf8A0G9C/wC/B/8Aiaq8/wCYd33F/wCFKeHf+f8A1n/wL/8ArV1nhjwzZ+FdNawspbqWIyGQm4l3tk46eg4rkv7O+Lf/AEG9C/78n/4mj+zvi3/0G9C/78H/AOJpNSkrOSFv1PSqK81/s/4t/wDQb0L/AL8H/wCJq3plj8TU1S2fUtX0WSyEgM6RwncydwPlHP41HJ5oVjvj901578KP+SfT/wDX3df+hGvQj901578KP+SfT/8AX3df+hGiPwv5Atiz8IP+Sb6f/wBdJv8A0Y1aHijwHpPi65guNRlvUeFCi/Z5ygxnPI9azvg//wAk30//AK6Tf+jGrR8U2fjK5uYG8M6pp9pAEIlW6iLFmz1BweMU5X53Z2G9zDHwW8Mf8/Grf+Bh/wAKP+FLeGf+fjVv/Aw/4U3+yfiv/wBDFon/AIDf/Y0f2T8WP+hi0X/wH/8Asaq8v5gu+47/AIUt4Z/5+NW/8DD/AIUf8KW8MZ/4+NW/8DD/AIU3+yfix/0MWi/+A/8A9jR/ZXxX/wChh0X/AMB//saLy/mC77nc6VpkGj6XbadamQwW6CNDK5ZsD1J615M8v/CXfE/UtSm+ex0U/ZLRe3mfxN+ef09K9Y0tNQh0iBdTmhnv1j/fSQrtRm9QK8g+GvzeH7udv9ZLfSs598ivHzetKjg5yi9XZffudODgpVNeh2deafEDxTdvev4W0y3Ekk6hJTjJJboqj6d69Lrzjxr4P1aTXU8RaE2+5XazRggMGXgEZ68dq+WyV0Fik61tna+1+lz1MRzcnukPgtPF2g6jaaNeacf7McsS20ER5ySdwPr2Nem151oHxHmfU49K8QWRtLlmCCQKVG49Nynpn1r0WjOY1vbKVaCi2vs7PzDD8vLZO5xvjaKXSZ9P8WWI23emzL5hH/LSInBB/P8AU17NZ3UV9ZQXcJzHPGsiH1BGRXmfiyNZfCWqo/3fszn8hkV1fw6leX4d6E8md32RRz6DgfoK+hyGtKphOWX2XZej1PPx0EpJrqdVRRRXtHAFFFITQAtNJpCaBjBY0AID8wpJM7vanBg/GKNxBwRQAi5UDPT+VKBk9KOTTgKAAUtFFABRRRQAUUUUAFFFFABRRRQAUUUUAFFFITQAtITSZppOaAHcmkIIoX5k4OKOSdo6dzQAmB3pxIAwKTHNOxQAgFOoooASuI+Lv/JMdY/3Y/8A0YtdvXEfF3/kmOsf7sf/AKMWqh8SGtzoNI/5FOx/68Y//RYr5q8Pf8gxv+ur/wA6+l9ETzPDGmpnANnEM/8AABXjWnfBzxMbuWzudRt7TTVkYieH5pJAT2Hb8f1rDE0nWpuCdtUeplOMp4Ss6lTXRnF6t/Ze4ef/AMfOfl8j/WZ7dP617V8I/wDhJP8AhHZ/+Eg+0+X5o+x/a/8AW+XjvnnHpn3rW8M/D3w74VCyWdn5t33up/nkJ9j0X8MV1oqqMFSp8ibfr+hnmGPWLnzKCj6b/NnO+Kf+Er8u3/4RcacX3Hz/ALbu6dtuPxrmc/F3+74d/N69JorVTsrWR59zzbPxd/u+Hf8Ax+jPxd/u+Hf/AB+vSaKftPJBc82z8Xf7vh3/AMfoz8XP7vh383r0mij2nkgueI+HPs3/AAsrWf8AhYf2H+1/Kj+zefj7Psxzs3cen61Fpf8Aan/Cw9e/4VsLA6d5cfn+dn7P5nfZjvnPT3r1nWvC2h+I1Qavp0F0Y/uM4wy/QjBxVnS9F07Q7IWml2cNpADnZEuMn1PqfrV+1Vr/APDD5jh/+Luf3fD3/j1Jn4uE42+Hf/Hq9IyTQvB5qPaeSFc853fFhWxjw+R/wLinFviuBwnh8j6tXoRjO72p3K8Cj2nkgueclviwV+VPD+ffdSA/Fz+74d/8fr0gClo9p5ILnm2fi7/d8O/+P0Z+Lv8Ad8O/+P16TRR7TyQXPNs/F3+74d/8foz8Xf7vh3/x+vSaKPaeSC55tn4u/wB3w7/4/Rn4u/3fDv8A4/XpNFHtPJBc4jQf+FinWYf7eGijTsHzfs+7zOnGPxxXb9qWiobuI82+NX/InWX/AGE4P/Zq6sdK5T41f8idZf8AYTg/9mrqx0rX7C+YPZBXGaN/yXfUf+wSv/oS12dcZo3/ACXfUf8AsEr/AOhLThs/QInqNFFFYgebePv+Si+Av+vuX+S16RXm/j7/AJKL4C/6+5f5LXo+aufwx/rqN7IqXum2WoKq3lnb3KryomjD4Ptmq48OaGUwNH08f9uyf4VpcmkqbsRmf8IxoI66Np//AIDJ/hS/8I5oiHA0bT8H/p2T/CtIJk5JpScmi7AzD4d0Rv8AmDaf+Nqn+FX4LeK2hSGCJIokGFRFCqo9gKmApaV2BDNDHcQvDKivFIpV1YZDA8EGua/4Vr4N/wChesf++D/jXVUuaFJrZhc5P/hWvg3/AKF6y/74P+NcZq/h3SPD/wAXPB0elafBZpKJmcRDG4hTivXq818Yf8lh8E/7s/8AKtacpN6vo/yKTZ6XRRRWRIlcT8Wv+SYa1/uJ/wCjFrtq4n4tf8kw1r/cT/0YtVD4kNbmZ41/5IU//XhbfzSu+0z/AJBVn/1wT/0EVwPjX/khT/8AXhbfzSu+0z/kFWf/AFwT/wBBFVL4fmxvY47WfiJd6Rq9zYJ4Q1u7WFtonhiyj8dV9qo/8LXvf+hF8Qf9+f8A61dXe+NfDOn3clpea5YwXERw8bygFT6GoP8AhYXhD/oY9O/7/ChJW+H8w+RzX/C1r3/oRfEH/fn/AOtR/wALWvf+hF8Qf9+f/rV03/CwvCH/AEMWnf8Af4Uf8LC8If8AQxad/wB/hVWX8n5h8jmv+Fr3v/Qi+IP+/P8A9alX4p3rZP8Awg+vj6xf/Wroz8QvCH/Qxaf/AN/hU9j4x8O6ldR2tjrVlPPIcJGkoJb6Clp/L+YfI5RfipeF9p8D6+P+2P8A9arWm/Em71DVbayfwdrlus0gjM0kXypnufau+GGwwoIUk+tRzR7CuuwE/Ka8++E//JPZ/wDr7uv/AEI16CcYOK8++E//ACT2f/r7uv8A0I04/C/kHQsfB/8A5Jvp/wD10m/9GNWh4p8W3fh26t4bfw5qeqrKhYyWiZVOcYPvVD4Qf8k30/8A66Tf+jGrotW8T6HoUscWq6pbWkkg3IsrgFh605fG9Lje5x//AAtDVP8AoQfEH/fv/wCtR/wtHU/+hB1//v3/APWroP8AhYvg7/oYrD/v7R/wsXwd/wBDHYf9/adv7n5h8jn/APhaOp/9CDr/AP37/wDrUf8AC0NU/wChB1//AL9//Wro4viB4SnmSKPxDYNI7BVUSjknoK6Tg0m0t4/mGnYo6TeyanpVteS2c1m8yBmt5xh4/Y15F4XjOieKfEfhqb5WiujcwA/xRvzx+GK9rxXnPxI8L3txPa+KNBj3avp4xJCB/wAfEPdfcjn8/pXDjMOsVQnR2vt6rY1w9T2dRMt1wPibx5qXhvxC1tNpIk0/aCkuSC/HJB6fhXTeH/Edj4isRPavtlXiaBjh427gj+tXdTsItU064spuEnjZCR1XI6ivh8MoYXEOGKhdbNO6a8z2ZXnG8GePTT33xE8YWtxbWDQQRbFd+oVQcks3rXteOc1k+G9Ah8N6OmnwzPModnLuACSau6jqNppVlJd306QwoMlmPX2Hqfat8xxaxlSNKhH3Y6Ja3f6k0ocicpPV7nP/ABBvjbeFpbSLLXN+620KDqxY8/p/OvU/D+mro/h7TtN721ukR+oAz+teZ+CtHvPGXiaPxbqcDQ6VZ5GmW8g5dv8AnoR/nnHpXr1fV5ZhHhMMqb+J6v17fI8vF1lUnpsh1FFFegco0mkOcZpf46RgzHA6UAOABAOKYrAEqRijYyjIbOO1LlWGSOaAAKqnOaOpzSAU8CgAApaKKACiiigAooooAKKKKACiiigAooooAKKKQmgBaaTQTSD5qAFBDDFIz7CBijYDyDzRw4w3WgAJ43LRuJ7UHgbRSgUAAFOoooAKKKKAAVxvxTtpLv4ba1HCpZxEr4Horgn9Aa7Go5YkljaORQyMCrKRkEHqKIuzTBGP4RvoNS8I6TdW0geNrSMZHYhQCPqCCK3K8xPgHxJ4Zu5pPBOuRW9jM5dtPvV3xoT/AHTg/wBPxqX7H8W/+gl4f/79N/hVuKbumOx6TRXjF/r/AMTNO8UWOgS32jG7vImmjZYTsAGc5OM54rV8z4r/APQR0L/v0f8ACn7J90Fj1KivLd/xX/6COhf9+j/hRv8Aiv8A9BHQv+/R/wAKXs/NBY9Sory3f8V/+gjoX/fo/wCFG/4r/wDQR0L/AL9H/Cj2fmgsepUV5Z5nxX/6COhf9+j/AIUeZ8Vif+QjoX/fo/4Uez80Fj1ImmkmvL2f4qLg/wBpaF/36P8AhUhf4pEHbqOhZ/65H/Cn7PzQWPTSdqZFCtvHvXl6S/FMfK9/of8A36P+FKZfiiBhL/Q8/wDXI/4Uez80Fj08FqUCvLA/xW/6COhf9+j/AIU7zPit/wBBHQv+/R/wo9n5oLHqVFeW7/iv/wBBHQv+/R/wo3/Ff/oI6F/36P8AhS9n5oLHqVFeW7/iv/0EdC/79H/Cjf8AFf8A6COhf9+j/hR7PzQWPUqK8t3/ABX/AOgjoX/fo/4Ub/iv/wBBHQv+/R/wo9n5oLHqVFeW7/iv/wBBHQv+/R/wo3/Ff/oI6F/36P8AhR7PzQWPUqK8t3/Fb/oI6F/36P8AhSFviuRj+0tCGe/lHj9Kfs/NBbzJvjNOkujaPpcZ3Xl3qURijHUhc5P05Fdh0rjtC8GXUWt/8JB4k1NtU1cDbEduI4B/sj/9VdjTlZJRQm+gVxmjf8l31H/sEr/6EtdnXGaN/wAl31H/ALBK/wDoS04bP0CJ6jSZopMjPNYgecePj/xcXwH/ANfcv8lr0XOWArzzx5GD8Q/ArE8C6l/ktehjax46irn8Mf66jeyOe8UL4qK2/wDwjMmnpgt5/wBsBOR224/GuaMXxaOStx4fx7q3+FdX4g8W6H4XWA6zerbeeSI8ozbsYz0B9RWKfi54IPH9tpj/AK4yf/E0481tI3+Q1fsZwh+Ln/Px4e/75b/Cjyfi5/z8eHv++W/wrRHxd8D/APQbX/vzJ/8AE0v/AAtzwP8A9Btf+/Mn/wATVe//AC/gGvYzfK+Lv/Px4e/75b/Cl8r4uf8APx4e/wC+W/wrR/4W54H/AOg2v/fmT/4mj/hbngf/AKDa/wDfmT/4mj3/AOX8A17Gd5Xxc/5+fD3/AHy3+FaGhJ8RV1eA65Nozadz5ot1bf0OMfjil/4W54I/6Da/9+ZP/iat6V8RvCut6lDp2naqk11NkRx+W67sDPUj0BpPmt8P4Br2OsrzXxh/yWHwT/uz/wAq9KrzXxh/yWHwT/uz/wAqVLf5MSPS6KKKzEJXE/Fr/kmGtf7if+jFrtq4n4tf8kw1r/cT/wBGLVQ+JDW5m+NFLfAt8AnGn2xOPT5K7nSZY5tGspI3V0a3QhlOQRtFU9FtYL3wbpttcxLLBLYRJJG4yGBQZBrm/wDhUHhcZ8v+0YUzxHHeuFX2Ap3TVn3Gb954L8M6jeS3V5odjPcSnLyPECzH1NRf8K+8H/8AQu6d/wB+RWN/wqDw1/z11X/wOek/4VB4a/57ar/4HPVXX8z/AK+YfM2v+FfeD/8AoXdO/wC/IpD8P/B//Qu6d/35FYp+EPhn/ntqv/gc9IPhD4ZJ/wBdqv8A4HPRdfzP+vmHzNk+APB//Qu6d/35FWbTwh4c024ju7HRrKCePlJI4gGX6GsD/hU/hoHb5mqf+Br0o+EvhxOBLqmP+v1+KLr+Z/18w+Z3CZHIpxIJrhT8JvDjDHm6oP8At9emj4P+Gf8Antqv/gc9RaHf8BaHcySJHGzOwVVBJJOABXBfCfLfD2RhyHurkqR3G49Kefg/4YIw76m6nqrXr4I9DXbafp1ppVhDZWMCQW0K7Y40HCindJWQaWOL+D8iN8O7NA4LRyzK655U+YeD6V1Op+HtF1mSOXUtMtLt4xtRpogxUegzXO6h8LPDGoahNe+TdW0szF5Ba3LRqzHqcDjNV/8AhUHhr/ntqv8A4HPTbTle9h6bm7/wgnhP/oXtN/8AAdf8KP8AhBPCf/Qvab/4Dr/hWH/wqDw1/wA9tV/8Dno/4VB4a/57ar/4HPTuv5n/AF8w+Zux+CfC8MqSx6BpyyIwZWFuuQR0NdACPWuB/wCFQeGv+e2q/wDgc9H/AAp/w1/z21X/AMDnqXZ7sWnc77I9aMj1rgv+FQeGv+e2q/8Agc9H/CoPDX/PbVf/AAOelaHcLIPE3wy0/Wb46rpVzLpGr9TcW/3ZD/tL3+v8651tI+JmlHy/smmaxGOkiSeWx+oOK6L/AIVB4a/57ar/AOBz0n/CoPDX/PbVf/A56yrYbD1larFS9Vr9+5rCtOHws4qx1Tx1r2qX2lafpWm2tzZFRcvLNuEZbpyDgn6U7wf4TbxB461m18W3TanLo5j2RhiISzZP3eOB6fnXrPh/wzpXhiwa00q28pHbfIzMWaRvVieTXH+Cs/8AC1PHX/XSD+RooYXD0eZ0YJefX7xzrzqbs9FjjWKNY0VVVRhVUYAHoKlopM1ZgLTSaCaQdCaAEzSlm7UpI25PBpooAcoIBJNIBS9etKBQAAUtFFABRRRQAUUUUAFFFFABRRRQAUUUUAFFFFABTSaCaaTQA7hlpqcEqetKxKoMUAiQZ6EUANVGV/anN97NIC3TNOAoAAKdRRQAUUUUAFFFFABRRRQAUUUUAeW+Kv8Aktvhr/rwl/8AZ67SuZ+JGham91pfifRITcX+lMd9uOssR6ge/X86oWfxU8LTwBrm8eynHDwXETBkPccCtknKKsNq+x2tFcl/ws3wd/0G4v8Av2/+FL/ws3wd/wBBuL/v2/8AhS5JdieVnWUVyf8Aws3wd/0G4v8Av2/+FJ/ws3wf/wBBuL/v2/8AhRyS7Bys6w0L1rkx8S/CDcDWYj9I3/wpp+JfhAHnWYgf+ub/AOFHJLsHKzrTFkksaCm0bkPSuTHxK8Iucf23F/3w/wDhTm+JXg9F2/21Fn/rm/8AhRyS7BZnV78jgUgFcmPiX4PH/Mbi/wC/b/4Uv/CzfB3/AEG4v+/b/wCFHJLsHK+x1uKK5L/hZvg7/oNxf9+3/wAKX/hZvg7/AKDcX/ft/wDCjkl2DlZ1lFcn/wALN8Hf9BuL/v2/+FH/AAs3wd/0G4v+/b/4UckuwcrOsork/wDhZvg7/oNxf9+3/wAKP+Fm+Dv+g3F/37f/AAo5Jdg5WdZRXJ/8LN8Hf9BuL/v2/wDhR/ws3wd/0G4v+/b/AOFHJLsHKzrKK5P/AIWb4O/6DcX/AH7f/Cj/AIWb4O/6DcX/AH7f/Cjkl2DlZ1lFcn/ws3wd/wBBuL/v2/8AhR/ws3wd/wBBuL/v2/8AhRyS7Bys6yiuT/4Wb4O/6DcX/ft/8KP+Fm+Dv+g3F/37f/Cjkl2DlZ1lcXox/wCL7aj/ANglf/Qlou/ip4Tt4C0OoNdy/wAMMETFmPoMgCrPw60bU7jVtT8Xa1bm1utRAjtrZusUI6Z+uB+XvTScYtspJrc9HJpNpNIwK/SlkzgY6ViI878dEr8QfAqt0N1Lg/gtehqm1sg8V5545+bx94G3f8/Uv8lr0MZwBVz+Ff11G9kV7qxtL4AXVrBOFOVEsYfH51ANA0b/AKBNh/4DJ/hWZ4p0PWdaS2XSfEM2jtEWMnlxB/MBxjPPGP61zf8AwgfjT/ool5/4DD/GhJW+KwHcf2Do3/QJsP8AwGT/AAo/sHRv+gTYf+Ayf4VxH/CCeNP+iiXn/gMP8aP+EE8af9FEvP8AwGH+NPlX835hbzO3/sDRv+gTYf8AgOn+FH9gaN/0CbD/AMB0/wAK4j/hBPGn/RRLz/wGH+NJ/wAIH41/6KJef+Aw/wAaOVfzfmHzO4/sDRv+gTY/+A6f4U+DSdNtZRLb6faQyDo8cKqR+IFcL/wgnjT/AKKJef8AgMP8a1vDfhfxHpOqfadT8XXOqW3llfs7whRk9DnPak0rfF+YfM7LtXmvjD/ksPgn/dn/AJV6VXmvjD/ksPgn/dn/AJU6W/yf5Aj0uikzS5rMQlcT8Wv+SYa1/uJ/6MWu2riviypb4ZayFBOI0P4eYtVD4kNbl+30mPXPh/YabNPPBHPYwgyW77HXCqeD+Fc7/wAKc0zv4g8Qf+Bn/wBauy8MOr+FdIZSCpsocEf7grSlfZGzjnapNClKLaTC7R5nN8KtCt2Cz+KdaiY8gPqAU/qKiPwy8OdvF2rf+DJf8K860jSbfxVHdaxrLTXV5PcPlmkOAAeAPat6b4eadbRR79MnQPwpLNz9K3d07OR59TM6VOcoNN8u9kdUnwz8ObSp8WaqfX/iYr/hQfht4cjkVh4s1XA/6iK/4VyDfDzS49xexmXDbGy7cN6fWpD4B0tGSKbTpgznagLt8xBxgfjSv/eZH9r0e0vuPbI9Q01I0UajbEKAMtOpJx6nNPOq6cSAL+1/7/L/AI14g/w303YWGl3ARSQW3NjIOD+tMT4caY8jRrplwWRtrKHbIPXFRyR7iea0v5Zfce5jVtO/5/7X/v8AL/jS/wBrad/0ELX/AL/L/jXhLfDvSUuFgfTp1lb7sZdsn8M1Ivw105pHQaVcFkxuG5sjPSjkj3D+1aL+zL7j3H+1tO/6CFr/AN/l/wAaR9T050KnULYAjGROoP8AOvCV8AaMwythKRvCZEjfe9OvWpv+FZ6fs3f2Vcbf95sUcke4lm1F7Rl9x1bfDTw4zsx8XasMnOP7SX/Ck/4Vl4b/AOhv1b/wZL/hXIH4faQJUjOnzB3+6vmNluccc+tTD4Z6eVDDSrnDdDubBq7/AN5lLN6L2jL7jqf+FZeG/wDob9W/8GS/4Uf8Ky8N/wDQ36t/4Ml/wrjj4C0QRhzZShCxUHzGxkdR1qc/DXTg4Q6Vcbyu5RubJFF/7zEs4ovZS+46r/hWXhv/AKG/Vv8AwZL/AIV2ugppWgaPBpsOrrcRw5xJc3Su5yc8n8a8fPw104Kzf2Vc4T753Nxxmox8PdIMnljT5t+0Pje2cHoevTkUpWlu2Dzej1jL7j3f+1tO/wCf+1/7/L/jR/a2nf8AQQtf+/y/414V/wAK50sRtJ/ZlxsRtrHc2AelPb4a6ejojaVcB3J2rubJx1qeSPcP7Vpfyy+49xXU7BmCpe2zMeABKpJ/WruRXzteeA9Ht0mU2s0MyKf+WjZU4969P+EupXeqfD2xlvJmlljd4Q7HJKq2Bk/TilKCSumdGFxdPEc3JfTud13rzbwT/wAlU8df9dIP5GvSK828DkN8UfHTryolhXI9cHilD4X/AF1OxdT0kmgjIyKQmm5ZTnBxUCHBeOTigfJ16UjrvAKmlwfLwetAC4GdxOaByc0gFOAoAWiiigAooooAKKKKACiiigAooooAKKKKACiiigAopCaKAEB4pMK44OKOjUp+UcDk0AIMqMMMj1oyMYAoBOMUoFAABTqKKACiiigAooooAKKKKACiiigAooooAQiqFxoulXkpludMsppD1eSBWP5kVoUUbAZX/CM6D/0BdO/8BU/wo/4RnQf+gJp3/gKn+FatNNF2Bl/8I3oP/QE07/wFT/Cmnw5oP/QF07/wFT/CtYjPSk+TOD1p3YGZ/wAI5oYUbdF07n/p1T/ChvDmhMcf2LpxP/Xqn+FaedvB6UZA6UXYGWPDWhf9AXTv/AVP8KX/AIRnQv8AoC6d/wCAqf4VqAU6i7Ayv+EZ0H/oCad/4Cp/hR/wjOg/9AXTv/AVP8K1aKV2Blf8IzoP/QF07/wFT/Cj/hGdB/6Aunf+Aqf4Vq0UXYGV/wAIzoP/AEBdO/8AAVP8KP8AhGdB/wCgLp3/AICp/hWrRRdgZX/CM6D/ANAXTv8AwFT/AAo/4RnQf+gLp3/gKn+FatFF2Blf8IzoP/QF07/wFT/Cj/hGdB/6Aunf+Aqf4Vq0UXYGV/wjOg/9AXTv/AVP8KP+EZ0H/oC6d/4Cp/hWrRRdgZX/AAjOg/8AQF07/wABU/wo/wCEZ0H/AKAunf8AgKn+FatFF2Blf8IzoP8A0BdO/wDAVP8ACk/4RrQf+gLp3/gKn+Fa1NPWi7Az4NE0i1lEttpdlDIOjx26KR+IFXlGTTiAeM4NNwUbPUUALvBYqRRynHUdqCqsc5oJz9KAPOfHrE/EPwGOgN3L/Ja9GxXnHj4Y+IvgL/r7l/ktek1c/hX9dRvZHNeK/F8PhSO2ebTNQvROWA+xw79uMdfTrXND4x2X/Qs+IP8AwF/+vXpJoAFJOKWqDQ83/wCFxWX/AELPiD/wF/8Ar0n/AAuKy/6FnxB/4C//AF69JoquaH8v4hddjzb/AIXFZ/8AQteIP/AX/wCvW74X8cweKbye2h0jVLMxR7y93BsU84wDnr7V1vFJipcotaILo81+JHj3U/Dmp2ejaLFCb24jMzyzjKomcDA7ng1xf/CxviB/z9aX/wCA9Wviv/yUzTh/1Dv/AGZqz9DtrK81SG0vFm2zMqKYmA2sTjJyOlcGKxVSlUjCCWq6o+myvLcNWwjr1k203t2RL/wsX4gf8/Wl/wDgPWTf+IfF+pa/p2tXFxYG808MICsZCjd1yO9bsGk6fqOp3On2kk8U4BW3ExUiR1JypIAxkdKki0nS4tfh0meW4lc4ikkhKqFlJwcZHIHT61isdiN1y9tjteW5errlldK9vLuVf+FjfED/AJ+tL/78V3nw18cX3in7fp+qwRJqNjtLvCMJIrd8djXm+qR2cN9JFaCURoSh80gkkEgngDit/wCDX/I5eIv+uEX863wmJnWnKM0tF09ThzfLcPh8NGrSTTb6+h7aKp6np1vq2m3On3Sb7e5jaOQexGKuUZrsPmTyTTbzxf8ADmI6TPok+v6NET9kubQ5kRM8Kw56f5NXJfilqDQup8C6+MqRkxHjj6V6aTUcoLxuo6lTV8yerQ7nzv4GOfDpJGMzydfrXqLyRNq/2RHZ5HnjmZSuAgRM4znnNeXeEr6zstMuLO6mit54bmQOkrBSDn3rfbxJZmd5/wC1bfe6lS/mryCMH9K1mm5M+Vr89PETfK3d/gdmGf7ez3an95bLcleP9ZH/AI4NOtSLizsbhzua1LTknvuL/wDswFcWvia0SNY11W2CqjIB5q8KeooTxNaxxeWmrW4TbswJV6Z3Y/Os+ViVeSd3B/d6P8zrNX8nzrbc0om86TaABtI809am1UrKFuEPzPeqj4/vJuH8sVybeL4WjKNq9qVJJ5dOpOTz9aibxNaMpVtWtypl84jzV+/60+Vkyqt81ovW3Tsb8RP/AAkN6cnI8/HPs1XJTCdAUzySIvkw/Mi5JO6THeuSTxJZR3X2pNVthNuLb/NXqetPn8U2tyHEurWzB9uR5qgcdOO2MmjlZEJyjGXuvW/Tubmmf8ecX/X9F/I1ZUnMXP8AzFD/AErmrXxRa2W/7Pq1sgbqPNU9Oh570xfEdkiqq6rbALJ5o/erw3rRysmMpRilyv7jq7r/AJD2l/Uf+jGqhLM0WnW8iMQyXcjD6gKayx4wiCqv9sWuEOVJdMg5z1+tVW8QWDxCJtTtigYuB5q9T1/lRysc5yd+WL18vT/I6PWJV/tC2jtUwq4mVT3dzu/qB+FX4wHFzOXkW3kjmMsXBaKTjcB69q42TxBYTSCR9Uti6gAHzl4AGB/KrZ8YxF1c6xbEgEf6xOc9cjvnFHKyozlzScovXy/rodJpPkmG0KSSBhcy+UG/jOwcMc8frRH/AMeUF73ljit8+4k5/RRXLN4qtmkST+1rUMjl1xIgw2AM/kBTB4lsxAkI1W28tH8xV81cBvWnysaqtK3I/u9EdbqJuBqEa2+P9XNvB6bfMbNQ3M0UWuXpRZ5VIkW4HAKKeMr9K50+LoTE8R1i3KOST+9XPJyefr2px8YRNKsp1i1LjPO9Oc9c+v40uVhKd9eWW6exY1qN4pZkkl8790Nj4+8m35f0xWL8N/HV3oPhCGxh8LatqKLNI32i2jyhyenTtT9Q8RafPHPPPqdu7lDk+aCTx6Cuz+DUEkXw2sjIhXzJZXXIxlSxwap6QfMj1MnTTqNppNrf5lGf4geKtVjNrofgnUYLuQbVnvhsjj/2jkDOPrXR+BfCT+FtIlF1P9q1O8mNxeT/AN5z2HsP6murNAO1ck1k56WSse1cRDkn2pBId2DTiMHcv4ijKE5xzUiA/K3HQ0feNHU5pwFAABS0UUAFFFFABRRRQAUUUUAFFFFABRRRQAUUUUAFBopCaAE6mikzg0UAKRR1GKdSYoAAKWiigAooooAKKKKACiiigAooooAKKKKACiiigAooppNABmk5PShhxkULyhx1oATDJz1FDIH+ZaSNm3YNKPlY46UAK3YUoFAFOoAKKKKACiiigAooooAKKKKACiiigAooooAKKKKACiiigApjU+kIoAbgOBntSl8HAoHBpMc0ABwTwKUClApaAPNvH3/JRfAX/X3L/Ja9Irzfx9/yUXwF/wBfcv8AJa9Iq5/DH+uo3sjnPFXg6x8WJbJe3N9CLcsV+yz+XnOOvr0rm/8AhS+g/wDQT1v/AMDP/rV6RSUlOSVkwuzzj/hS+g/9BPW//Az/AOtR/wAKX0H/AKCet/8AgZ/9avSKKftJ9w5mUtMsI9L0y2sYXleO3jEatK+5yB6nuau0UVAjwn4r/wDJTNO/7B3/ALM1Y1hdmx1K3ugm8wyK+0nGcHOK9R8e/Dw+Lrm01Cyv/sWo2ymNXZdyOhOcEfifzrjv+FPeKv8AoY7H/vwf8K48VhJV5xnCSVl1ufS5Xm2Hw2GdCsm7t7eZl2mtNZyXtzDCFurjIjm3cwgk7tvuemafLrxn1Sy1J7ZPtMBDTMDjzip4J9DitH/hTviv/oZLH/vwf8K5/U/BHiPS/FGkaFJrVtJNqYcpIsR2ptGTkYzWCy+s9FNfj/kdzzrL3Jy5Hfb5Wtbfb/hyK4l+0Tyy7Npdy2PTJzXT/Bo/8Vl4j/64Rfzpv/CnfFX/AEMdj/34P+Fdx4B8Br4Niupp703uoXhBmm27VAHQKPxrowuFlh5SlKSd1bS/dHBm+bUMXQjSpJqzvr6HbUnWgmm89QK6z5sXBJ9qNuDkHNGd6kdDSRhlJBoA53U/AvhjWbpru/0e3mnflnwVLH1OCMmqp+GPgwgL/YFrge7f411mOTTgKfNJdQ1ORHwu8Ff9C/a/m3+NH/CrvBX/AEL9r+bf412GaM0c0u4HH/8ACrvBX/Qv2v5t/jR/wq7wV/0L9r+bf412GaM0c0u4HH/8Ku8Ff9C/a/m3+NH/AAq7wV/0L9r+bf412GaM0c0u4HH/APCrvBX/AEL9r+bf40f8Ku8Ff9C/a/m3+NdhmjNHNLuBx/8Awq7wV/0L9r+bf40f8Ku8Ff8AQv2v5t/jXYZozRzS7gcf/wAKu8Ff9C/a/m3+NH/CrvBX/Qv2v5t/jXYZozRzS7gcf/wq7wV/0L9r+bf40f8ACrvBX/Qv2v5t/jXYZozRzS7gcf8A8Ku8Ff8AQv2v5t/jR/wq7wV/0L9r+bf412GaM0c0u4HID4Y+DEYMvh+0yORncR/Ouohhjt4UihRY4kG1UQYCgdgBUxpo4OKHJvdhcRgRSjDpjvSqCucnjtSfKeehpACLsHJoxk0gGaeBQAAUtFFABRRRQAUUUUAFFFFABRRRQAUUUUAFFFFABRmkJppyBQApNJxjJ6UmCacoyMEcigBCMciijBJy3TsKKAH0UUUAFFFFABRRRQAUUUUAFFFFABRRRQAUUUUAFFFNNAATTTzTsDFNZSORzQApYJgUEY+ZfxFHyuOeDRwowKADdntSgUAU6gAooooAKKKKACiiigAooooAKKKKACiiigAooooAKKKKACiiigAooooATFGKWigAooooA4L4laHqF/ZadrWjRmXU9HuPtMcQ6yLxuUep4HH1pdI+LHhPULNWu9RXT7oDEttdAqyN3HTBrusVlXvhnQ9SmM19pFjcSnq8sCsx/HFUpJq0h37mX/wsvwb/ANDFY/8AfZ/wo/4WX4N/6GGx/wC+z/hVv/hCPC3/AEL2mf8AgMn+FL/whHhb/oXtM/8AAZP8Kf7vzDQp/wDCy/Bv/QxWP/fZ/wAKP+Fl+Df+hisf++z/AIVc/wCEI8Lf9C9pn/gMn+FH/CEeFv8AoXtM/wDAZP8ACj935hoU/wDhZfg3/oYrH/vs/wCFH/Cy/Bv/AEMVj/32f8Kuf8IR4W/6F7TP/AZP8KP+EI8Lf9C9pn/gMn+FH7vzDQp/8LK8G/8AQw2P/fZ/wo/4WV4N/wChhsf++z/hVz/hCPC3/QvaZ/4DJ/hSf8IR4W/6F7TP/AZP8KP3fmGhnzfE7wZBE0h1+0YKM4QlifoAK5vw21348+ICeLntZbbRdOhaHTxKuGmZsgvj05P6V20fg3wzFIHj8P6YrLyCLZP8K2lVUUKoCqBgADAFF4pe6guug/tSdaCeKReWqBCfxYodypAApThxweRRkNww5FAAeQHHWl3ZFISMYHSlAoAAKdRRQAUUUUAFFFFABRRRQAUUUUAFFFFABRRRQAUUUUAFFFFABTCKfSYoAQ8rSAU7FLigBMUtFFABRRRQAUUUUAFFFFABRRRQAUUUUAFFFFABRSE0hJFACMaFcHg0DByTQCr8YoARyynI6UrcqD0NAOMq1BOTQADJ70U4CigBaKKKACiiigAooooAKKKKACiiigAooooAKKKKACkNLQaAGDnINH3Fx1oxzSsORQAhII6c0AUoFOoAKKKKACiiigAooooAKKKKACiiigAooooAKKKKACiiigAooooAKKKKACiiigAooooAKKKKACiiigAooooAKKKKACiiigAooooAKb1OKcaZ3oACp7UiHkg9aUnDU4qD1FADFjKtkHilPJ+lHPqaUCgAAp1FFABRRRQAUUUUAFFFFABRRRQAUUUUAFFFFABRRRQAUUUUAFFFFABRRRQAUUUUAFFFFABRRRQAUUUUAFFFFABRRRQAUUUUAFGaQ0hoAQmlHK80hFI/QUAKPlOD0NAQKc5peq800CgBTyc04CkFOoAKKKKAP//Z;" parent="1" vertex="1">
          <mxGeometry x="570" y="440" width="248.85" height="236.06" as="geometry" />
        </mxCell>
        <mxCell id="3gkrU1Qj5pZHPReSSYtD-9" value="&lt;b&gt;&lt;font style=&quot;font-size: 14px;&quot;&gt;WebSockets&lt;/font&gt;&lt;/b&gt;" style="text;html=1;strokeColor=none;fillColor=none;align=center;verticalAlign=middle;whiteSpace=wrap;rounded=0;" parent="1" vertex="1">
          <mxGeometry x="50" y="420" width="90" height="30" as="geometry" />
        </mxCell>
        <mxCell id="3gkrU1Qj5pZHPReSSYtD-10" value="&lt;b&gt;&lt;font style=&quot;font-size: 14px;&quot;&gt;FastAPI Servers&lt;/font&gt;&lt;/b&gt;" style="text;html=1;strokeColor=none;fillColor=none;align=center;verticalAlign=middle;whiteSpace=wrap;rounded=0;" parent="1" vertex="1">
          <mxGeometry x="85" y="210" width="110" height="30" as="geometry" />
        </mxCell>
        <mxCell id="3gkrU1Qj5pZHPReSSYtD-12" value="Redis Msg Response Queues" style="text;html=1;strokeColor=none;fillColor=none;align=center;verticalAlign=middle;whiteSpace=wrap;rounded=0;fontStyle=1" parent="1" vertex="1">
          <mxGeometry x="210" y="270" width="120" height="30" as="geometry" />
        </mxCell>
        <mxCell id="3gkrU1Qj5pZHPReSSYtD-14" value="Redis Msg Response Queues" style="text;html=1;strokeColor=none;fillColor=none;align=center;verticalAlign=middle;whiteSpace=wrap;rounded=0;fontStyle=1" parent="1" vertex="1">
          <mxGeometry x="520" y="270" width="110" height="30" as="geometry" />
        </mxCell>
        <mxCell id="3gkrU1Qj5pZHPReSSYtD-16" value="&lt;span style=&quot;font-weight: normal;&quot;&gt;AI application Inference API&lt;/span&gt;" style="text;html=1;strokeColor=none;fillColor=none;align=center;verticalAlign=middle;whiteSpace=wrap;rounded=0;fontStyle=1" parent="1" vertex="1">
          <mxGeometry x="570" y="410" width="110" height="30" as="geometry" />
        </mxCell>
        <mxCell id="3gkrU1Qj5pZHPReSSYtD-18" style="edgeStyle=orthogonalEdgeStyle;rounded=0;orthogonalLoop=1;jettySize=auto;html=1;entryX=0;entryY=0.5;entryDx=0;entryDy=0;startArrow=classic;startFill=1;" parent="1" source="3gkrU1Qj5pZHPReSSYtD-17" target="3gkrU1Qj5pZHPReSSYtD-6" edge="1">
          <mxGeometry relative="1" as="geometry" />
        </mxCell>
        <mxCell id="3gkrU1Qj5pZHPReSSYtD-17" value="" style="image;points=[];aspect=fixed;html=1;align=center;shadow=0;dashed=0;image=img/lib/allied_telesis/storage/Datacenter_Server_Half_Rack_ToR.svg;" parent="1" vertex="1">
          <mxGeometry x="310" y="458.03" width="153.93" height="200" as="geometry" />
        </mxCell>
        <mxCell id="3gkrU1Qj5pZHPReSSYtD-19" value="&lt;span style=&quot;font-size: 17px;&quot;&gt;PaaS,SAAS,IaaS Middle Platform&lt;br&gt;&lt;span style=&quot;font-weight: normal;&quot;&gt;&amp;nbsp;&amp;nbsp;&lt;/span&gt;&lt;/span&gt;" style="text;html=1;strokeColor=none;fillColor=none;align=center;verticalAlign=middle;whiteSpace=wrap;rounded=0;fontStyle=1" parent="1" vertex="1">
          <mxGeometry x="282.95" y="428.03" width="208.03" height="30" as="geometry" />
        </mxCell>
      </root>
    </mxGraphModel>
  </diagram>
  <diagram id="V5S82OHcbcMgg4Obrz5_" name="Tox自动化测试集成发布流程">
    <mxGraphModel dx="1764" dy="1118" grid="1" gridSize="10" guides="1" tooltips="1" connect="1" arrows="1" fold="1" page="1" pageScale="1" pageWidth="827" pageHeight="1169" math="0" shadow="0">
      <root>
        <mxCell id="0" />
        <mxCell id="1" parent="0" />
        <mxCell id="jXvPFo1qPIxAJfG5Biib-1" value="" style="shape=image;verticalLabelPosition=bottom;labelBackgroundColor=default;verticalAlign=top;aspect=fixed;imageAspect=0;image=https://www.osgeo.cn/tox/_images/tox_flow.png;" vertex="1" parent="1">
          <mxGeometry x="570" y="190" width="1200" height="812" as="geometry" />
        </mxCell>
      </root>
    </mxGraphModel>
  </diagram>
</mxfile>
